<?xml version="1.0" encoding="utf-8" ?>
<svg baseProfile="full" height="200mm" version="1.1" viewBox="0,0,200,200" width="200mm" xmlns="http://www.w3.org/2000/svg" xmlns:ev="http://www.w3.org/2001/xml-events" xmlns:xlink="http://www.w3.org/1999/xlink"><defs /><rect fill="#1a1a1a" height="200" width="200" x="0" y="0" /><text alignment-baseline="middle" fill="#e1ed5e" style="dominant-baseline: central; font-size:9.0px; font-family:Arial;" text-anchor="middle" x="100.0" y="100.0">2019</text><line stroke="#e1ed5e" stroke-width="0.3" x1="100.0" x2="100.0" y1="15.0" y2="10.0" /><path d="M 100.0 14.0 a86.0,86.0 0 0,1 42.46469731375804,11.215312516191453" fill="none" id="id25" stroke="none" /><text fill="#e1ed5e" style="font-size:6.75px; font-family:Arial;" text-anchor="middle"><textPath startOffset="22.20632615414155" xlink:href="#id25">January</textPath></text><path d="M 101.80526077348638 79.07773832637324 l 2.8877615278217528 -33.46801925986396 a54.5923723458197,54.5923723458197 0 0,0 0.9355439552282824,0.08884117135919196 l -3.4634306101402794 33.41335254398958" fill="#69ff28" stroke="none" /><path d="M 102.88285421437855 79.19881850522331 l 1.2068059735847867 -8.707686278520026 a29.790914684093224,29.790914684093224 0 0,0 0.5073407234492947,0.07476883455912847 l -1.3565156774627372 8.685622959799929" fill="#ff6909" stroke="none" /><path d="M 103.95276090670814 79.375362276772 l 1.9317372077591504 -10.079380217229618 a31.262821941518858,31.262821941518858 0 0,0 0.5276473443296411,0.10584109342403047 l -2.1049509615559168 10.04463516772838" fill="#ff7d0b" stroke="none" /><path d="M 105.71112130821622 79.79150937346287 l 1.8980741142336524 -6.7162315202062866 a27.97928729714835,27.97928729714835 0 0,0 0.46233744729700615,0.13496897899356283 l -2.0134017792540857 6.682564212294021" fill="#ff5007" stroke="none" /><path d="M 106.0581310904928 79.89281104454417 l 1.3800752477499234 -4.580527123753274 a25.783914340881477,25.783914340881477 0 0,0 0.4238563990117222,0.131694246400171 l -1.458717019472364 4.556092742470583" fill="#ff3104" stroke="none" /><path d="M 106.40334571778207 80.00007090966166 l 4.438971582556137 -13.864489096475051 a35.55776516560892,35.55776516560892 0 0,0 0.5813138849535111,0.19165004822666365 l -4.6769682897520655 13.78602532398915" fill="#ffb610" stroke="none" /><path d="M 106.74666289553966 80.11325718540242 l 1.6121957935524733 -4.752175054477739 a26.018201174240506,26.018201174240506 0 0,0 0.42288001346049287,0.14753453322963947 l -1.6937578110762397 4.723719668075892" fill="#ff3404" stroke="none" /><path d="M 108.09893153111575 80.62456947434976 l 3.13056853720955 -7.489396961247535 a29.117359558952046,29.117359558952046 0 0,0 0.4607700719856756,0.19727769821546864 l -3.259022366985541 7.434399735069276" fill="#ff6008" stroke="none" /><path d="M 109.08828744355905 81.06846463323043 l 2.7551294164408735 -5.7391263548054905 a27.366184840056153,27.366184840056153 0 0,0 0.42291015680484534,0.20752017726549193 l -2.853510840256151 5.6908510174051665" fill="#ff4706" stroke="none" /><path d="M 109.41281617654863 81.2277094730956 l 4.249972866938961 -8.475861409936975 a30.481692676425247,30.481692676425247 0 0,0 0.46700785424678376,0.23921956162867103 l -4.3952412087745 8.401449322995802" fill="#ff720a" stroke="none" /><line stroke="#e1ed5e" stroke-width="0.3" x1="143.23703022742887" x2="145.7803849466894" y1="26.81831364943548" y2="22.513508569990506" /><path d="M 143.74570117128098 25.957352633546492 a86.0,86.0 0 0,1 28.547481713284135,27.462654790039103" fill="none" id="id26" stroke="none" /><text fill="#e1ed5e" style="font-size:6.75px; font-family:Arial;" text-anchor="middle"><textPath startOffset="19.985693538727396" xlink:href="#id26">February</textPath></text><path d="M 110.68208982089419 81.91981866633111 l 6.146281812484067 -10.40301023121716 a33.08302122770962,33.08302122770962 0 0,0 0.487798016010764,0.2938928466372313 l -6.324441894712469 10.295670775121314" fill="#ff950d" stroke="none" /><path d="M 113.34407831869373 83.78471172551755 l 18.238841502008825 -22.163244675606702 a49.703044331328485,49.703044331328485 0 0,0 0.6559440060292646,0.5493342411097633 l -18.617643044997205 21.846009277103118" fill="#9eff22" stroke="none" /><path d="M 114.16331599549186 84.49514656593476 l 5.014725184768536 -5.489715757715234 a28.435351220975292,28.435351220975292 0 0,0 0.3585455630875635,0.33322902518280434 l -5.108478631650946 5.402582146457789" fill="#ff5608" stroke="none" /><path d="M 114.42810811169701 84.74124197986012 l 7.362453756305092 -7.786322325298673 a31.715994618661185,31.715994618661185 0 0,0 0.39345466874569573,0.37850307959963375 l -7.495391668663205 7.658436158936737" fill="#ff830c" stroke="none" /><path d="M 114.94478906791727 85.2469230424477 l 17.582608454834563 -17.357058334503087 a45.706590094615706,45.706590094615706 0 0,0 0.5479039100518223,0.5646631414218001 l -17.878776628589495 17.051830997531173" fill="#cbff1d" stroke="none" /><path d="M 115.4437574822437 85.77008943001954 l 4.3240580528885415 -3.984196168759605 a26.879736146793405,26.879736146793405 0 0,0 0.31059709117059225,0.3429690656887259 l -4.391998784675169 3.90917431580133" fill="#ff4006" stroke="none" /><path d="M 116.15771136456269 86.58626213691792 l 2.7337100972843165 -2.269459443312989 a24.552972989038437,24.552972989038437 0 0,0 0.2671614929524993,0.3275084008292558 l -2.7723700823132247 2.222066872875632" fill="#ff1f03" stroke="none" /><path d="M 116.38621287248628 86.86637796730983 l 3.5994196560486036 -2.8849507611947196 a25.612890932470336,25.612890932470336 0 0,0 0.27277231148756426,0.34639313512727765 l -3.648546048130132 2.8225652321144037" fill="#ff2e04" stroke="none" /><path d="M 116.82858285166822 87.43820079747576 l 7.048912016276538 -5.261703740903445 a29.796174558877574,29.796174558877574 0 0,0 0.30326459558583063,0.4136525675634656 l -7.138439224375995 5.139588729668486" fill="#ff6909" stroke="none" /><path d="M 117.04232023915458 87.72973835380427 l 8.15749879744466 -5.87329912937597 a31.051886852399385,31.051886852399385 0 0,0 0.3085779484463562,0.4364616244535193 l -8.2573893656949 5.732011004590657" fill="#ff7a0b" stroke="none" /><path d="M 117.65298651832404 88.62581576622439 l 3.7288155279950996 -2.4025529473528495 a25.435800480933654,25.435800480933654 0 0,0 0.23397593906239192,0.3700937461534002 l -3.769619063303447 2.3380115534852433" fill="#ff2c04" stroke="none" /><line stroke="#e1ed5e" stroke-width="0.3" x1="172.23445277983987" x2="176.4835382374775" y1="55.19839476539836" y2="52.563006222186495" /><path d="M 173.08426987136738 54.67131705675599 a86.0,86.0 0 0,1 12.851231095245387,41.99856678651699" fill="none" id="id27" stroke="none" /><text fill="#e1ed5e" style="font-size:6.75px; font-family:Arial;" text-anchor="middle"><textPath startOffset="22.20632615414155" xlink:href="#id27">March</textPath></text><path d="M 118.3937258080291 89.86733742301442 l 14.340165682844589 -7.89965348395621 a37.372076135237556,37.372076135237556 0 0,0 0.30554679941958024,0.5661318148079171 l -14.474020581482634 7.651640685815835" fill="#ffcd13" stroke="none" /><path d="M 119.34039704204932 91.81776055985345 l 58.02119112614798 -24.54671832043964 a84.0,84.0 0 0,0 0.5519132524552104,1.3365017181867875 l -58.435126065489385 23.54434203179955" fill="#4dd2ff" stroke="none" /><path d="M 119.7369772167798 92.82701384747503 l 4.034113375876369 -1.4661130255688726 a25.292267248572408,25.292267248572408 0 0,0 0.14518594743573135,0.41046022435075596 l -4.05875240412191 1.3964551747915022" fill="#ff2a04" stroke="none" /><path d="M 119.85752413597 93.16781622104841 l 3.825050747882603 -1.316047735579075 a25.045119882797056,25.045119882797056 0 0,0 0.1367495820748552,0.4088638445884749 l -3.8471376237292283 1.250010788068286" fill="#ff2603" stroke="none" /><path d="M 120.18372546131832 94.20196356495316 l 16.016040131973014 -4.600814869797912 a37.66376424986635,37.66376424986635 0 0,0 0.17363574522174866,0.6246601599486584 l -16.092862647761127 4.3244434064303015" fill="#ffd113" stroke="none" /><path d="M 120.37134235888165 94.90015583598534 l 4.1701948053824935 -1.0439834187834862 a25.29888661091846,25.29888661091846 0 0,0 0.10211979878698123,0.42335249417385057 l -4.187547404430295 0.9720456929502295" fill="#ff2a04" stroke="none" /><path d="M 120.67395015179393 96.31383870115 l 4.705216061426476 -0.8389391103786067 a25.779422247053354,25.779422247053354 0 0,0 0.07413196764684292,0.4375310694217463 l -4.718959890593543 0.7578222526410225" fill="#ff3104" stroke="none" /><path d="M 120.73433829027371 96.67025291283417 l 10.115289006682424 -1.6244238728197542 a31.244892610823065,31.244892610823065 0 0,0 0.08070720401233894,0.5317596358248684 l -10.141752104134063 1.4500651246028036" fill="#ff7d0b" stroke="none" /><path d="M 120.78858239683441 97.02765380044208 l 8.166466054869808 -1.1676392299701606 a29.24951811906042,29.24951811906042 0 0,0 0.06697304079974946,0.49902694502412415 l -8.185355094727393 1.0268939428813721" fill="#ff6109" stroke="none" /><path d="M 120.91429891909075 98.10471618934814 l 4.844326754928537 -0.4389998492248238 a25.864177481973275,25.864177481973275 0 0,0 0.03636443765426007,0.4437382471249136 l -4.851165676402292 0.3555476848921414" fill="#ff3204" stroke="none" /><line stroke="#e1ed5e" stroke-width="0.3" x1="184.98032266829074" x2="189.97916517819016" y1="98.17113171792111" y2="98.06355123074" /><path d="M 185.9800911702706 98.14961562048488 a86.0,86.0 0 0,1 -9.607161424134198,41.387399972396054" fill="none" id="id28" stroke="none" /><text fill="#e1ed5e" style="font-size:6.75px; font-family:Arial;" text-anchor="middle"><textPath startOffset="21.466115282336823" xlink:href="#id28">April</textPath></text><path d="M 120.99513854157772 99.54816195383933 l 11.12787693028593 -0.23948392434465565 a32.13045360825916,32.13045360825916 0 0,0 0.007140599918776961,0.5530473329264792 l -11.130350537322423 0.047900333357713716" fill="#ff890c" stroke="none" /><path d="M 120.99980553446 99.90962569577887 l 6.837503544654867 -0.029425730845158714 a27.83756686232783,27.83756686232783 0 0,0 -0.0020622370581602142,0.47919126526679534 l -6.836997010307203 -0.08827501262532135" fill="#ff4e07" stroke="none" /><path d="M 120.9904718944345 100.63252640178507 l 4.706186852582144 0.14181612738212265 a25.70832310970718,25.70832310970718 0 0,0 -0.017136271024191612,0.44221101182580347 l -4.703048448706749 -0.22280438622193233" fill="#ff3004" stroke="none" /><path d="M 120.92983693683757 101.71520430193887 l 6.135365131506549 0.5027943934433646 a27.155932707476946,27.155932707476946 0 0,0 -0.04218920324066714,0.4655543421911575 l -6.125801331988806 -0.6083301241830927" fill="#ff4406" stroke="none" /><path d="M 120.8583938346157 102.4346265915055 l 5.441081593844017 0.6350921379641256 a26.47802071322955,26.47802071322955 0 0,0 -0.056736712867905895,0.4522474253069547 l -5.429343371729264 -0.7286573175584752" fill="#ff3b05" stroke="none" /><path d="M 120.81339534386255 102.79330883721812 l 7.594642854860736 1.019256236261016 a28.662733413609285,28.662733413609285 0 0,0 -0.0698359978840709,0.4884328065465953 l -7.575972805960064 -1.1498345147880207" fill="#ff5908" stroke="none" /><path d="M 120.70491114924044 103.5080841355445 l 3.982185372637859 0.6747114841427716 a25.03893995113632,25.03893995113632 0 0,0 -0.07565761047404856,0.42432805857744393 l -3.9699813198246217 -0.7431582934534339" fill="#ff2603" stroke="none" /><path d="M 120.49622156327973 104.57218783832717 l 8.177887356280685 1.824279514063416 a29.378892370561097,29.378892370561097 0 0,0 -0.1143530493312792,0.49262994362179435 l -8.145273741018855 -1.9647781150337753" fill="#ff6309" stroke="none" /><path d="M 120.41448212921028 104.9243191809786 l 2.4540756338974754 0.591964647404996 a23.52446219236229,23.52446219236229 0 0,0 -0.09834198179919126,0.39282733257190267 l -2.443522337803223 -0.6341198193742946" fill="#ff1001" stroke="none" /><path d="M 120.32669344350535 105.2749913415812 l 4.245943387734137 1.1018670926184402 a25.38658709495647,25.38658709495647 0 0,0 -0.11340783669023238,0.4220327490751392 l -4.226347474702128 -1.1747907748691278" fill="#ff2b04" stroke="none" /><line stroke="#e1ed5e" stroke-width="0.3" x1="174.80103733775053" x2="179.2010983576182" y1="140.37084112569926" y2="142.7455964860345" /><path d="M 175.68104954172406 140.8457921977663 a86.0,86.0 0 0,1 -30.038265399797805,32.042727171017184" fill="none" id="id29" stroke="none" /><text fill="#e1ed5e" style="font-size:6.75px; font-family:Arial;" text-anchor="middle"><textPath startOffset="22.206326154141568" xlink:href="#id29">May</textPath></text><path d="M 117.35343817320211 111.8261652097733 l 5.162411118095278 3.5181228154339763 a27.247213514576785,27.247213514576785 0 0,0 -0.26746266077402103,0.3852999111528336 l -5.1010875501591215 -3.6064639887738297" fill="#ff4506" stroke="none" /><path d="M 116.93607887273984 112.41649034213515 l 4.743512819076198 3.4776515596331556 a26.88174924958206,26.88174924958206 0 0,0 -0.2768035907976088,0.37082364446971716 l -4.682947961583497 -3.5587880836121877" fill="#ff4006" stroke="none" /><path d="M 116.0416608686014 113.55231037782055 l 3.216345730929848 2.717232086189822 a25.210490478684182,25.210490478684182 0 0,0 -0.28290671041411863,0.32908441817036127 l -3.169096510944951 -2.7721936035217114" fill="#ff2803" stroke="none" /><path d="M 115.80600337817218 113.82643327865902 l 8.860844861774353 7.751097943143637 a32.772599160280556,32.772599160280556 0 0,0 -0.37507638962836815,0.4214022999049781 l -8.726109622497646 -7.9024744127894815" fill="#ff910d" stroke="none" /><path d="M 115.07121518719521 114.62390073753431 l 3.1435583504133042 3.050257375274504 a25.3801859729776,25.3801859729776 0 0,0 -0.3069302936034121,0.31091876695652765 l -3.090587431754357 -3.1039166362116966" fill="#ff2b04" stroke="none" /><path d="M 114.81725581225074 114.88116024355365 l 4.862066764875637 4.883036073599408 a27.890844253223356,27.890844253223356 0 0,0 -0.3431238543380743,0.3358189094681 l -4.777292958161768 -4.96600508599008" fill="#ff4e07" stroke="none" /><path d="M 114.29624159901734 115.38237550388516 l 4.818464143402228 5.184539187622156 a28.077926482328195,28.077926482328195 0 0,0 -0.3568576775318889,0.3259810274115121 l -4.728506916403476 -5.266712981620251" fill="#ff5107" stroke="none" /><path d="M 113.75828350139079 115.86535959552629 l 2.006424828211723 2.3137080579676352 a24.06251294997569,24.06251294997569 0 0,0 -0.315258477754771,0.26867011412922803 l -1.966300873879905 -2.34790256231981" fill="#ff1802" stroke="none" /><path d="M 111.45004920935366 117.60387380957326 l 4.411224998488987 6.782036199075739 a29.090421558415102,29.090421558415102 0 0,0 -0.42211337309406544,0.26941272631164503 l -4.293829823347991 -6.856963354211192" fill="#ff5f08" stroke="none" /><line stroke="#e1ed5e" stroke-width="0.3" x1="143.8653032363475" x2="146.44561519142675" y1="172.8068346515853" y2="177.08958963109032" /><path d="M 144.38136562736335 173.6633856474863 a86.0,86.0 0 0,1 -40.68145358897372,12.25698825130547" fill="none" id="id30" stroke="none" /><text fill="#e1ed5e" style="font-size:6.75px; font-family:Arial;" text-anchor="middle"><textPath startOffset="21.466115282336833" xlink:href="#id30">June</textPath></text><path d="M 110.5260780823613 118.17145234162733 l 10.24858308758325 17.692405251800103 a41.44638498358625,41.44638498358625 0 0,0 -0.6204153441070969,0.35228802422986644 l -9.942518976554954 -17.866196441824595" fill="#feff18" stroke="none" /><path d="M 109.89434966115114 118.52300852407294 l 3.0720082148299688 5.751043403361724 a27.520102353439952,27.520102353439952 0 0,0 -0.41975900700994356,0.2195980734317524 l -2.9725583052935294 -5.803070895738193" fill="#ff4906" stroke="none" /><path d="M 109.2508944713604 118.85261126421891 l 3.378995133828983 6.8861321377063875 a28.670490462310262,28.670490462310262 0 0,0 -0.44492141161366977,0.21358931540421866 l -3.2599610542150805 -6.943275729610167" fill="#ff5908" stroke="none" /><path d="M 108.2653958097858 119.30500536409082 l 5.234214308790303 12.225250627243264 a34.29863723579439,34.29863723579439 0 0,0 -0.5447416389752636,0.22770204927151527 l -5.023001210317578 -12.313537719534754" fill="#ffa50f" stroke="none" /><path d="M 107.59598834532513 119.57807347666477 l 2.8541958996216383 7.3564695598800265 a28.890759064808556,28.890759064808556 0 0,0 -0.46518218974532416,0.1758921001039757 l -2.727143489116039 -7.404509910090633" fill="#ff5c08" stroke="none" /><path d="M 106.91757812671514 119.82793768551818 l 2.6920381947775804 7.71622157282833 a29.172340240293636,29.172340240293636 0 0,0 -0.4755511916812286,0.16133278384282831 l -2.558817270159125 -7.761417343569281" fill="#ff6008" stroke="none" /><path d="M 106.2309692047433 120.05430185196036 l 1.6431921517239378 5.288594812241836 a26.537988401537007,26.537988401537007 0 0,0 -0.43740294827554554,0.13178592024432487 l -1.5519142290081465 -5.316096101591887" fill="#ff3b05" stroke="none" /><path d="M 105.88484417918355 120.15858648285463 l 3.1974841820368693 10.953010725271659 a32.41018619665306,32.41018619665306 0 0,0 -0.5368806482734252,0.15172783395791603 l -3.008472365658838 -11.006427352568092" fill="#ff8c0c" stroke="none" /><path d="M 104.48393922423573 120.51570834832081 l 1.4894369326404964 6.814734140041402 a27.97560203679649,27.97560203679649 0 0,0 -0.4713336605843944,0.09877255126680251 l -1.3719118106267238 -6.8393626720347465" fill="#ff5007" stroke="none" /><path d="M 103.41894727170886 120.7198165907248 l 1.569998819817213 9.514650273622921 a30.643311989331266,30.643311989331266 0 0,0 -0.521175812516394,0.08139694339312503 l -1.405987143692302 -9.540265524363152" fill="#ff750a" stroke="none" /><path d="M 102.70371172650421 120.8252237178851 l 0.5213922256902498 4.016001276439553 a25.049705681327268,25.049705681327268 0 0,0 -0.42807868712678077,0.05183436742703093 l -0.45218611551208876 -4.0243811725919345" fill="#ff2603" stroke="none" /><path d="M 101.98527174616119 120.90594882070398 l 0.7724722214982102 8.13453612045002 a29.171131575730037,29.171131575730037 0 0,0 -0.5002927997575385,0.04316736788539536 l -0.63233510399913 -8.146627740614079" fill="#ff6008" stroke="none" /><path d="M 101.26447882468166 120.96189622390904 l 0.5217561839873082 8.649412524308717 a29.66513511326843,29.66513511326843 0 0,0 -0.5099746537150546,0.02635986445899899 l -0.372793461858774 -8.657112195529919" fill="#ff6709" stroke="none" /><line stroke="#e1ed5e" stroke-width="0.3" x1="102.19456741930631" x2="102.32365962044197" y1="184.97166512339345" y2="189.96999836594603" /><path d="M 102.22038585953345 185.97133177190398 a86.0,86.0 0 0,1 -42.740103519485714,-10.115201625700543" fill="none" id="id31" stroke="none" /><text fill="#e1ed5e" style="font-size:6.75px; font-family:Arial;" text-anchor="middle"><textPath startOffset="22.20632615414155" xlink:href="#id31">July</textPath></text><path d="M 99.45781275523022 120.99299961872073 l -0.21361316831812346 8.270908628549941 a29.27366666765714,29.27366666765714 0 0,0 -0.503618095184995,-0.017345625483476058 l 0.3559516151777615 -8.266006204640371" fill="#ff6209" stroke="none" /><path d="M 98.37488393609728 120.93702456842531 l -0.11028592848885785 1.4208580209204293 a22.425131748869756,22.425131748869756 0 0,0 -0.3845970773690477,-0.03318465413550534 l 0.13472732359944722 -1.4187491145062607" fill="#ff0000" stroke="none" /><path d="M 97.65516085044442 120.86867818915974 l -0.5685961557076571 5.060411156690808 a26.092255164762104,26.092255164762104 0 0,0 -0.44589499282756534,-0.053991673930858554 l 0.6556185715866117 -5.0498739540346005" fill="#ff3505" stroke="none" /><path d="M 97.2962882734958 120.8252237178851 l -0.7271228444175976 5.600632551518408 a26.6476360194334,26.6476360194334 0 0,0 -0.45436936052471727,-0.0629714531456807 l 0.8234207961291459 -5.587286532880122" fill="#ff3d05" stroke="none" /><path d="M 96.93821686468263 120.77559828337769 l -1.1691733734934797 7.933375832904732 a29.019065935843336,29.019065935843336 0 0,0 -0.4935509344696659,-0.07708250557653741 l 1.3055601715716627 -7.9120750199810885" fill="#ff5e08" stroke="none" /><path d="M 95.16358092515715 120.4354850818985 l -1.8152719854586459 7.670130111633013 a28.882011691857,28.882011691857 0 0,0 -0.48280644449688515,-0.11866207743489984 l 1.9470317146987415 -7.637746775884083" fill="#ff5c08" stroke="none" /><path d="M 94.46302465271185 120.25689768951611 l -1.6103475570225185 5.891419712234047 a27.107540051453473,27.107540051453473 0 0,0 -0.4490413472979292,-0.12690357009917863 l 1.7115200724250617 -5.862827348796347" fill="#ff4306" stroke="none" /><path d="M 93.76903079525671 120.05430185196036 l -2.7799266635808357 8.947161606146945 a30.369081761912298,30.369081761912298 0 0,0 -0.497877458086401,-0.15940463962734358 l 2.933525466758177 -8.897984119859895" fill="#ff710a" stroke="none" /><path d="M 92.7421414339146 119.70592522655815 l -2.6275901828880275 7.134211172422627 a28.602709991965323,28.602709991965323 0 0,0 -0.46054419120194684,-0.17413840591263113 l 2.750004594850257 -7.087924516403362" fill="#ff5808" stroke="none" /><path d="M 92.06813273071674 119.44442032107085 l -2.908084958221216 7.128967787448454 a28.699294762425335,28.699294762425335 0 0,0 -0.45581113788399275,-0.19052909260288747 l 3.030367555602671 -7.077853651825594" fill="#ff5a08" stroke="none" /><path d="M 90.42595943632237 118.69057910512821 l -1.8150571059269585 3.543380476928087 a24.981203021958446,24.981203021958446 0 0,0 -0.38103364732218525,-0.19933879551664638 l 1.8757816557756395 -3.5116122624667243" fill="#ff2503" stroke="none" /><line stroke="#e1ed5e" stroke-width="0.3" x1="58.666819895761336" x2="56.23545636021788" y1="174.27360380694188" y2="178.64263932499728" /><path d="M 58.180547188652646 175.14741091055294 a86.0,86.0 0 0,1 -31.652253787137756,-30.449443065178592" fill="none" id="id32" stroke="none" /><text fill="#e1ed5e" style="font-size:6.75px; font-family:Arial;" text-anchor="middle"><textPath startOffset="22.20632615414155" xlink:href="#id32">August</textPath></text><path d="M 89.7882731507175 118.34994917583269 l -3.6775192541575326 6.608313403102668 a28.56266843768294,28.56266843768294 0 0,0 -0.427557621114588,-0.2427783758373313 l 3.7907256421933275 -6.544031861470703" fill="#ff5808" stroke="none" /><path d="M 89.1626897886671 117.98757091392108 l -6.78951991757252 11.269122006040153 a34.15639355971584,34.15639355971584 0 0,0 -0.5009942700805052,-0.30775159966891164 l 6.9824933875853334 -11.150581939542862" fill="#ffa40f" stroke="none" /><path d="M 88.24862548938628 117.40417183066458 l -4.909641175977448 7.271339925082102 a29.773651507949594,29.773651507949594 0 0,0 -0.42227986291809944,-0.2904479402684343 l 5.034077923518438 -7.185751195448566" fill="#ff6909" stroke="none" /><path d="M 87.65650970185807 116.9893568818739 l -1.815362008754976 2.498631447960582 a24.088478320398007,24.088478320398007 0 0,0 -0.33335589712639235,-0.24660872328016123 l 1.8581028762999325 -2.467012775940654" fill="#ff1802" stroke="none" /><path d="M 87.07902340077011 116.55440617244103 l -4.0437542291805375 5.180873864857142 a27.572168764538482,27.572168764538482 0 0,0 -0.3716236084921483,-0.2952402701177029 l 4.1323353303900445 -5.110499680734309" fill="#ff4a06" stroke="none" /><path d="M 86.24171649860922 115.8653595955263 l -4.614252353079481 5.320923415970393 a28.0429788283454,28.0429788283454 0 0,0 -0.36196494565246096,-0.3193919795957083 l 4.705159651638529 -5.2407082946023955" fill="#ff5107" stroke="none" /><path d="M 85.70375840098266 115.38237550388516 l -4.287055639858668 4.612757779841065 a27.29733121208725,27.29733121208725 0 0,0 -0.34143003458001936,-0.32284340868365197 l 4.365821508829504 -4.538279734411482" fill="#ff4606" stroke="none" /><path d="M 85.18274418774928 114.88116024355367 l -10.246573000825903 10.290764815337223 a35.52212445704267,35.52212445704267 0 0,0 -0.4295798344671482,-0.43516210431314994 l 10.422193460348584 -10.112862217043409" fill="#ffb510" stroke="none" /><path d="M 84.43433777217949 114.09645910891817 l -5.722279966013915 5.182168568872467 a28.720062116696596,28.720062116696596 0 0,0 -0.3286958460618114,-0.36929326753118824 l 5.810634661724065 -5.082901131600415" fill="#ff5a08" stroke="none" /><path d="M 83.95833913139862 113.55231037782056 l -3.0030625216947593 2.5370462392499276 a24.931283267496745,24.931283267496745 0 0,0 -0.27413014448820683,-0.33020741840772694 l 3.0462886660765025 -2.4849775637284393" fill="#ff2403" stroke="none" /><path d="M 83.50135304334701 112.99209946851258 l -1.2824918650312127 1.009916869051178 a22.63239623445577,22.63239623445577 0 0,0 -0.23838722652767022,-0.3081476252085362 l 1.2996859087769514 -0.9876912497293889" fill="#ff0300" stroke="none" /><path d="M 83.28015986056508 112.70617746262583 l -13.67075432147057 10.38903655824276 a38.17036995310558,38.17036995310558 0 0,0 -0.3930434499256922,-0.5265459314180755 l 13.847559038091347 -10.152177747315376" fill="#ffd714" stroke="none" /><path d="M 82.05923443525364 110.91462005526583 l -2.9563758853196913 1.798569822027032 a24.46049299667058,24.46049299667058 0 0,0 -0.21574052823013604,-0.36159353468570754 l 2.986897289248059 -1.7474141934552134" fill="#ff1e03" stroke="none" /><line stroke="#e1ed5e" stroke-width="0.3" x1="26.63291911575756" x2="22.317208475507996" y1="142.92168965132927" y2="145.44649492493687" /><path d="M 25.769776987707644 143.4266507060508 a86.0,86.0 0 0,1 -11.730757126820373,-40.83630448921669" fill="none" id="id33" stroke="none" /><text fill="#e1ed5e" style="font-size:6.75px; font-family:Arial;" text-anchor="middle"><textPath startOffset="21.46611528233685" xlink:href="#id33">September</textPath></text><path d="M 81.51974371655577 109.97397251340807 l -6.666250303933926 3.5978395688430003 a28.575179382551383,28.575179382551383 0 0,0 -0.229890708747905,-0.43486658437542486 l 6.727193520906717 -3.4825579693814492" fill="#ff5808" stroke="none" /><path d="M 80.45479744820244 107.68017299344265 l -6.048915880719648 2.376886106122078 a27.499151551818017,27.499151551818017 0 0,0 -0.16932369533214767,-0.4420507379036742 l 6.088933855645305 -2.272411801385246" fill="#ff4906" stroke="none" /><path d="M 79.86692584326677 105.97154293290107 l -10.001763042913455 2.966559252228577 a31.432436808510865,31.432436808510865 0 0,0 -0.14938993495722058,-0.5200459617043465 l 10.051345614756778 -2.7939558150196344" fill="#ff7f0b" stroke="none" /><path d="M 79.10278846688536 102.07522291339032 l -10.107999037646373 1.0037870927521093 a31.157717906726674,31.157717906726674 0 0,0 -0.048406339323426514,-0.5341599207988197 l 10.123779973246874 -0.8296457834047234" fill="#ff7c0b" stroke="none" /><path d="M 79.04373962182676 101.35467743843564 l -4.165132347856075 0.26924702775767606 a25.173825755480625,25.173825755480625 0 0,0 -0.02423118479236687,-0.4326640820569704 l 4.169149883535974 -0.1975112293652681" fill="#ff2803" stroke="none" /><line stroke="#e1ed5e" stroke-width="0.3" x1="15.007084014347285" x2="10.007500721073583" y1="101.09737516637583" y2="101.16192664675087" /><path d="M 14.007167355692545 101.11028546245083 a86.0,86.0 0 0,1 10.666146001902534,-42.60595125391555" fill="none" id="id34" stroke="none" /><text fill="#e1ed5e" style="font-size:6.75px; font-family:Arial;" text-anchor="middle"><textPath startOffset="22.20632615414155" xlink:href="#id34">October</textPath></text><path d="M 79.00486145842228 99.54816195383935 l -4.432878403334822 -0.09540032863627039 a25.43390484352745,25.43390484352745 0 0,0 0.013187244148684564,-0.43762043273897594 l 4.430579464730492 0.1716909088002407" fill="#ff2c04" stroke="none" /><path d="M 79.01574976396665 99.18683210126434 l -4.046813884105844 -0.15681947678368263 a25.049851227007053,25.049851227007053 0 0,0 0.02040536041817873,-0.4307249075627731 l 4.043514915454167 0.2264554909694648" fill="#ff2603" stroke="none" /><path d="M 79.03285615573316 98.82574320788736 l -7.042051741137236 -0.3943873876603444 a28.053086851613237,28.053086851613237 0 0,0 0.0311514955181661,-0.48189984768773764 l 7.034219654614657 0.5155462996010939" fill="#ff5107" stroke="none" /><path d="M 79.08570108090925 98.10471618934814 l -5.964822539678567 -0.5405407867889241 a26.98926475220789,26.98926475220789 0 0,0 0.045911148222484675,-0.46231899712693375 l 5.954634265773853 0.6431353146202882" fill="#ff4206" stroke="none" /><path d="M 79.21141760316559 97.0276538004421 l -6.027560127933277 -0.8618190070332734 a27.088859753413182,27.088859753413182 0 0,0 0.06997195214628295,-0.4610277390550479 l 6.011832282347691 0.9654458584804134" fill="#ff4306" stroke="none" /><path d="M 79.3925641242962 95.95851677861259 l -16.602360995192885 -3.2560170902483643 a37.91862990631013,37.91862990631013 0 0,0 0.1311275048445231,-0.6394242826073742 l 16.54385419443337 3.5413170290191407" fill="#ffd413" stroke="none" /><path d="M 79.46518482838121 95.60439243477599 l -5.732598156688409 -1.22709903231831 a26.862461399547453,26.862461399547453 0 0,0 0.1006774519564517,-0.4513172762562808 l 5.710626317729919 1.32559447812455" fill="#ff4006" stroke="none" /><path d="M 79.62865764111835 94.90015583598534 l -5.821870328836537 -1.4574705435266684 a27.001532680160558,27.001532680160558 0 0,0 0.11675420059439762,-0.4499015619260641 l 5.795919796371832 1.5574685310015963" fill="#ff4206" stroke="none" /><path d="M 79.71946130924805 94.55025226153421 l -3.8343944989571286 -1.0303711882468976 a24.970421383077873,24.970421383077873 0 0,0 0.11511748259116997,-0.41413883412342656 l 3.816090245799598 1.0962213257892666" fill="#ff2503" stroke="none" /><path d="M 80.52162464483688 92.15188598940014 l -2.0724335406295222 -0.835012900700691 a23.234329278477727,23.234329278477727 0 0,0 0.15265874096071128,-0.3696752500190751 l 2.057753112782611 0.8705627211730773" fill="#ff0c01" stroke="none" /><path d="M 80.803312248108 91.48605970444005 l -3.5473842273727647 -1.5733035775552506 a24.880620955950377,24.880620955950377 0 0,0 0.17700510111105072,-0.39000727738293417 l 3.5197768092983623 1.6341328637802557" fill="#ff2403" stroke="none" /><path d="M 80.95270993114464 91.15688171328213 l -1.4484103741637993 -0.6724559882344192 a22.59690001819076,22.59690001819076 0 0,0 0.16683162820941205,-0.3513899563787042 l 1.4366205521126356 0.6972883602536556" fill="#ff0300" stroke="none" /><path d="M 81.26839172434947 90.50648371742162 l -7.1878693710569355 -3.6429415940690553 a29.058318034998173,29.058318034998173 0 0,0 0.22996277836428705,-0.44421489211756476 l 7.124097159532535 3.7661292084469555" fill="#ff5f08" stroke="none" /><path d="M 81.6062741919709 89.86733742301443 l -7.194768677625521 -3.9634255773249207 a29.214221730117508,29.214221730117508 0 0,0 0.24643219738471153,-0.4383753815038845 l 7.1254788389483785 4.08668446876359" fill="#ff6108" stroke="none" /><line stroke="#e1ed5e" stroke-width="0.3" x1="26.266209847984243" x2="21.928928074336255" y1="57.711370442889674" y2="55.22380399835377" /><path d="M 25.398753493254645 57.213857153982495 a86.0,86.0 0 0,1 29.58750427330803,-30.492523968695096" fill="none" id="id35" stroke="none" /><text fill="#e1ed5e" style="font-size:6.75px; font-family:Arial;" text-anchor="middle"><textPath startOffset="21.46611528233685" xlink:href="#id35">November</textPath></text><path d="M 81.78341655067845 89.55222093294921 l -1.8028006067037836 -1.033962405364643 a23.078260879494913,23.078260879494913 0 0,0 0.20060539302865552,-0.342899643879533 l 1.784735539204803 1.064841461598068" fill="#ff0a01" stroke="none" /><path d="M 81.96595687620814 89.24020034530311 l -10.257334629134316 -6.119918026316886 a32.94430032872903,32.94430032872903 0 0,0 0.29474826515630353,-0.4844886490788712 l 10.150470565691796 6.295574448602831" fill="#ff940d" stroke="none" /><path d="M 82.15384107792192 88.93136811851018 l -2.7094391299102045 -1.6804615752456826 a24.18826151759321,24.18826151759321 0 0,0 0.22250021999927427,-0.35194191449544404 l 2.680111313664968 1.7268511374553424" fill="#ff1a02" stroke="none" /><path d="M 82.54541684631803 88.32363383020206 l -6.19235772054625 -4.142421251934684 a28.45016429132196,28.45016429132196 0 0,0 0.2757979713056186,-0.4046994912088156 l 6.120135283571891 4.248398766413915" fill="#ff5608" stroke="none" /><path d="M 82.95767976084542 87.72973835380427 l -6.367541060775999 -4.584551502506685 a28.846253350472736,28.846253350472736 0 0,0 0.29359632523332824,-0.40046505766807655 l 6.287682123029037 4.693479003846263" fill="#ff5c08" stroke="none" /><path d="M 84.5562425177563 85.77008943001954 l -4.203622534199376 -3.8732266289719917 a26.715971214886103,26.715971214886103 0 0,0 0.3145267195055478,-0.3355151746271971 l 4.136328492723371 3.945011220477239" fill="#ff3e05" stroke="none" /><path d="M 85.57189188830299 84.74124197986013 l -6.276368270751694 -6.637709112467932 a30.13520557687885,30.13520557687885 0 0,0 0.37997927890375255,-0.35314932810321864 l 6.161181108053085 6.744763026645798" fill="#ff6e0a" stroke="none" /><path d="M 85.83668400450813 84.49514656593479 l -4.942788797757951 -5.410965616326698 a28.32869087902548,28.32869087902548 0 0,0 0.36286221820228937,-0.32578128226444497 l 4.848915591959691 5.495245907360422" fill="#ff5507" stroke="none" /><path d="M 86.37877921826538 84.01681056812374 l -1.054597867017644 -1.2374689283062272 a22.625886222846336,22.625886222846336 0 0,0 0.29859970648964596,-0.25006866691723434 l 1.0331406235688876 1.255438752617274" fill="#ff0300" stroke="none" /><path d="M 87.51073957382395 83.11751280151077 l -3.8619038135767845 -5.220368498190512 a27.493577467176223,27.493577467176223 0 0,0 0.3828869285936104,-0.2781836370406106 l 3.7714715686293925 5.28607137004779" fill="#ff4906" stroke="none" /><line stroke="#e1ed5e" stroke-width="0.3" x1="56.762969772571076" x2="54.21961505331055" y1="26.818313649435495" y2="22.513508569990535" /><path d="M 56.25429882871897 25.957352633546506 a86.0,86.0 0 0,1 42.265352541879196,-11.944610805530505" fill="none" id="id36" stroke="none" /><text fill="#e1ed5e" style="font-size:6.75px; font-family:Arial;" text-anchor="middle"><textPath startOffset="22.20632615414155" xlink:href="#id36">December</textPath></text><path d="M 91.56875222667455 80.76684994638697 l -6.68159400555432 -15.241883948982967 a37.64207693676856,37.64207693676856 0 0,0 0.5956701693616682,-0.2550348797630739 l 6.418240078402344 15.354638356708827" fill="#ffd113" stroke="none" /><path d="M 92.23578459929587 80.48803036053334 l -3.6287419430850365 -9.119260474988018 a30.814717504858876,30.814717504858876 0 0,0 0.4945275507103147,-0.1918690067291352 l 3.4712312273750454 9.180372185607704" fill="#ff770a" stroke="none" /><path d="M 92.91201910852362 80.23233633223022 l -2.9990149685670815 -8.363950205414966 a29.88536739928915,29.88536739928915 0 0,0 0.4857339861218,-0.16946305012106702 l 2.854598978381996 8.414334108708243" fill="#ff6a09" stroke="none" /><path d="M 93.59665428221793 80.00007090966166 l -1.100444631461162 -3.4370804837146807 a24.608947303362026,24.608947303362026 0 0,0 0.4045413605386399,-0.1256929699257931 l 1.0411178982117935 3.455513588522999" fill="#ff2003" stroke="none" /><path d="M 93.94186890950719 79.89281104454417 l -4.9239084698531315 -16.34265692237645 a38.06831303620807,38.06831303620807 0 0,0 0.6290512865872002,-0.1836373202768552 l 4.64186696554251 16.424992571572" fill="#ffd614" stroke="none" /><path d="M 95.33964822691252 79.52364482259891 l -2.0318700713578894 -8.92750060107414 a30.155804878275806,30.155804878275806 0 0,0 0.5071305667509451,-0.11083909955512677 l 1.8778967804534235 8.961153198725135" fill="#ff6e0a" stroke="none" /><path d="M 96.04723909329186 79.375362276772 l -7.07336274866699 -36.90725232802569 a58.57895335129476,58.57895335129476 0 0,0 0.991950552971735,-0.18127262316721754 l 6.437017074592362 37.02354043254364" fill="#40ff2d" stroke="none" /><path d="M 97.83486435360386 79.11191278185805 l -0.7092420371149587 -6.842393248981384 a27.879052961049,27.879052961049 0 0,0 0.4777605067239085,-0.04536911687506157 l 0.5913564033008138 6.853587910371626" fill="#ff4e07" stroke="none" /><path d="M 98.55514903715128 79.0497635885617 l -0.840570710806569 -12.188215646275104 a33.21716660113838,33.21716660113838 0 0,0 0.5707625876051275,-0.03442995796935533 l 0.6306460743618185 12.200878873624767" fill="#ff970d" stroke="none" /><path d="M 99.63851952072746 79.00311137660856 l -0.035391060515129566 -2.055718630769034 a23.056023252800244,23.056023252800244 0 0,0 0.3968715397876648,-0.003415998639769145 l 5.035804591028697e-16 2.0560232528002444" fill="#ff0901" stroke="none" /></svg>