<?xml version="1.0" encoding="utf-8" ?>
<svg baseProfile="full" height="200mm" version="1.1" viewBox="0,0,200,200" width="200mm" xmlns="http://www.w3.org/2000/svg" xmlns:ev="http://www.w3.org/2001/xml-events" xmlns:xlink="http://www.w3.org/1999/xlink"><defs /><rect fill="#1a1a1a" height="200" width="200" x="0" y="0" /><text alignment-baseline="middle" fill="#e1ed5e" style="dominant-baseline: central; font-size:9.0px; font-family:Arial;" text-anchor="middle" x="100.0" y="100.0">2025</text><line stroke="#e1ed5e" stroke-width="0.3" x1="100.0" x2="100.0" y1="15.0" y2="10.0" /><path d="M 100.0 14.0 a86.0,86.0 0 0,1 42.46469731375804,11.215312516191453" fill="none" id="id97" stroke="none" /><text fill="#e1ed5e" style="font-size:6.75px; font-family:Arial;" text-anchor="middle"><textPath startOffset="22.20632615414155" xlink:href="#id97">January</textPath></text><path d="M 100.36148047927253 79.00311137660856 l 0.22441675606830516 -13.035430410715163 a34.03736203658554,34.03736203658554 0 0,0 0.585723621345304,0.015127513086343324 l -0.44876701260847696 13.02963610548646" fill="#ff9c0e" stroke="none" /><path d="M 101.08401301168833 79.027996857942 l 0.39468196626757857 -7.635767603735307 a28.645961074498775,28.645961074498775 0 0,0 0.49221666205439846,0.029691853240519518 l -0.5260606771615889 7.627842481114483" fill="#ff5207" stroke="none" /><path d="M 101.44485096284872 79.0497635885617 l 4.334552888546152 -62.8507092343149 a84.0,84.0 0 0,0 1.4416392425506352,0.11189895124614191 l -5.415782320459128 62.76678502088029" fill="#4dd2ff" stroke="none" /><path d="M 102.16513564639614 79.11191278185805 l 0.8156736171405252 -7.869189020433029 a28.91135002948314,28.91135002948314 0 0,0 0.4945675989083538,0.05557043227703827 l -0.9510079195586043 7.853982634685391" fill="#ff5507" stroke="none" /><path d="M 102.52436894288641 79.15227682838746 l 0.8507832212138248 -7.0262681391722195 a28.077589706464032,28.077589706464032 0 0,0 0.47930487470319355,0.06222752887848623 l -0.9716028244248643 7.010582287129597" fill="#ff4a06" stroke="none" /><path d="M 102.88285421437855 79.19881850522331 l 1.3312035671406606 -9.605274823984159 a30.6970824159348,30.6970824159348 0 0,0 0.5227728039179212,0.07704312207071871 l -1.4963453514872376 9.58093721775247" fill="#ff6e0a" stroke="none" /><path d="M 103.2404852339499 79.25152402106235 l 0.3086217130729778 -1.9760714022658803 a23.000026386984217,23.000026386984217 0 0,0 0.39063988906059427,0.06445892882672684 l -0.3425908082724472 1.9704662104995287" fill="#ff0000" stroke="none" /><path d="M 103.95276090670814 79.375362276772 l 1.7292093461622304 -9.022634344437831 a30.18684360791474,30.18684360791474 0 0,0 0.509487207943218,0.10219834090660711 l -1.8842629635725736 8.991532047454015" fill="#ff6709" stroke="none" /><path d="M 106.0581310904928 79.89281104454417 l 8.398469938124498 -27.874870890066564 a50.112587044772596,50.112587044772596 0 0,0 0.8237903837696601,0.2559556822433455 l -8.877045694604876 27.7261750729407" fill="#9dff22" stroke="none" /><path d="M 106.40334571778207 80.00007090966166 l 1.3155198681811024 -4.108837042405764 a25.31429419078312,25.31429419078312 0 0,0 0.41384914469070605,0.1364395563076568 l -1.386051835114226 4.085583761838871" fill="#ff2203" stroke="none" /><path d="M 107.76421540070413 80.48803036053334 l 5.6284035028746695 -14.14453780568719 a36.223234732726354,36.223234732726354 0 0,0 0.5773571886061756,0.23551849380812606 l -5.871044561069233 14.045558425695484" fill="#ffb911" stroke="none" /><path d="M 108.09893153111575 80.62456947434976 l 2.545661150336377 -6.090097264150389 a27.60073294257115,27.60073294257115 0 0,0 0.43677008827182373,0.18700215769723677 l -2.650114996398516 6.045375578490361" fill="#ff4306" stroke="none" /><path d="M 108.43124777332544 80.76684994638697 l 3.942033750229105 -8.992468098782897 a30.818559598819647,30.818559598819647 0 0,0 0.4840243827994272,0.21716763158999594 l -4.0962402514953125 8.92328013667637" fill="#ff700a" stroke="none" /><path d="M 108.76106565485865 80.91482961587045 l 0.9479476290609017 -2.0650161439922274 a23.27220077950667,23.27220077950667 0 0,0 0.3626271983840506,0.17025833194118306 l -0.9833530387445503 2.0483928294110414" fill="#ff0400" stroke="none" /><path d="M 109.41281617654863 81.2277094730956 l 6.599328344378794 -13.161258717849323 a35.723106521216444,35.723106521216444 0 0,0 0.5473111844738631,0.2803540463692488 l -6.824900016441412 13.045712146167574" fill="#ffb210" stroke="none" /><path d="M 109.73455568895987 81.39251694778311 l 10.54704535018757 -20.160547011627184 a43.75275415036481,43.75275415036481 0 0,0 0.6643229708987053,0.354858324092657 l -10.892513367614587 19.976009961032773" fill="#e7ff1a" stroke="none" /><path d="M 110.05341064243156 81.56283822128135 l 6.178397615467091 -11.330693674128593 a33.90570479407255,33.90570479407255 0 0,0 0.5099997803563016,0.28381432560323544 l -6.372521484895428 11.222663950965178" fill="#ff9a0e" stroke="none" /><path d="M 110.36928655335952 81.73862282372117 l 4.0478160294917656 -7.128619203872592 a29.197684207288763,29.197684207288763 0 0,0 0.4349110011659717,0.25192852343804434 l -4.169923763123066 7.057886523044498" fill="#ff5a08" stroke="none" /><line stroke="#e1ed5e" stroke-width="0.3" x1="143.23703022742887" x2="145.7803849466894" y1="26.81831364943548" y2="22.513508569990506" /><path d="M 143.74570117128098 25.957352633546492 a86.0,86.0 0 0,1 28.547481713284135,27.462654790039103" fill="none" id="id98" stroke="none" /><text fill="#e1ed5e" style="font-size:6.75px; font-family:Arial;" text-anchor="middle"><textPath startOffset="19.985693538727396" xlink:href="#id98">February</textPath></text><path d="M 110.68208982089419 81.91981866633111 l 4.559081135812906 -7.71656249221712 a29.962731586922438,29.962731586922438 0 0,0 0.4417903951928662,0.2661737698772308 l -4.69123359722341 7.6369421128812744" fill="#ff6409" stroke="none" /><path d="M 110.99172775467656 82.1063720568725 l 16.969354019148977 -27.62471142215822 a53.420420370265504,53.420420370265504 0 0,0 0.7793806511272362,0.488048092235357 l -17.442353822648474 27.32851898859992" fill="#78ff26" stroke="none" /><path d="M 111.2981086023043 82.29822771554956 l 26.253609244041662 -41.133912661114266 a69.79806112081715,69.79806112081715 0 0,0 1.007195907425325,0.6551082351662896 l -26.957772177251268 40.67590550178845" fill="#3bff9c" stroke="none" /><path d="M 111.60114157652 82.49532879139004 l 1.5080928301756906 -2.275523401741497 a23.72989940039931,23.72989940039931 0 0,0 0.33854126012212626,0.2285845700500815 l -1.5470387847043587 2.2492269193927457" fill="#ff0b01" stroke="none" /><path d="M 111.90073688211348 82.69761687909136 l 3.695040068153461 -5.3721882551986635 a27.52025519090733,27.52025519090733 0 0,0 0.38799479013043087,0.2718151455999363 l -3.786965997867543 5.307788266834792" fill="#ff4206" stroke="none" /><path d="M 112.48926042617603 83.11751280151076 l 7.66101954172505 -10.355862551274353 a33.881580244658636,33.881580244658636 0 0,0 0.4658779339232938,0.35088960116855555 l -7.838143629406727 10.222456360599951" fill="#ff9a0e" stroke="none" /><path d="M 113.06298171725822 83.55741782278167 l 2.5683527182463033 -3.23282628299587 a25.128874115464416,25.128874115464416 0 0,0 0.336363862464656,0.27198285090772856 l -2.62361997927545 3.188137334824012" fill="#ff1f03" stroke="none" /><path d="M 114.16331599549186 84.49514656593476 l 10.311344346061103 -11.288026253508905 a36.28866766343466,36.28866766343466 0 0,0 0.4575691954698274,0.4252606994967981 l -10.504121425325778 11.108860967937467" fill="#ffba11" stroke="none" /><path d="M 114.94478906791727 85.2469230424477 l 3.1778269247599393 -3.137061685227171 a25.46539359750622,25.46539359750622 0 0,0 0.3052642670170648,0.31460166064771405 l -3.2313554554801134 3.081895829029343" fill="#ff2403" stroke="none" /><path d="M 115.4437574822437 85.77008943001954 l 3.5215358438131097 -3.2447505203352254 a25.788488345864092,25.788488345864092 0 0,0 0.2979876521915797,0.3290454082288572 l -3.5768671366207254 3.183652324836819" fill="#ff2904" stroke="none" /><path d="M 116.60985879189232 87.15038557335679 l 12.155827665748538 -9.403914897689257 a36.368726741092104,36.368726741092104 0 0,0 0.3787959791281672,0.49845110656708913 l -12.31589958510082 9.193279015241133" fill="#ffbb11" stroke="none" /><line stroke="#e1ed5e" stroke-width="0.3" x1="172.23445277983987" x2="176.4835382374775" y1="55.19839476539836" y2="52.563006222186495" /><path d="M 173.08426987136738 54.67131705675599 a86.0,86.0 0 0,1 12.851231095245387,41.99856678651699" fill="none" id="id99" stroke="none" /><text fill="#e1ed5e" style="font-size:6.75px; font-family:Arial;" text-anchor="middle"><textPath startOffset="22.20632615414155" xlink:href="#id99">March</textPath></text><line stroke="#e1ed5e" stroke-width="0.3" x1="184.98032266829074" x2="189.97916517819016" y1="98.17113171792111" y2="98.06355123074" /><path d="M 185.9800911702706 98.14961562048488 a86.0,86.0 0 0,1 -9.607161424134198,41.387399972396054" fill="none" id="id100" stroke="none" /><text fill="#e1ed5e" style="font-size:6.75px; font-family:Arial;" text-anchor="middle"><textPath startOffset="21.466115282336823" xlink:href="#id100">April</textPath></text><line stroke="#e1ed5e" stroke-width="0.3" x1="174.80103733775053" x2="179.2010983576182" y1="140.37084112569926" y2="142.7455964860345" /><path d="M 175.68104954172406 140.8457921977663 a86.0,86.0 0 0,1 -30.038265399797805,32.042727171017184" fill="none" id="id101" stroke="none" /><text fill="#e1ed5e" style="font-size:6.75px; font-family:Arial;" text-anchor="middle"><textPath startOffset="22.206326154141568" xlink:href="#id101">May</textPath></text><line stroke="#e1ed5e" stroke-width="0.3" x1="143.8653032363475" x2="146.44561519142675" y1="172.8068346515853" y2="177.08958963109032" /><path d="M 144.38136562736335 173.6633856474863 a86.0,86.0 0 0,1 -40.68145358897372,12.25698825130547" fill="none" id="id102" stroke="none" /><text fill="#e1ed5e" style="font-size:6.75px; font-family:Arial;" text-anchor="middle"><textPath startOffset="21.466115282336833" xlink:href="#id102">June</textPath></text><line stroke="#e1ed5e" stroke-width="0.3" x1="102.19456741930631" x2="102.32365962044197" y1="184.97166512339345" y2="189.96999836594603" /><path d="M 102.22038585953345 185.97133177190398 a86.0,86.0 0 0,1 -42.740103519485714,-10.115201625700543" fill="none" id="id103" stroke="none" /><text fill="#e1ed5e" style="font-size:6.75px; font-family:Arial;" text-anchor="middle"><textPath startOffset="22.20632615414155" xlink:href="#id103">July</textPath></text><line stroke="#e1ed5e" stroke-width="0.3" x1="58.666819895761336" x2="56.23545636021788" y1="174.27360380694188" y2="178.64263932499728" /><path d="M 58.180547188652646 175.14741091055294 a86.0,86.0 0 0,1 -31.652253787137756,-30.449443065178592" fill="none" id="id104" stroke="none" /><text fill="#e1ed5e" style="font-size:6.75px; font-family:Arial;" text-anchor="middle"><textPath startOffset="22.20632615414155" xlink:href="#id104">August</textPath></text><line stroke="#e1ed5e" stroke-width="0.3" x1="26.63291911575756" x2="22.317208475507996" y1="142.92168965132927" y2="145.44649492493687" /><path d="M 25.769776987707644 143.4266507060508 a86.0,86.0 0 0,1 -11.730757126820373,-40.83630448921669" fill="none" id="id105" stroke="none" /><text fill="#e1ed5e" style="font-size:6.75px; font-family:Arial;" text-anchor="middle"><textPath startOffset="21.46611528233685" xlink:href="#id105">September</textPath></text><line stroke="#e1ed5e" stroke-width="0.3" x1="15.007084014347285" x2="10.007500721073583" y1="101.09737516637583" y2="101.16192664675087" /><path d="M 14.007167355692545 101.11028546245083 a86.0,86.0 0 0,1 10.666146001902534,-42.60595125391555" fill="none" id="id106" stroke="none" /><text fill="#e1ed5e" style="font-size:6.75px; font-family:Arial;" text-anchor="middle"><textPath startOffset="22.20632615414155" xlink:href="#id106">October</textPath></text><line stroke="#e1ed5e" stroke-width="0.3" x1="26.266209847984243" x2="21.928928074336255" y1="57.711370442889674" y2="55.22380399835377" /><path d="M 25.398753493254645 57.213857153982495 a86.0,86.0 0 0,1 29.58750427330803,-30.492523968695096" fill="none" id="id107" stroke="none" /><text fill="#e1ed5e" style="font-size:6.75px; font-family:Arial;" text-anchor="middle"><textPath startOffset="21.46611528233685" xlink:href="#id107">November</textPath></text><line stroke="#e1ed5e" stroke-width="0.3" x1="56.762969772571076" x2="54.21961505331055" y1="26.818313649435495" y2="22.513508569990535" /><path d="M 56.25429882871897 25.957352633546506 a86.0,86.0 0 0,1 42.265352541879196,-11.944610805530505" fill="none" id="id108" stroke="none" /><text fill="#e1ed5e" style="font-size:6.75px; font-family:Arial;" text-anchor="middle"><textPath startOffset="22.20632615414155" xlink:href="#id108">December</textPath></text></svg>