<?xml version="1.0" encoding="utf-8" ?>
<svg baseProfile="full" height="200mm" version="1.1" viewBox="0,0,200,200" width="200mm" xmlns="http://www.w3.org/2000/svg" xmlns:ev="http://www.w3.org/2001/xml-events" xmlns:xlink="http://www.w3.org/1999/xlink"><defs /><rect fill="#1a1a1a" height="200" width="200" x="0" y="0" /><text alignment-baseline="middle" fill="#e1ed5e" style="dominant-baseline: central; font-size:9.0px; font-family:Arial;" text-anchor="middle" x="100.0" y="100.0">2024</text><line stroke="#e1ed5e" stroke-width="0.3" x1="100.0" x2="100.0" y1="15.0" y2="10.0" /><path d="M 100.0 14.0 a86.0,86.0 0 0,1 42.35913384403234,11.155469271406648" fill="none" id="id85" stroke="none" /><text fill="#e1ed5e" style="font-size:6.75px; font-family:Arial;" text-anchor="middle"><textPath startOffset="22.145653131862478" xlink:href="#id85">January</textPath></text><path d="M 100.36049292484886 79.00309439819443 l 0.24834721486376315 -14.46498021882696 a35.46711198097899,35.46711198097899 0 0,0 0.608660711728901,0.015676940865954704 l -0.49662124066340557 14.458585560610961" fill="#ffaf10" stroke="none" /><path d="M 102.15924093988457 79.11130261209362 l 6.477722819653705 -62.666092163719114 a84.0,84.0 0 0,0 1.4330563935968135,0.16057695797211657 l -7.552515114851315 62.54565944524002" fill="#4dd2ff" stroke="none" /><path d="M 102.87502721639298 79.19773525538626 l 3.9188176483385826 -28.354612346550052 a49.624136198042,49.624136198042 0 0,0 0.8428420732260303,0.12386875990340189 l -4.404984827172295 28.283162513347765" fill="#a2ff22" stroke="none" /><path d="M 103.23170211078529 79.25015418208739 l 1.125014088880534 -7.223397481266614 a28.310480686832335,28.310480686832335 0 0,0 0.479555946651801,0.07891074852911407 l -1.2488475385854054 7.203020734241832" fill="#ff4d07" stroke="none" /><path d="M 103.58742460773223 79.30868818359171 l 3.406413534219145 -19.64728804620574 a40.940400716552574,40.940400716552574 0 0,0 0.6914351489839405,0.12600251706154317 l -3.7431834167541393 19.585917355212832" fill="#fff517" stroke="none" /><path d="M 103.94208987418118 79.37332000966035 l 0.6875583902010614 -3.5975960320529685 a24.662708526456772,24.662708526456772 0 0,0 0.4151597209727668,0.08304357142065745 l -0.7492145967047851 3.585263063969452" fill="#ff1802" stroke="none" /><path d="M 104.64783097203109 79.52079915486377 l 0.44893781354878404 -1.9781028410816281 a23.02840725948444,23.02840725948444 0 0,0 0.3847584599017192,0.09080194889383437 l -0.48282842719038815 1.9701047485415664" fill="#ff0000" stroke="none" /><path d="M 107.40779381753099 80.34994680014964 l 4.455982125034141 -11.82002198917665 a33.632050368932326,33.632050368932326 0 0,0 0.5384775334880901,0.20829467776811764 l -4.658231921015757 11.741787423270495" fill="#ff960d" stroke="none" /><path d="M 107.74402155503746 80.48000691201159 l 3.4346347907162795 -8.657523342110832 a30.313937221432866,30.313937221432866 0 0,0 0.482057338040504,0.1960485227583744 l -3.582746589947223 8.597287562773165" fill="#ff6909" stroke="none" /><path d="M 110.34350942703115 81.72400993836675 l 4.76803505572947 -8.424661079179034 a30.68034465252654,30.68034465252654 0 0,0 0.456125461388465,0.26334415791687255 l -4.911952984978332 8.34157002398599" fill="#ff6e0a" stroke="none" /><line stroke="#e1ed5e" stroke-width="0.3" x1="143.13028292997686" x2="145.6673583964461" y1="26.7553504044142" y2="22.446841604673864" /><path d="M 143.63769802327073 25.89364864446614 a86.0,86.0 0 0,1 29.32050498858742,28.57503671076993" fill="none" id="id86" stroke="none" /><text fill="#e1ed5e" style="font-size:6.75px; font-family:Arial;" text-anchor="middle"><textPath startOffset="20.669276256404974" xlink:href="#id86">February</textPath></text><path d="M 112.45986205192187 83.09580414077388 l 4.76296033668274 -6.461870449728751 a29.02755011680965,29.02755011680965 0 0,0 0.3985717769249999,0.29909569192465857 l -4.873185102518506 6.379155730540078" fill="#ff5708" stroke="none" /><path d="M 113.03279911837588 83.53348406188908 l 10.092498224558017 -12.751541810824044 a37.26223659174532,37.26223659174532 0 0,0 0.49815924847488374,0.40128182772842386 l -10.309908243388161 12.576411689302212" fill="#ffc612" stroke="none" /><path d="M 113.31354834802062 83.75963576809568 l 12.407774118252583 -15.135466948416974 a40.57128555604361,40.57128555604361 0 0,0 0.5348177684742742,0.44616400391431416 l -12.66576622088875 14.92024076059079" fill="#fff016" stroke="none" /><path d="M 113.59037401385872 83.9905735841838 l 13.505234811349967 -15.909132649340357 a41.86844193906211,41.86844193906211 0 0,0 0.5439319100634955,0.4698354289285801 l -13.776346201176322 15.674953087947058" fill="#feff18" stroke="none" /><path d="M 114.13192950727249 84.46653392183569 l 12.200639336901467 -13.410639868685108 a39.130109263783105,39.130109263783105 0 0,0 0.49298390268707787,0.4562985405048401 l -12.429053010902509 13.199223582047892" fill="#ffde14" stroke="none" /><path d="M 114.91283532996326 85.21462403516908 l 15.759450644476946 -15.624755294495882 a43.19218922568438,43.19218922568438 0 0,0 0.5175107093511375,0.5310115779994226 l -16.025348154978893 15.351921024428718" fill="#eeff19" stroke="none" /><path d="M 115.16444852881244 85.47280134310134 l 20.435917771653884 -19.57714694608224 a49.30002504801535,49.30002504801535 0 0,0 0.5802006470130121,0.6161529808953308 l -20.768974252403154 19.223452505242413" fill="#a6ff21" stroke="none" /><path d="M 116.35404254752997 86.82634096563983 l 17.55971367777956 -14.144862351908017 a43.548185634325954,43.548185634325954 0 0,0 0.46396147671674837,0.586200169405965 l -17.799941585137866 13.841342238587375" fill="#e9ff1a" stroke="none" /><path d="M 116.7966241395341 87.39550010848427 l 38.17166704229698 -28.644730577804808 a68.72417369282581,68.72417369282581 0 0,0 0.6999981885078959,0.9496819812556195 l -38.6577672503887 27.985242287280315" fill="#3aff90" stroke="none" /><path d="M 117.01052211995028 87.68569379921539 l 2.760045002470069 -1.9980597331871364 a24.407358377547606,24.407358377547606 0 0,0 0.2427775547541891,0.34149703462790754 l -2.7939376557542186 1.9503854718497249" fill="#ff1402" stroke="none" /><path d="M 117.42321728460499 88.27688183743584 l 14.947959536819198 -10.05765428261042 a39.01660078879742,39.01660078879742 0 0,0 0.36912595491049693,0.5589037426705913 l -15.11840993065042 9.79957066160077" fill="#ffdc14" stroke="none" /><path d="M 117.81537515405839 88.88188828441811 l 12.457077680044604 -7.774137793829572 a35.683868794160304,35.683868794160304 0 0,0 0.31984986948719724,0.5224507241564541 l -12.588695513987203 7.559149953548563" fill="#ffb110" stroke="none" /><line stroke="#e1ed5e" stroke-width="0.3" x1="172.87174338648825" x2="177.1583165268699" y1="56.24261187166439" y2="53.66864786411523" /><path d="M 173.72905801456457 55.72781907015455 a86.0,86.0 0 0,1 12.242430191666344,42.057860355516425" fill="none" id="id87" stroke="none" /><text fill="#e1ed5e" style="font-size:6.75px; font-family:Arial;" text-anchor="middle"><textPath startOffset="22.145653131862474" xlink:href="#id87">March</textPath></text><path d="M 118.18653347947321 89.5 l 6.266131011201597 -3.6177524260947047 a28.235504852189408,28.235504852189408 0 0,0 0.23874683731075638,0.4218427852479966 l -6.327311213533728 3.50965287074759" fill="#ff4c07" stroke="none" /><path d="M 118.36410011445183 89.81374322990088 l 15.8866585188549 -8.812061679220978 a39.16695764108839,39.16695764108839 0 0,0 0.3210844713967766,0.5907592628723667 l -16.03558833986702 8.538047582874007" fill="#ffde14" stroke="none" /><path d="M 119.0197475246899 91.09779779509293 l 12.624457016720818 -5.908883330029325 a34.93885996683122,34.93885996683122 0 0,0 0.24958913215612408,0.5453972974278841 l -12.724030613731994 5.691297050386757" fill="#ffa80f" stroke="none" /><line stroke="#e1ed5e" stroke-width="0.3" x1="184.99686870605535" x2="189.99668451229388" y1="99.2704041080226" y2="99.22748670261217" /><path d="M 185.99683186730306 99.26182062694052 a86.0,86.0 0 0,1 -10.086455211305974,41.156179273409016" fill="none" id="id88" stroke="none" /><text fill="#e1ed5e" style="font-size:6.75px; font-family:Arial;" text-anchor="middle"><textPath startOffset="21.40746469413373" xlink:href="#id88">April</textPath></text><line stroke="#e1ed5e" stroke-width="0.3" x1="174.33088141563837" x2="178.70328620479359" y1="141.23008692659167" y2="143.65538615756765" /><path d="M 175.20536237346943 141.71514677278685 a86.0,86.0 0 0,1 -30.301960400862466,31.631185727798858" fill="none" id="id89" stroke="none" /><text fill="#e1ed5e" style="font-size:6.75px; font-family:Arial;" text-anchor="middle"><textPath startOffset="22.145653131862474" xlink:href="#id89">May</textPath></text><line stroke="#e1ed5e" stroke-width="0.3" x1="143.1302829299769" x2="145.66735839644613" y1="173.24464959558577" y2="177.55315839532614" /><path d="M 143.63769802327073 174.10635135553383 a86.0,86.0 0 0,1 -40.68552437913181,11.842963189579606" fill="none" id="id90" stroke="none" /><text fill="#e1ed5e" style="font-size:6.75px; font-family:Arial;" text-anchor="middle"><textPath startOffset="21.407464694133747" xlink:href="#id90">June</textPath></text><line stroke="#e1ed5e" stroke-width="0.3" x1="101.45913802915013" x2="101.54496967792366" y1="184.9874750549273" y2="189.98673829345242" /><path d="M 101.47630435890484 185.9873277026323 a86.0,86.0 0 0,1 -42.54439059252881,-10.42667462771756" fill="none" id="id91" stroke="none" /><text fill="#e1ed5e" style="font-size:6.75px; font-family:Arial;" text-anchor="middle"><textPath startOffset="22.145653131862474" xlink:href="#id91">July</textPath></text><line stroke="#e1ed5e" stroke-width="0.3" x1="58.13341422392154" x2="55.67067388415222" y1="173.97424548756322" y2="178.32567169271397" /><path d="M 57.64086615596768 174.84453072859336 a86.0,86.0 0 0,1 -31.369924170532247,-30.572349798747897" fill="none" id="id92" stroke="none" /><text fill="#e1ed5e" style="font-size:6.75px; font-family:Arial;" text-anchor="middle"><textPath startOffset="22.145653131862474" xlink:href="#id92">August</textPath></text><line stroke="#e1ed5e" stroke-width="0.3" x1="26.387840678322732" x2="22.057713659400548" y1="142.50000000000003" y2="145.00000000000006" /><path d="M 25.521815274538298 143.00000000000003 a86.0,86.0 0 0,1 -11.493303480769221,-40.785679425670985" fill="none" id="id93" stroke="none" /><text fill="#e1ed5e" style="font-size:6.75px; font-family:Arial;" text-anchor="middle"><textPath startOffset="21.40746469413373" xlink:href="#id93">September</textPath></text><line stroke="#e1ed5e" stroke-width="0.3" x1="15.003131293944662" x2="10.003315487706104" y1="100.72959589197737" y2="100.7725132973878" /><path d="M 14.003168132696942 100.73817937305945 a86.0,86.0 0 0,1 10.791469493833604,-42.45332614584628" fill="none" id="id94" stroke="none" /><text fill="#e1ed5e" style="font-size:6.75px; font-family:Arial;" text-anchor="middle"><textPath startOffset="22.145653131862435" xlink:href="#id94">October</textPath></text><line stroke="#e1ed5e" stroke-width="0.3" x1="26.387840678322718" x2="22.05771365940052" y1="57.49999999999999" y2="54.99999999999999" /><path d="M 25.521815274538284 56.99999999999999 a86.0,86.0 0 0,1 29.574782752854787,-30.34633250058573" fill="none" id="id95" stroke="none" /><text fill="#e1ed5e" style="font-size:6.75px; font-family:Arial;" text-anchor="middle"><textPath startOffset="21.40746469413373" xlink:href="#id95">November</textPath></text><line stroke="#e1ed5e" stroke-width="0.3" x1="56.869717070023135" x2="54.33264160355391" y1="26.7553504044142" y2="22.446841604673864" /><path d="M 56.362301976729285 25.89364864446614 a86.0,86.0 0 0,1 42.16139366436587,-11.88097634709845" fill="none" id="id96" stroke="none" /><text fill="#e1ed5e" style="font-size:6.75px; font-family:Arial;" text-anchor="middle"><textPath startOffset="22.145653131862474" xlink:href="#id96">December</textPath></text></svg>