<?xml version="1.0" encoding="utf-8" ?>
<svg baseProfile="full" height="200mm" version="1.1" viewBox="0,0,200,200" width="200mm" xmlns="http://www.w3.org/2000/svg" xmlns:ev="http://www.w3.org/2001/xml-events" xmlns:xlink="http://www.w3.org/1999/xlink"><defs /><rect fill="#1a1a1a" height="200" width="200" x="0" y="0" /><text alignment-baseline="middle" fill="#e1ed5e" style="dominant-baseline: central; font-size:9.0px; font-family:Arial;" text-anchor="middle" x="100.0" y="100.0">2020</text><line stroke="#e1ed5e" stroke-width="0.3" x1="100.0" x2="100.0" y1="15.0" y2="10.0" /><path d="M 100.0 14.0 a86.0,86.0 0 0,1 42.35913384403234,11.155469271406648" fill="none" id="id37" stroke="none" /><text fill="#e1ed5e" style="font-size:6.75px; font-family:Arial;" text-anchor="middle"><textPath startOffset="22.145653131862478" xlink:href="#id37">January</textPath></text><path d="M 100.0 79.0 l 0.0 -6.043535420285274 a27.043535420285274,27.043535420285274 0 0,0 0.4642382467577258,0.00398492700836511 l -0.10374532190887101 6.042644891471343" fill="#ff4906" stroke="none" /><path d="M 100.36049292484886 79.00309439819443 l 0.1001060773457184 -5.830677140408164 a26.831536430684444,26.831536430684444 0 0,0 0.46046326155450173,0.011859900242008333 l -0.20018265297096147 5.82809952281611" fill="#ff4606" stroke="none" /><path d="M 101.44090949804482 79.04949213459386 l 2.699424427536222 -39.249038734151036 a60.34175814315964,60.34175814315964 0 0,0 1.0327951803059814,0.07994487880890983 l -3.3727886026174367 39.19691608834707" fill="#30ff32" stroke="none" /><path d="M 102.87502721639298 79.19773525538626 l 0.6401769990086579 -4.632001861011302 a25.676031205036157,25.676031205036157 0 0,0 0.4360950342128635,0.06409095227201896 l -0.7195971388292033 4.6203298354404" fill="#ff3605" stroke="none" /><path d="M 103.58742460773223 79.30868818359171 l 1.5691680385138806 -9.050544255968923 a30.185566921118454,30.185566921118454 0 0,0 0.5097986730948084,0.09290230052518292 l -1.7243014451597427 9.022273781512373" fill="#ff740a" stroke="none" /><path d="M 104.29559338865022 79.4440306129975 l 1.8619996466038924 -8.91034236045934 a30.102815150520698,30.102815150520698 0 0,0 0.5049210886466823,0.11004520119884159 l -2.0146831518697086 8.87706570112678" fill="#ff730a" stroke="none" /><path d="M 105.3480935250658 79.69241777938227 l 2.2986025984374248 -8.728168466298317 a30.025768592293268,30.025768592293268 0 0,0 0.4973105127443117,0.13554419169008292 l -2.448094512116429 8.687423780464092" fill="#ff720a" stroke="none" /><path d="M 106.04205211174951 79.88797359093562 l 2.4836206744601315 -8.267165471430701 a29.63217218240124,29.63217218240124 0 0,0 0.48591028854145607,0.15053624948188235 l -2.625171595873218 8.223312634142172" fill="#ff6d0a" stroke="none" /><path d="M 106.72888874123014 80.10723608172694 l 2.891157331685168 -8.547192926135843 a30.02293176485024,30.02293176485024 0 0,0 0.48679214153417993,0.16933157605310084 l -3.037455245264366 8.496302917514152" fill="#ff720a" stroke="none" /><path d="M 108.07796709384702 80.6158196554323 l 3.763930588869851 -9.032063202468619 a30.78495473526668,30.78495473526668 0 0,0 0.48605767631811486,0.20746911924419437 l -3.918423340358396 8.966119433565023" fill="#ff7c0b" stroke="none" /><path d="M 109.71004243097381 81.37971332152246 l 3.2124245580893667 -6.160247664191371 a27.94754077538167,27.94754077538167 0 0,0 0.4234866688565531,0.22548279818463007 l -3.317700042732479 6.104194398284168" fill="#ff5607" stroke="none" /><path d="M 110.02825361518725 81.54914285379988 l 5.315124511637965 -9.779230446463687 a32.130314312689336,32.130314312689336 0 0,0 0.4823461106403118,0.26754925667031637 l -5.482214810434376 9.686548274360225" fill="#ff8e0d" stroke="none" /><line stroke="#e1ed5e" stroke-width="0.3" x1="143.13028292997686" x2="145.6673583964461" y1="26.7553504044142" y2="22.446841604673864" /><path d="M 143.63769802327073 25.89364864446614 a86.0,86.0 0 0,1 29.32050498858742,28.57503671076993" fill="none" id="id38" stroke="none" /><text fill="#e1ed5e" style="font-size:6.75px; font-family:Arial;" text-anchor="middle"><textPath startOffset="20.669276256404974" xlink:href="#id38">February</textPath></text><path d="M 111.27062007382361 82.28071324371311 l 11.547580030267198 -18.154713809642253 a42.51604606021843,42.51604606021843 0 0,0 0.6124626091828063,0.39699086370897596 l -11.857528271707013 17.953809104229382" fill="#edff1a" stroke="none" /><path d="M 111.8722381534696 82.67804972795209 l 3.0714916175352767 -4.481398062623046 a26.43295401713203,26.43295401713203 0 0,0 0.37208147439249944,0.25974176642951885 l -3.147968183101537 4.4280114803884" fill="#ff4006" stroke="none" /><path d="M 113.03279911837588 83.53348406188908 l 6.5277279038862925 -8.247570962514004 a31.518253579795456,31.518253579795456 0 0,0 0.42136787677500753,0.3394241344629886 l -6.66834655101656 8.134298534257608" fill="#ff860c" stroke="none" /><path d="M 114.65682725009322 84.96080404539774 l 8.936273587390511 -9.169403943397619 a33.8037086153149,33.8037086153149 0 0,0 0.41209631119490536,0.4085741416653622 l -9.092361818715379 9.014649791503597" fill="#ffa40f" stroke="none" /><path d="M 115.8921839302757 86.27271002978787 l 7.058421947268345 -6.096896765564989 a30.327029031563924,30.327029031563924 0 0,0 0.3369267021781668,0.39689880797574095 l -7.162043212953623 5.9748311751396965" fill="#ff760a" stroke="none" /><path d="M 116.35404254752997 86.82634096563983 l 12.12727328375821 -9.768872912762813 a36.57246400813521,36.57246400813521 0 0,0 0.38964228156062836,0.49230029414276544 l -12.293181995960397 9.55925267470537" fill="#ffc812" stroke="none" /><path d="M 116.57777611688842 87.10902102172516 l 3.100628029916745 -2.4110671100442373 a24.927739653928512,24.927739653928512 0 0,0 0.25978031106137583,0.3400607662393568 l -3.1415603183324277 2.3574854305639987" fill="#ff2b04" stroke="none" /><path d="M 117.81537515405839 88.88188828441811 l 9.53453917731467 -5.95025761811299 a32.23890577617145,32.23890577617145 0 0,0 0.2889711837132971,0.4720127115681155 l -9.63527832548337 5.78570779042032" fill="#ff900d" stroke="none" /><line stroke="#e1ed5e" stroke-width="0.3" x1="172.87174338648825" x2="177.1583165268699" y1="56.24261187166439" y2="53.66864786411523" /><path d="M 173.72905801456457 55.72781907015455 a86.0,86.0 0 0,1 12.242430191666344,42.057860355516425" fill="none" id="id39" stroke="none" /><text fill="#e1ed5e" style="font-size:6.75px; font-family:Arial;" text-anchor="middle"><textPath startOffset="22.145653131862474" xlink:href="#id39">March</textPath></text><path d="M 119.0197475246899 91.09779779509293 l 6.968155553013659 -3.2614486416104547 a28.693649267601025,28.693649267601025 0 0,0 0.20497586429241094,0.4479092557327225 l -7.023115882161122 3.141350403663048" fill="#ff6008" stroke="none" /><path d="M 119.16976305983485 91.42560881287824 l 18.44093899301057 -8.248397452299136 a41.201591310464444,41.201591310464444 0 0,0 0.2832435139150038,0.648116590259056 l -18.579816388942543 7.930618792264231" fill="#fdff18" stroke="none" /><path d="M 120.05942366710727 93.78553927170692 l 5.37272380233851 -1.6644835678079595 a26.624648131547207,26.624648131547207 0 0,0 0.13150507061012495,0.4377376103548455 l -5.400505192952262 1.5720083538623904" fill="#ff4306" stroke="none" /><path d="M 120.592083275326 95.88100663000786 l 4.699922380613686 -0.9401161051257916 a25.7930250025334,25.7930250025334 0 0,0 0.08311950643716497,0.43491638063946014 l -4.715368179333008 0.8592971594530169" fill="#ff3705" stroke="none" /><path d="M 120.7213421655516 96.59031103205396 l 5.258442775770253 -0.8652747576808382 a26.329157610010235,26.329157610010235 0 0,0 0.06955725606951464,0.44660748097501785 l -5.272521523978033 0.7748790947743791" fill="#ff3f05" stroke="none" /><path d="M 120.77682067341334 96.94652285012252 l 8.269237524888162 -1.215293149325105 a29.358063572491837,29.358063572491837 0 0,0 0.06899911526776852,0.4992432262067618 l -8.288881156711142 1.0731616149182575" fill="#ff6909" stroke="none" /><path d="M 120.86939407059847 97.66154086499901 l 7.838342020990346 -0.8783025726688629 a28.88739634145386,28.88739634145386 0 0,0 0.05098984141959845,0.4932804614793308 l -7.85226425489161 0.7436175889066007" fill="#ff6209" stroke="none" /><path d="M 120.93736805541906 98.37931529534042 l 16.37519168531361 -1.2675434003935158 a37.424176356902805,37.424176356902805 0 0,0 0.04408218474903636,0.6409452915413327 l -16.394537831227712 0.9862546846978488" fill="#ffd313" stroke="none" /><path d="M 120.96210409425399 98.7389718711861 l 29.22459017354188 -1.7580787737809616 a50.277423243624085,50.277423243624085 0 0,0 0.04443186007718245,0.8619662154305265 l -29.250463623075635 1.2561407649737042" fill="#94ff23" stroke="none" /><line stroke="#e1ed5e" stroke-width="0.3" x1="184.99686870605535" x2="189.99668451229388" y1="99.2704041080226" y2="99.22748670261217" /><path d="M 185.99683186730306 99.26182062694052 a86.0,86.0 0 0,1 -10.086455211305974,41.156179273409016" fill="none" id="id40" stroke="none" /><text fill="#e1ed5e" style="font-size:6.75px; font-family:Arial;" text-anchor="middle"><textPath startOffset="21.40746469413373" xlink:href="#id40">April</textPath></text><path d="M 120.99922638620191 99.81974689727618 l 11.480284445720631 -0.0985444346108375 a32.48070738065594,32.48070738065594 0 0,0 0.0,0.5575950746693273 l -11.480284445720631 -0.09854443461083612" fill="#ff930d" stroke="none" /><path d="M 120.99922638620191 100.18025310272382 l 7.115175192853093 0.06107522159854831 a28.11543731668584,28.11543731668584 0 0,0 -0.008285443188936306,0.48258552807988936 l -7.113078318065488 -0.1832076656475087" fill="#ff5808" stroke="none" /><path d="M 120.98066250479742 100.90099992219065 l 9.631991815733251 0.4136391724776173 a30.640869447480362,30.640869447480362 0 0,0 -0.027078373076852374,0.5253132036454324 l -9.623471853199826 -0.5789241694997803" fill="#ff7a0b" stroke="none" /><path d="M 120.96210409425399 101.26102812881392 l 9.803335444054659 0.5897443164849102 a30.821058201002813,30.821058201002813 0 0,0 -0.03630432821875067,0.5278569645958268 l -9.791767154670843 -0.7579447052350805" fill="#ff7d0b" stroke="none" /><path d="M 120.9064616781168 101.97986365728391 l 13.101590422780715 1.2407342347095367 a34.160208700756975,34.160208700756975 0 0,0 -0.060297009945906456,0.5833188741887005 l -13.078361020353142 -1.4654576311811687" fill="#ffa90f" stroke="none" /><path d="M 120.65975698304385 103.76489593502545 l 27.049836441081403 4.929381277026346 a48.49531689694726,48.49531689694726 0 0,0 -0.15627894768419395,0.8177174914812183 l -26.96123120111505 -5.393001333540879" fill="#a8ff21" stroke="none" /><path d="M 120.35273937422433 105.17358676015961 l 9.209514070047023 2.3410224630813254 a30.50239630719775,30.50239630719775 0 0,0 -0.13335432579350967,0.5063680960017214 l -9.167970263448783 -2.49877106345585" fill="#ff780b" stroke="none" /><path d="M 120.16314734710363 105.8691983318838 l 18.190622679795727 5.29502514911299 a39.94560753336872,39.94560753336872 0 0,0 -0.19730025776436844,0.6567483896664446 l -18.097046102027726 -5.606511142370159" fill="#fff216" stroke="none" /><path d="M 120.05942366710727 106.21446072829308 l 0.8870842556536411 0.27482096998062105 a21.928679192277755,21.928679192277755 0 0,0 -0.11448366551784615,0.3586184516607429 l -0.8822358743585401 -0.2900084553327475" fill="#ff0000" stroke="none" /><path d="M 119.31412917781788 108.2440532568976 l 8.565657820936332 3.656169978259348 a30.313327698266217,30.313327698266217 0 0,0 -0.20839130680696588,0.47684009190722954 l -8.5016326321124 -3.802672139942422" fill="#ff760a" stroke="none" /><path d="M 119.0197475246899 108.90220220490707 l 10.125669142763696 4.739324433821061 a32.17990928754479,32.17990928754479 0 0,0 -0.23846958867192572,0.4983097230946965 l -10.04282029613186 -4.912446658980861" fill="#ff8f0d" stroke="none" /><path d="M 118.8641267826498 109.22738970284198 l 15.719150948020356 7.689024425375874 a38.49893720031808,38.49893720031808 0 0,0 -0.29548866853349215,0.5911752770788138 l -15.584842366275131 -7.957731558618434" fill="#ffe015" stroke="none" /><line stroke="#e1ed5e" stroke-width="0.3" x1="174.33088141563837" x2="178.70328620479359" y1="141.23008692659167" y2="143.65538615756765" /><path d="M 175.20536237346943 141.71514677278685 a86.0,86.0 0 0,1 -30.301960400862466,31.631185727798858" fill="none" id="id41" stroke="none" /><text fill="#e1ed5e" style="font-size:6.75px; font-family:Arial;" text-anchor="middle"><textPath startOffset="22.145653131862474" xlink:href="#id41">May</textPath></text><path d="M 118.36410011445183 110.18625677009912 l 18.288203558073615 10.144158229663345 a41.91320959513348,41.91320959513348 0 0,0 -0.35439940899816813,0.6261897978042675 l -18.11137078405407 -10.456604797566735" fill="#f4ff19" stroke="none" /><path d="M 118.18653347947321 110.5 l 19.90393810840505 11.4915440248213 a43.98308804964261,43.98308804964261 0 0,0 -0.38312681495033224,0.650633091307782 l -19.70373758332495 -11.831528284422632" fill="#dcff1b" stroke="none" /><path d="M 118.00360718960297 110.81064883170644 l 50.704935536525085 30.446856918553642 a80.14390572140161,80.14390572140161 0 0,0 -0.7183643100206459,1.1733941132449406 l -50.17480326204903 -31.31278814792314" fill="#48f6ff" stroke="none" /><path d="M 117.81537515405839 111.11811171558189 l 1.0245474124087597 0.6393933605420618 a22.207692539423324,22.207692539423324 0 0,0 -0.2046093150566727,0.32167982797300254 l -1.013420405726197 -0.6568868631937361" fill="#ff0400" stroke="none" /><path d="M 117.423217284605 111.72311816256416 l 10.026957526817185 6.7465845129391555 a33.08537462534059,33.08537462534059 0 0,0 -0.32110185285497084,0.4684971995605356 l -9.909665937146892 -6.9177164475697355" fill="#ff9b0e" stroke="none" /><path d="M 117.01052211995028 112.31430620078461 l 7.685242482422651 5.563522888273764 a30.487662459319466,30.487662459319466 0 0,0 -0.3105356870313512,0.42130129956355294 l -7.588604775807471 -5.6946304971061945" fill="#ff780b" stroke="none" /><path d="M 116.79662413953412 112.60449989151573 l 17.15852145950344 12.876074387223877 a42.45246256963435,42.45246256963435 0 0,0 -0.4424113090383277,0.5791306051249852 l -16.934958173110807 -13.16872590558974" fill="#eeff19" stroke="none" /><path d="M 116.57777611688842 112.89097897827486 l 7.58040161696418 5.894566147000628 a30.60252043662699,30.60252043662699 0 0,0 -0.32603862517386245,0.41193915206560855 l -7.478096561148757 -6.023825242980919" fill="#ff7a0b" stroke="none" /><path d="M 116.1254893667686 113.45245675266167 l 12.730234505012758 10.620014390561286 a37.57840692612973,37.57840692612973 0 0,0 -0.4174879347908556,0.49179973742514754 l -12.546052006714788 -10.83698091043599" fill="#ffd513" stroke="none" /><path d="M 115.6541949942343 113.99807769240083 l 3.7986741478358064 3.396797846781967 a26.0958964759244,26.0958964759244 0 0,0 -0.30147259445959734,0.33137119153647665 l -3.7398038525343296 -3.4615066138761157" fill="#ff3c05" stroke="none" /><path d="M 115.41159269507618 114.26474011684316 l 3.9922722717011734 3.695187613522301 a26.439912627103737,26.439912627103737 0 0,0 -0.311165245824366,0.3304467079668906 l -3.9282511921405474 -3.763175781433689" fill="#ff4106" stroke="none" /><path d="M 115.16444852881244 114.52719865689866 l 19.15349080071718 18.34861091759658 a47.524097203458254,47.524097203458254 0 0,0 -0.5694138152277196,0.5842687370428583 l -18.835690184338652 -18.67470234670718" fill="#b3ff20" stroke="none" /><path d="M 114.91283532996324 114.78537596483092 l 4.084811859237674 4.049899147151506 a26.752162291475027,26.752162291475027 0 0,0 -0.3261318905053372,0.3233444551992082 l -4.0146880486023715 -4.119423612579376" fill="#ff4506" stroke="none" /><path d="M 114.13192950727249 115.5334660781643 l 8.945839082961358 9.83304423252224 a34.293486968323165,34.293486968323165 0 0,0 -0.4388504428840555,0.39242277211304155 l -8.775723613253923 -9.98516253451867" fill="#ffab0f" stroke="none" /><path d="M 113.86319453409587 115.77377054828091 l 5.825900767379125 6.628805627424265 a29.825088316698043,29.825088316698043 0 0,0 -0.3874712433657304,0.33468843150418526 l -5.71125004425054 -6.727838191393168" fill="#ff6f0a" stroke="none" /><path d="M 113.03279911837588 116.46651593811092 l 8.31010832030392 10.49955039288331 a34.390237441803656,34.390237441803656 0 0,0 -0.4660533132176412,0.36240587525630347 l -8.128645062451048 -10.640657319760408" fill="#ffac0f" stroke="none" /><path d="M 112.16784306229584 117.11559508785304 l 0.6672990589300507 0.938639694535735 a22.15166510332087,22.15166510332087 0 0,0 -0.3118162353912668,0.2176719491723347 l -0.6510877323650255 -0.9499564595131917" fill="#ff0300" stroke="none" /><path d="M 111.5731344415666 117.5232005979908 l 2.3654009485365117 3.5815185181821994 a25.29213193453084,25.29213193453084 0 0,0 -0.36434444290699486,0.23616366600763783 l -2.3035708733725073 -3.621596025893732" fill="#ff3004" stroke="none" /><line stroke="#e1ed5e" stroke-width="0.3" x1="143.1302829299769" x2="145.66735839644613" y1="173.24464959558577" y2="177.55315839532614" /><path d="M 143.63769802327073 174.10635135553383 a86.0,86.0 0 0,1 -40.68552437913181,11.842963189579606" fill="none" id="id42" stroke="none" /><text fill="#e1ed5e" style="font-size:6.75px; font-family:Arial;" text-anchor="middle"><textPath startOffset="21.407464694133747" xlink:href="#id42">June</textPath></text><path d="M 110.34350942703117 118.27599006163325 l 0.9875146620221682 1.7448437859658266 a23.00491023368437,23.00491023368437 0 0,0 -0.34535388819601603,0.19156198015650583 l -0.9574165856700576 -1.761538681555476" fill="#ff1001" stroke="none" /><path d="M 109.71004243097381 118.62028667847754 l 3.5915985747553187 6.8873638371164585 a28.76758398390413,28.76758398390413 0 0,0 -0.4398327673476167,0.22458174494023586 l -3.4728385856941197 -6.948003533729531" fill="#ff6108" stroke="none" /><path d="M 107.74402155503746 119.51999308798841 l 3.3236109251493993 8.377670674725433 a30.012866109952313,30.012866109952313 0 0,0 -0.48053133658256636,0.18587984397897186 l -3.1793073260733036 -8.433490406842445" fill="#ff720a" stroke="none" /><path d="M 105.69591212413111 120.21278271476187 l 1.4709348488915013 5.219828859763257 a26.423122961440285,26.423122961440285 0 0,0 -0.43764064816087855,0.11928090475776727 l -1.3811127997959276 -5.244310258665166" fill="#ff4006" stroke="none" /><path d="M 104.64783097203109 120.47920084513623 l 1.5062455214688262 6.636795688541828 a27.805573640949916,27.805573640949916 0 0,0 -0.46638895541937403,0.10164730210339189 l -1.3920941494303165 -6.661674448778939" fill="#ff5407" stroke="none" /><path d="M 104.29559338865022 120.5559693870025 l 1.1123004588023084 5.322760352667754 a26.437737588610137,26.437737588610137 0 0,0 -0.44503967391352195,0.08902039884569374 l -1.0207642993578279 -5.34107014817631" fill="#ff4106" stroke="none" /><path d="M 103.94208987418118 120.62667999033965 l 0.7119882787073296 3.725423531806036 a24.792849562051043,24.792849562051043 0 0,0 -0.4187220283787328,0.07630510193525479 l -0.6479315167775396 -3.7370968076726543" fill="#ff2904" stroke="none" /><path d="M 102.15924093988457 120.88869738790638 l 0.503251716933704 4.86850384817845 a25.894445015558464,25.894445015558464 0 0,0 -0.44254893438031656,0.041909844202208495 l -0.4196032191683721 -4.8764254478858415" fill="#ff3905" stroke="none" /><path d="M 101.80034050326958 120.92268563240118 l 0.1881616322274272 2.186723384839856 a23.194803854937376,23.194803854937376 0 0,0 -0.39699674597958934,0.030730058921718834 l -0.15059589147260202 -2.189631210756629" fill="#ff1202" stroke="none" /><path d="M 100.72087961077811 120.9876233191556 l 0.07535925620731836 2.1940025203150904 a23.195296352806402,23.195296352806402 0 0,0 -0.3980607610349934,0.010252633185534142 l -0.0376851811015811 -2.1949728708506697" fill="#ff1202" stroke="none" /><line stroke="#e1ed5e" stroke-width="0.3" x1="101.45913802915013" x2="101.54496967792366" y1="184.9874750549273" y2="189.98673829345242" /><path d="M 101.47630435890484 185.9873277026323 a86.0,86.0 0 0,1 -42.54439059252881,-10.42667462771756" fill="none" id="id43" stroke="none" /><text fill="#e1ed5e" style="font-size:6.75px; font-family:Arial;" text-anchor="middle"><textPath startOffset="22.145653131862474" xlink:href="#id43">July</textPath></text><path d="M 97.48249496171623 120.84855314841334 l -0.43338525148229357 3.589051585543883 a24.61512296608254,24.61512296608254 0 0,0 -0.41906916082189377,-0.05425689292528141 l 0.49493223419498134 -3.5810830964182045" fill="#ff2703" stroke="none" /><path d="M 96.76829788921471 120.74984581791261 l -1.0999581144511361 7.062520151486619 a28.147663866166447,28.147663866166447 0 0,0 -0.47679796541408515,-0.07845692376598133 l 1.2210335829182848 -7.0425972292249694" fill="#ff5808" stroke="none" /><path d="M 96.41257539226777 120.69131181640829 l -0.5041306244688565 2.9076914744362314 a23.951070551009668,23.951070551009668 0 0,0 -0.4045053723195844,-0.07371435361954476 l 0.553970730339498 -2.8986089468853207" fill="#ff1d03" stroke="none" /><path d="M 95.70440661134978 120.55596938700252 l -0.944876415529247 4.521575697420244 a25.61924650003924,25.61924650003924 0 0,0 -0.42971721310535566,-0.09365486654861149 l 1.022356045253739 -4.504689372737913" fill="#ff3505" stroke="none" /><path d="M 95.00130118170881 120.39639698878247 l -1.123451357784477 4.584064918476561 a25.71972394638874,25.71972394638874 0 0,0 -0.42792073364631905,-0.10877577712188334 l 1.2019773846561748 -4.564103909519415" fill="#ff3605" stroke="none" /><path d="M 93.27111125876986 119.89276391827306 l -0.7962286808680153 2.3539086144214942 a23.484927740857778,23.484927740857778 0 0,0 -0.38078487331913424,-0.13245674536383747 l 0.8365193262321714 -2.3398934364890662" fill="#ff1702" stroke="none" /><line stroke="#e1ed5e" stroke-width="0.3" x1="58.13341422392154" x2="55.67067388415222" y1="173.97424548756322" y2="178.32567169271397" /><path d="M 57.64086615596768 174.84453072859336 a86.0,86.0 0 0,1 -31.369924170532247,-30.572349798747897" fill="none" id="id44" stroke="none" /><text fill="#e1ed5e" style="font-size:6.75px; font-family:Arial;" text-anchor="middle"><textPath startOffset="22.145653131862474" xlink:href="#id44">August</textPath></text><path d="M 89.65649057296885 118.27599006163327 l -1.514977235854577 2.6768196134400353 a24.075795712991166,24.075795712991166 0 0,0 -0.35793546494524475,-0.20665413703865249 l 1.5607051686602214 -2.650418579125211" fill="#ff1f03" stroke="none" /><path d="M 88.4268655584334 117.5232005979908 l -3.4483575821346943 5.2212528896509705 a27.257207983753972,27.257207983753972 0 0,0 -0.388225337335845,-0.2612153329058727 l 3.537479207567545 -5.161287882687977" fill="#ff4c07" stroke="none" /><path d="M 88.1277618465304 117.32195027204791 l -5.59257066128279 8.159727730810696 a30.89232041749569,30.89232041749569 0 0,0 -0.43485340764022085,-0.3035614509504427 l 5.731819160096776 -8.062521464055123" fill="#ff7e0b" stroke="none" /><path d="M 87.54013794807813 116.9041958592261 l -11.644487055362179 15.797983079090642 a40.625757263090044,40.625757263090044 0 0,0 -0.5578245561927971,-0.4186019464154017 l 11.913964600465741 -15.595762105411227" fill="#fffa17" stroke="none" /><path d="M 86.13680546590413 115.77377054828092 l -1.3654091730549873 1.5535849942317803 a23.068325057664985,23.068325057664985 0 0,0 -0.2952031293143505,-0.26397245854571805 l 1.3918773291927087 -1.52991700580268" fill="#ff1101" stroke="none" /><path d="M 85.08716467003676 114.78537596483092 l -3.385164266313634 3.3562314122516006 a25.766930501120306,25.766930501120306 0 0,0 -0.30872856228150747,-0.31678270240271184 l 3.4422796297459506 -3.2976260177811514" fill="#ff3705" stroke="none" /><path d="M 84.83555147118756 114.52719865689866 l -1.3680447943443839 1.3105559665566886 a22.894492940290384,22.894492940290384 0 0,0 -0.2694400176075861,-0.28613596154379956 l 1.390340645688223 -1.2868785450683988" fill="#ff0e01" stroke="none" /><path d="M 84.3458050057657 113.99807769240083 l -3.4302212655082416 3.0673250074114384 a25.60161934882021,25.60161934882021 0 0,0 -0.29013819760775394,-0.3301240089432938 l 3.482370527074588 -3.0079887206568445" fill="#ff3505" stroke="none" /><path d="M 83.8745106332314 113.45245675266167 l -4.500540171521357 3.754510678341042 a26.860990724208186,26.860990724208186 0 0,0 -0.29234118421044947,-0.3566087107251013 l 4.564328174970436 -3.6766996859174452" fill="#ff4606" stroke="none" /><path d="M 83.64595745247003 113.17365903436017 l -0.9842857166425601 0.7928708993971865 a22.263907684563023,22.263907684563023 0 0,0 -0.23719921591114523,-0.2996934606166976 l 0.997751363195267 -0.7758574948658084" fill="#ff0500" stroke="none" /><path d="M 81.99639281039703 110.81064883170644 l -11.435840092537498 6.866893397194733 a34.33914028528543,34.33914028528543 0 0,0 -0.29912054903431495,-0.5079720862584528 l 11.552034351701584 -6.669570142642722" fill="#ffab0f" stroke="none" /><line stroke="#e1ed5e" stroke-width="0.3" x1="26.387840678322732" x2="22.057713659400548" y1="142.50000000000003" y2="145.00000000000006" /><path d="M 25.521815274538298 143.00000000000003 a86.0,86.0 0 0,1 -11.493303480769221,-40.785679425670985" fill="none" id="id45" stroke="none" /><text fill="#e1ed5e" style="font-size:6.75px; font-family:Arial;" text-anchor="middle"><textPath startOffset="21.40746469413373" xlink:href="#id45">September</textPath></text><path d="M 81.81346652052679 110.50000000000001 l -7.111057041426433 4.105570697090339 a29.21114139418067,29.21114139418067 0 0,0 -0.2469963848213993,-0.43641894524292824 l 7.18048679126921 -3.9828949817482897" fill="#ff6709" stroke="none" /><path d="M 81.4637452351635 109.86951160357371 l -7.87498729214777 4.192987172645474 a29.9216907748172,29.9216907748172 0 0,0 -0.2375097340375584,-0.455456231849317 l 7.945805095160277 -4.057184697691654" fill="#ff710a" stroke="none" /><path d="M 81.29705330413844 109.54985784667822 l -11.066781257519693 5.650777364027957 a33.42597811923069,33.42597811923069 0 0,0 -0.2565524787733421,-0.5132768152390159 l 11.162153649504774 -5.459968692625188" fill="#ff9f0e" stroke="none" /><path d="M 80.9802524753101 108.90220220490708 l -4.348567822195627 2.0353493128489384 a25.801321581559588,25.801321581559588 0 0,0 -0.1843142411668787,-0.40275988037415056 l 4.382866528217561 -1.9604004502600987" fill="#ff3805" stroke="none" /><path d="M 80.68587082218212 108.24405325689762 l -7.139454250476662 3.04740848133664 a28.76263521278514,28.76263521278514 0 0,0 -0.18993495938276772,-0.4557747591244928 l 7.190715054395916 -2.924401212770866" fill="#ff6108" stroke="none" /><path d="M 79.94057633289273 106.21446072829308 l -6.235628672887815 1.931813702475524 a27.528014179458623,27.528014179458623 0 0,0 -0.13596699684217672,-0.4525899116184966 l 6.267871989733621 -1.824486187266304" fill="#ff5007" stroke="none" /><path d="M 79.83685265289637 105.86919833188381 l -9.65125258044907 2.809338967306502 a31.051818830681917,31.051818830681917 0 0,0 -0.1445854128138659,-0.5130826229831605 l 9.69805648533751 -2.6432484204203455" fill="#ff800b" stroke="none" /><path d="M 79.73907114497094 105.5222062557868 l -3.9128403858897403 1.0664620468025714 a25.055571622190897,25.055571622190897 0 0,0 -0.10954119235083591,-0.4159457495990147 l 3.930571059045309 -0.9991357928307539" fill="#ff2d04" stroke="none" /><path d="M 79.64726062577567 105.17358676015961 l -14.005212696771514 3.560070300561088 a35.4506084033423,35.4506084033423 0 0,0 -0.14486211398062251,-0.591086859358546 l 14.06426233726843 -3.3191276165944426" fill="#ffba11" stroke="none" /><path d="M 79.48165901384964 104.47187691870673 l -19.64477047152213 4.281486290932993 a41.10592280245388,41.10592280245388 0 0,0 -0.14434499267284803,-0.6907430434151404 l 19.715373175019344 -3.9436267962324436" fill="#feff18" stroke="none" /><path d="M 79.407916724674 104.11899336999214 l -5.6681834488162615 1.1337954364990661 a26.78046673731981,26.78046673731981 0 0,0 -0.08630159421565713,-0.45156640851883734 l 5.686811335314076 -1.0363264629469142" fill="#ff4506" stroke="none" /><path d="M 79.34024301695615 103.76489593502545 l -8.845433742787769 1.6119326848370406 a29.99110811182328,29.99110811182328 0 0,0 -0.08795275555603659,-0.5072881215119694 l 8.87180131583604 -1.4598515304044786" fill="#ff720a" stroke="none" /><path d="M 79.2786578344484 103.40968896794605 l -5.3210914886559015 0.8755835795455411 a26.39264881439688,26.39264881439688 0 0,0 -0.06972498927340293,-0.44768444846767014 l 5.335337970067572 -0.784110949146421" fill="#ff4006" stroke="none" /><path d="M 79.17382384314188 102.69636545807758 l -9.474272276283287 1.2266342277038653 a30.553348454532827,30.553348454532827 0 0,0 -0.06287866561840523,-0.5207255525257136 l 9.493933028161353 -1.0638149982547525" fill="#ff790b" stroke="none" /><path d="M 79.0935383218832 101.97986365728391 l -23.599303960927035 2.2348786212036074 a44.70489042142442,44.70489042142442 0 0,0 -0.06579362907717604,-0.7646217008930012 l 23.634191212701953 -1.8294358729349443" fill="#d3ff1c" stroke="none" /><path d="M 79.03789590574601 101.26102812881392 l -4.993702020002478 0.3004087130673184 a26.00272978077605,26.00272978077605 0 0,0 -0.02297949212006886,-0.4457960081086798 l 4.99812310157912 -0.21464091158190785" fill="#ff3a05" stroke="none" /><path d="M 79.00696218219943 100.54070618675478 l -43.2023486601658 1.1127392522048838 a64.21667639231327,64.21667639231327 0 0,0 -0.01892425211238853,-1.102242811991746 l 43.21508434387686 -0.37094952424408534" fill="#34ff60" stroke="none" /><line stroke="#e1ed5e" stroke-width="0.3" x1="15.003131293944662" x2="10.003315487706104" y1="100.72959589197737" y2="100.7725132973878" /><path d="M 14.003168132696942 100.73817937305945 a86.0,86.0 0 0,1 10.791469493833604,-42.45332614584628" fill="none" id="id46" stroke="none" /><text fill="#e1ed5e" style="font-size:6.75px; font-family:Arial;" text-anchor="middle"><textPath startOffset="22.145653131862435" xlink:href="#id46">October</textPath></text><path d="M 79.03789590574601 98.7389718711861 l -62.886312282761985 -3.7830843864417325 a84.0,84.0 0 0,0 0.09894415533974499,-1.4386263033827 l 62.81210416625718 4.862054113978758" fill="#4dd2ff" stroke="none" /><path d="M 79.06263194458094 98.37931529534042 l -6.523504626900888 -0.5049605156488567 a27.543019008039153,27.543019008039153 0 0,0 0.0405359494050329,-0.47108917711520104 l 6.513875054798112 0.6168707401397384" fill="#ff5007" stroke="none" /><path d="M 79.0935383218832 98.0201363427161 l -33.10620121782982 -3.1351916757160994 a54.25432281552154,54.25432281552154 0 0,0 0.09576561639518424,-0.9264454670594768 l 33.047503208952975 3.703041665058489" fill="#6aff28" stroke="none" /><path d="M 79.13060592940154 97.66154086499901 l -15.258554581508644 -1.709752867157245 a36.35404646285893,36.35404646285893 0 0,0 0.07481647829256416,-0.6195877665941142 l 15.226956016956413 1.9714343106747954" fill="#ffc512" stroke="none" /><path d="M 79.17382384314186 97.30363454192245 l -12.390090384815561 -1.6041452585655813 a33.49350318183325,33.49350318183325 0 0,0 0.07871847818090777,-0.5695676945509958 l 12.360727390079447 1.8166012613166442" fill="#ffa00e" stroke="none" /><path d="M 79.2786578344484 96.59031103205396 l -12.439669971902996 -2.0469429600270366 a33.606956987769465,33.606956987769465 0 0,0 0.09855669426773397,-0.5684488221139851 l 12.402698460143027 2.2601848150616144" fill="#ffa20e" stroke="none" /><path d="M 79.34024301695615 96.23510406497455 l -11.729139973092435 -2.1374400213072664 a32.92230574817979,32.92230574817979 0 0,0 0.10609402364760513,-0.5551287627914013 l 11.69071965716267 2.3384713491319826" fill="#ff990e" stroke="none" /><path d="M 79.48165901384962 95.52812308129327 l -15.138642840915598 -3.2993967468681147 a36.49401581121076,36.49401581121076 0 0,0 0.1386583847560751,-0.6109544274242227 l 15.079773594601862 3.5587855082313458" fill="#ffc712" stroke="none" /><path d="M 79.64726062577567 94.8264132398404 l -7.567229790444916 -1.9235602213091842 a28.807883876339353,28.807883876339353 0 0,0 0.12594603693351855,-0.4782376165265151 l 7.5330942727066725 2.053178342208484" fill="#ff6109" stroke="none" /><path d="M 79.83685265289637 94.1308016681162 l -12.818478729050213 -3.7312723395158143 a34.3504977509735,34.3504977509735 0 0,0 0.16966476363990546,-0.5647588176834559 l 12.752537645406678 3.9507687607899937" fill="#ffab0f" stroke="none" /><path d="M 79.94057633289273 93.78553927170692 l -11.081465776106121 -3.433066424059739 a32.60107015835253,32.60107015835253 0 0,0 0.1702013139417409,-0.5331531917703687 l 11.020899746387123 3.622788649521499" fill="#ff940d" stroke="none" /><path d="M 80.05021161711548 93.44210830539832 l -24.418397342786786 -8.026812217573596 a46.70384880064473,46.70384880064473 0 0,0 0.25690359072164204,-0.7594898171920051 l 24.27700833049278 8.444803709239762" fill="#bcff1f" stroke="none" /><line stroke="#e1ed5e" stroke-width="0.3" x1="26.387840678322718" x2="22.05771365940052" y1="57.49999999999999" y2="54.99999999999999" /><path d="M 25.521815274538284 56.99999999999999 a86.0,86.0 0 0,1 29.574782752854787,-30.34633250058573" fill="none" id="id47" stroke="none" /><text fill="#e1ed5e" style="font-size:6.75px; font-family:Arial;" text-anchor="middle"><textPath startOffset="21.40746469413373" xlink:href="#id47">November</textPath></text><path d="M 81.99639281039701 89.18935116829357 l -8.331352248890154 -5.002737646265277 a30.717963482769775,30.717963482769775 0 0,0 0.27533832353079335,-0.4497444590092081 l 8.244245960903967 5.1450192213990285" fill="#ff7b0b" stroke="none" /><path d="M 82.18462484594161 88.88188828441811 l -6.450394709477345 -4.025523367843891 a28.60344857897458,28.60344857897458 0 0,0 0.2635362504057219,-0.4143227578455162 l 6.380340767445732 4.135659800368079" fill="#ff5f08" stroke="none" /><path d="M 83.64595745247003 86.82634096563983 l -4.653640876262476 -3.7486436759639092 a26.975675929513347,26.975675929513347 0 0,0 0.2935893588989621,-0.35813128089472424 l 4.588604698124884 3.8279772385571267" fill="#ff4806" stroke="none" /><path d="M 84.58840730492382 85.73525988315684 l -32.26279624579625 -29.861962549528172 a64.96162905201749,64.96162905201749 0 0,0 0.7645184595806884,-0.8118921105056542 l 31.745421952479294 30.411396119978335" fill="#35ff69" stroke="none" /><path d="M 85.08716467003674 85.21462403516908 l -7.950220396714847 -7.8822702033407275 a32.19536457266193,32.19536457266193 0 0,0 0.39248921261726477,-0.38913462411986577 l 7.813739263967605 8.017584837689267" fill="#ff8f0d" stroke="none" /><path d="M 86.68645165197937 83.75963576809568 l -8.02684048777611 -9.791440249079908 a33.661061186468686,33.661061186468686 0 0,0 0.45001509510123944,-0.3625003057164138 l 7.857574622319625 9.927788848589723" fill="#ffa20f" stroke="none" /><path d="M 86.96720088162412 83.53348406188908 l -3.919165626563085 -4.951737740122533 a27.31502698770064,27.31502698770064 0 0,0 0.3701707163199768,-0.2878469879679756 l 3.8335849656078635 5.018285779711313" fill="#ff4d07" stroke="none" /><path d="M 87.54013794807813 83.09580414077388 l -9.64117361045012 -13.080103643580282 a37.24934890737601,37.24934890737601 0 0,0 0.5179770110552137,-0.37497541075591984 l 9.415215589020939 13.24367982570928" fill="#ffd013" stroke="none" /><path d="M 88.72937992617638 82.28071324371311 l -7.577828417470578 -11.913604916108909 a35.1194003279799,35.1194003279799 0 0,0 0.5114653521757657,-0.3191922075715706 l 7.3721989365051135 12.041932920522015" fill="#ffb510" stroke="none" /><line stroke="#e1ed5e" stroke-width="0.3" x1="56.869717070023135" x2="54.33264160355391" y1="26.7553504044142" y2="22.446841604673864" /><path d="M 56.362301976729285 25.89364864446614 a86.0,86.0 0 0,1 42.16139366436587,-11.88097634709845" fill="none" id="id48" stroke="none" /><text fill="#e1ed5e" style="font-size:6.75px; font-family:Arial;" text-anchor="middle"><textPath startOffset="22.145653131862474" xlink:href="#id48">December</textPath></text><path d="M 89.34428304082924 81.90426304109057 l -11.867721085027416 -20.15398493402474 a44.38858508916049,44.38858508916049 0 0,0 0.6599262193264503,-0.38100858037341606 l 11.520002397840566 20.35474041167433" fill="#d7ff1c" stroke="none" /><path d="M 89.65649057296885 81.72400993836675 l -11.138554432665646 -19.680758406848337 a43.614147039368675,43.614147039368675 0 0,0 0.6547434920369184,-0.36317517803068977 l 10.799066752472624 19.869066500312172" fill="#e0ff1b" stroke="none" /><path d="M 90.28995756902619 81.37971332152246 l -6.371478777311881 -12.218150666462586 a34.77965701743392,34.77965701743392 0 0,0 0.5317524336398196,-0.27151658150259106 l 6.16079912195848 12.325725199638011" fill="#ffb110" stroke="none" /><path d="M 90.61103034731259 81.2157712731953 l -3.2092201489301884 -6.420590069211717 a28.17795728610582,28.17795728610582 0 0,0 0.43453060303985824,-0.2125506925529954 l 3.098529296628277 6.474734511861926" fill="#ff5908" stroke="none" /><path d="M 90.93487009805054 81.0573650232925 l -8.47764506793207 -17.715017624776355 a40.639050775023975,40.639050775023975 0 0,0 0.6318623207425513,-0.29574347070643875 l 8.172294033317995 17.857937327053335" fill="#fffa17" stroke="none" /><path d="M 91.26138138417902 80.90454125486306 l -9.325455104813996 -20.37780238071102 a43.41024191701672,43.41024191701672 0 0,0 0.6802727996993053,-0.3042773705848121 l 8.974268902259071 20.53488350220568" fill="#e2ff1b" stroke="none" /><path d="M 91.5904679813234 80.7573450057729 l -5.014610708292006 -11.474410653971818 a33.52231689471636,33.52231689471636 0 0,0 0.5292773562528389,-0.22591703060729604 l 4.816898276868736 11.558802334238518" fill="#ffa10e" stroke="none" /><path d="M 92.93061703081487 80.22567764915836 l -4.487420508522995 -12.55211381899994 a34.33013518856587,34.33013518856587 0 0,0 0.5566291846010174,-0.1936245248507662 l 4.271285551876973 12.627296776419291" fill="#ffab0f" stroke="none" /><path d="M 93.95794788825049 79.88797359093562 l -0.7946719697892862 -2.645204534377566 a23.76199394790438,23.76199394790438 0 0,0 0.3916655376626448,-0.1140081298188909 l 0.7491464197450172 2.6584563584989773" fill="#ff1b02" stroke="none" /><path d="M 94.30408787586887 79.78721728523814 l -2.5176302938231148 -8.934181738787153 a30.282136911188807,30.282136911188807 0 0,0 0.5015566874835228,-0.13670150549715268 l 2.3638922054049143 8.976083738428446" fill="#ff750a" stroke="none" /><path d="M 95.00130118170881 79.60360301121753 l -3.3311163520890887 -13.592091462765959 a34.994330512152075,34.994330512152075 0 0,0 0.5846850180053663,-0.13798407223450077 l 3.097299180343817 13.64727167864669" fill="#ffb410" stroke="none" /><path d="M 95.35216902796891 79.52079915486377 l -4.899308394387452 -21.587256768736758 a43.13623449330726,43.13623449330726 0 0,0 0.7235334759082657,-0.15769075350730402 l 4.528012501860068 21.668178980377775" fill="#e6ff1a" stroke="none" /><path d="M 96.41257539226777 79.30868818359171 l -3.035691858205681 -17.50906393441178 a38.77027700733153,38.77027700733153 0 0,0 0.656736178303429,-0.10806568822240466 l 2.734678176849179 17.558595621129854" fill="#ffe415" stroke="none" /><path d="M 97.12497278360702 79.19773525538626 l -1.4704324226438137 -10.639316515158615 a31.740448194525637,31.740448194525637 0 0,0 0.5403768653652009,-0.06996260394326932 l 1.2875777353878188 10.662990715302278" fill="#ff890c" stroke="none" /><path d="M 97.84075906011542 79.11130261209362 l -0.9864353341625034 -9.542867036024383 a30.59371491841013,30.59371491841013 0 0,0 0.5228617924710361,-0.049515555364363445 l 0.8224739783064517 9.55839434689393" fill="#ff7a0b" stroke="none" /><path d="M 98.1996594967304 79.07731436759882 l -0.8144931940947215 -9.46564553695558 a30.500623379258528,30.500623379258528 0 0,0 0.5220414152947336,-0.040409307164468805 l 0.6518827840247708 9.478232611115104" fill="#ff780b" stroke="none" /><path d="M 98.5590905019552 79.04949213459386 l -0.07658088680537532 -1.1134692869557992 a22.11609967530582,22.11609967530582 0 0,0 0.37898111318855904,-0.022798562676299833 l 0.05745542148433248 1.114619827456793" fill="#ff0300" stroke="none" /><path d="M 99.27912038922189 79.0123766808444 l -0.06916346944447502 -2.0136189489112426 a23.014806406809353,23.014806406809353 0 0,0 0.39496332420254443,-0.01017285420009511 l 0.034586831171186674 2.0145095204613828" fill="#ff1001" stroke="none" /></svg>