<?xml version="1.0" encoding="utf-8" ?>
<svg baseProfile="full" height="200mm" version="1.1" viewBox="0,0,200,200" width="200mm" xmlns="http://www.w3.org/2000/svg" xmlns:ev="http://www.w3.org/2001/xml-events" xmlns:xlink="http://www.w3.org/1999/xlink"><defs /><rect fill="#1a1a1a" height="200" width="200" x="0" y="0" /><text alignment-baseline="middle" fill="#e1ed5e" style="dominant-baseline: central; font-size:9.0px; font-family:Arial;" text-anchor="middle" x="100.0" y="100.0">2017</text><line stroke="#e1ed5e" stroke-width="0.3" x1="100.0" x2="100.0" y1="15.0" y2="10.0" /><path d="M 100.0 14.0 a86.0,86.0 0 0,1 42.46469731375804,11.215312516191453" fill="none" id="id1" stroke="none" /><text fill="#e1ed5e" style="font-size:6.75px; font-family:Arial;" text-anchor="middle"><textPath startOffset="22.20632615414155" xlink:href="#id1">January</textPath></text><line stroke="#e1ed5e" stroke-width="0.3" x1="143.23703022742887" x2="145.7803849466894" y1="26.81831364943548" y2="22.513508569990506" /><path d="M 143.74570117128098 25.957352633546492 a86.0,86.0 0 0,1 28.547481713284135,27.462654790039103" fill="none" id="id2" stroke="none" /><text fill="#e1ed5e" style="font-size:6.75px; font-family:Arial;" text-anchor="middle"><textPath startOffset="19.985693538727396" xlink:href="#id2">February</textPath></text><line stroke="#e1ed5e" stroke-width="0.3" x1="172.23445277983987" x2="176.4835382374775" y1="55.19839476539836" y2="52.563006222186495" /><path d="M 173.08426987136738 54.67131705675599 a86.0,86.0 0 0,1 12.851231095245387,41.99856678651699" fill="none" id="id3" stroke="none" /><text fill="#e1ed5e" style="font-size:6.75px; font-family:Arial;" text-anchor="middle"><textPath startOffset="22.20632615414155" xlink:href="#id3">March</textPath></text><line stroke="#e1ed5e" stroke-width="0.3" x1="184.98032266829074" x2="189.97916517819016" y1="98.17113171792111" y2="98.06355123074" /><path d="M 185.9800911702706 98.14961562048488 a86.0,86.0 0 0,1 -9.607161424134198,41.387399972396054" fill="none" id="id4" stroke="none" /><text fill="#e1ed5e" style="font-size:6.75px; font-family:Arial;" text-anchor="middle"><textPath startOffset="21.466115282336823" xlink:href="#id4">April</textPath></text><line stroke="#e1ed5e" stroke-width="0.3" x1="174.80103733775053" x2="179.2010983576182" y1="140.37084112569926" y2="142.7455964860345" /><path d="M 175.68104954172406 140.8457921977663 a86.0,86.0 0 0,1 -30.038265399797805,32.042727171017184" fill="none" id="id5" stroke="none" /><text fill="#e1ed5e" style="font-size:6.75px; font-family:Arial;" text-anchor="middle"><textPath startOffset="22.206326154141568" xlink:href="#id5">May</textPath></text><line stroke="#e1ed5e" stroke-width="0.3" x1="143.8653032363475" x2="146.44561519142675" y1="172.8068346515853" y2="177.08958963109032" /><path d="M 144.38136562736335 173.6633856474863 a86.0,86.0 0 0,1 -40.68145358897372,12.25698825130547" fill="none" id="id6" stroke="none" /><text fill="#e1ed5e" style="font-size:6.75px; font-family:Arial;" text-anchor="middle"><textPath startOffset="21.466115282336833" xlink:href="#id6">June</textPath></text><line stroke="#e1ed5e" stroke-width="0.3" x1="102.19456741930631" x2="102.32365962044197" y1="184.97166512339345" y2="189.96999836594603" /><path d="M 102.22038585953345 185.97133177190398 a86.0,86.0 0 0,1 -42.740103519485714,-10.115201625700543" fill="none" id="id7" stroke="none" /><text fill="#e1ed5e" style="font-size:6.75px; font-family:Arial;" text-anchor="middle"><textPath startOffset="22.20632615414155" xlink:href="#id7">July</textPath></text><line stroke="#e1ed5e" stroke-width="0.3" x1="58.666819895761336" x2="56.23545636021788" y1="174.27360380694188" y2="178.64263932499728" /><path d="M 58.180547188652646 175.14741091055294 a86.0,86.0 0 0,1 -31.652253787137756,-30.449443065178592" fill="none" id="id8" stroke="none" /><text fill="#e1ed5e" style="font-size:6.75px; font-family:Arial;" text-anchor="middle"><textPath startOffset="22.20632615414155" xlink:href="#id8">August</textPath></text><line stroke="#e1ed5e" stroke-width="0.3" x1="26.63291911575756" x2="22.317208475507996" y1="142.92168965132927" y2="145.44649492493687" /><path d="M 25.769776987707644 143.4266507060508 a86.0,86.0 0 0,1 -11.730757126820373,-40.83630448921669" fill="none" id="id9" stroke="none" /><text fill="#e1ed5e" style="font-size:6.75px; font-family:Arial;" text-anchor="middle"><textPath startOffset="21.46611528233685" xlink:href="#id9">September</textPath></text><path d="M 79.23777060512086 103.15116336523772 l -9.114498723330811 1.3833425073585761 a30.21887864494723,30.21887864494723 0 0,0 -0.07362750490871217,-0.5149505978461497 l 9.136960279256122 -1.226246437532026" fill="#ff6e0a" stroke="none" /><path d="M 79.07016306316243 101.71520430193888 l -3.7105337610868645 0.3040789801044323 a24.722972578237286,24.722972578237286 0 0,0 -0.03110790550306185,-0.42444265524326114 l 3.7152182252542616 -0.24016318836441053" fill="#ff2103" stroke="none" /><path d="M 79.0235259727143 100.99374915477108 l -5.17904889186403 0.24535465074412877 a26.184857406810703,26.184857406810703 0 0,0 -0.01745391215670406,-0.45040791804924285 l 5.1825049368719345 -0.15616948568088915" fill="#ff3605" stroke="none" /><line stroke="#e1ed5e" stroke-width="0.3" x1="15.007084014347285" x2="10.007500721073583" y1="101.09737516637583" y2="101.16192664675087" /><path d="M 14.007167355692545 101.11028546245083 a86.0,86.0 0 0,1 10.666146001902534,-42.60595125391555" fill="none" id="id10" stroke="none" /><text fill="#e1ed5e" style="font-size:6.75px; font-family:Arial;" text-anchor="middle"><textPath startOffset="22.20632615414155" xlink:href="#id10">October</textPath></text><path d="M 79.00175016825051 100.2711162175752 l -3.677248535626077 0.04747832424374189 a24.677555028009387,24.677555028009387 0 0,0 -0.0018281399640720354,-0.42479534493964893 l 3.677520972879652 0.015826498899582413" fill="#ff2003" stroke="none" /><path d="M 79.00486145842228 99.54816195383935 l -8.003278582128171 -0.172239194814878 a29.00513175428,29.00513175428 0 0,0 0.01503889223308916,-0.4990676181282193 l 7.999127995439438 0.30997696036809175" fill="#ff5d08" stroke="none" /><path d="M 79.01574976396665 99.18683210126434 l -6.970019923098552 -0.27009763948006915 a27.975251283161306,27.975251283161306 0 0,0 0.022788362296003454,-0.4810263108466648 l 6.96433795256905 0.39003505694974305" fill="#ff4f07" stroke="none" /><path d="M 79.05617556472873 98.46500227214037 l -9.69035592701344 -0.7102176766276975 a30.716347417646148,30.716347417646148 0 0,0 0.043186476794555256,-0.5269844042280335 l 9.676694966399388 0.8769159980635094" fill="#ff750a" stroke="none" /><path d="M 79.08570108090925 98.10471618934814 l -5.406999131275101 -0.4899900282270546 a26.429155535934814,26.429155535934814 0 0,0 0.04495835245404903,-0.4527244737663914 l 5.397763653138823 0.5829900326978763" fill="#ff3905" stroke="none" /><path d="M 79.16333360222342 97.38593545837743 l -5.023133267846581 -0.6301773188019926 a26.062508397986075,26.062508397986075 0 0,0 0.059675698969713115,-0.4446532723230566 l 5.011541569819034 0.7165489331897086" fill="#ff3404" stroke="none" /><path d="M 79.32604984820605 96.31383870115002 l -1.6395133033111073 -0.2923249037190256 a22.665370145363617,22.665370145363617 0 0,0 0.07178908035875693,-0.3835001378606195 l 1.6342384990424887 0.32050311904221773" fill="#ff0300" stroke="none" /><path d="M 79.3925641242962 95.95851677861259 l -3.2818900566070233 -0.6436367764634605 a24.34440886311353,24.34440886311353 0 0,0 0.08418610057964529,-0.4105213245114251 l 3.2703246601123834 0.7000337571382881" fill="#ff1b02" stroke="none" /><path d="M 79.46518482838121 95.60439243477599 l -1.5859322630035968 -0.3394788701495721 a22.621859132635674,22.621859132635674 0 0,0 0.08478415667560214,-0.3800707498742614 l 1.579853719325957 0.3667277895737928" fill="#ff0200" stroke="none" /><path d="M 79.54389044137918 95.25157060432595 l -15.27745074002399 -3.546319302651561 a36.683650139881934,36.683650139881934 0 0,0 0.14807477612236963,-0.6138655436092546 l 15.214143163640806 3.8087700779202125" fill="#ffc412" stroke="none" /><path d="M 79.62865764111835 94.90015583598534 l -4.874024754969852 -1.22018305244665 a26.024436684200225,26.024436684200225 0 0,0 0.11252925294925316,-0.4336211151847111 l 4.8522991701502916 1.3039005931802248" fill="#ff3304" stroke="none" /><path d="M 79.71946130924805 94.55025226153421 l -9.466424813242549 -2.5437996497031006 a30.80225052743521,30.80225052743521 0 0,0 0.14200311178023906,-0.5108607470458856 l 9.421234930895949 2.706371700167929" fill="#ff760a" stroke="none" /><path d="M 80.14247586403 93.16781622104843 l -1.890159511097637 -0.6503286644864242 a22.99890728880695,22.99890728880695 0 0,0 0.13202130563840445,-0.37324200921998685 l 1.8786851246494232 0.6827683001330221" fill="#ff0801" stroke="none" /><path d="M 80.2630227832202 92.82701384747504 l -8.761802664093794 -3.1842915199430477 a30.322494216061617,30.322494216061617 0 0,0 0.18250591114743456,-0.48902510564484225 l 8.705692164444732 3.3346397626172313" fill="#ff700a" stroke="none" /><path d="M 80.38941819471856 92.48833698450439 l -3.274676420838794 -1.2543363579098725 a24.506688660256593,24.506688660256593 0 0,0 0.1542829672346257,-0.39263332316443056 l 3.2525999037224773 1.3105186859700666" fill="#ff1e03" stroke="none" /><path d="M 80.65960295795068 91.81776055985345 l -4.639516550872991 -1.9628157179622818 a26.037634302775878,26.037634302775878 0 0,0 0.17818333062037084,-0.4112716938653364 l 4.605042510409939 2.0423865564142174" fill="#ff3404" stroke="none" /><path d="M 80.803312248108 91.48605970444005 l -3.1250701999770083 -1.3860027024409716 a24.418635289988977,24.418635289988977 0 0,0 0.173718454059109,-0.38276558626555646 l 3.100749428954548 1.439590297548599" fill="#ff1c02" stroke="none" /><path d="M 81.6062741919709 89.86733742301443 l -4.219735200961976 -2.3245509583986523 a25.81764489397358,25.81764489397358 0 0,0 0.21778088156156733,-0.3874078876542421 l 4.179096678107977 2.3968423559876793" fill="#ff3004" stroke="none" /><line stroke="#e1ed5e" stroke-width="0.3" x1="26.266209847984243" x2="21.928928074336255" y1="57.711370442889674" y2="55.22380399835377" /><path d="M 25.398753493254645 57.213857153982495 a86.0,86.0 0 0,1 29.58750427330803,-30.492523968695096" fill="none" id="id11" stroke="none" /><text fill="#e1ed5e" style="font-size:6.75px; font-family:Arial;" text-anchor="middle"><textPath startOffset="21.46611528233685" xlink:href="#id11">November</textPath></text><path d="M 81.78341655067845 89.55222093294921 l -8.747849391185708 -5.017164607469077 a31.08448360945212,31.08448360945212 0 0,0 0.2701986550948209,-0.46185708773795564 l 8.660191061620562 5.167001107560925" fill="#ff7a0b" stroke="none" /><path d="M 81.96595687620814 89.24020034530311 l -1.683228064185392 -1.0042782208890502 a22.960059045287508,22.960059045287508 0 0,0 0.20542058881072225,-0.3376574362977711 l 1.665691677088453 1.0331034303938957" fill="#ff0701" stroke="none" /><path d="M 82.34701348167596 88.62581576622439 l -3.952772818226434 -2.5468532603307215 a25.702220165216318,25.702220165216318 0 0,0 0.2428289028357347,-0.36984507855225307 l 3.908347280032779 2.614516402860642" fill="#ff2f04" stroke="none" /><path d="M 82.7489923806493 88.02491185347247 l -4.135203885346452 -2.8705239788625554 a26.03386720987049,26.03386720987049 0 0,0 0.2587114068762662,-0.3659289378207157 l 4.085179858666308 2.9412794170150574" fill="#ff3404" stroke="none" /><path d="M 83.39014120810768 87.1503855733568 l -2.483016606619902 -1.920895680678017 a24.13930114592367,24.13930114592367 0 0,0 0.2570788665999575,-0.3264640538142969 l 2.4495836594259734 1.9633521284453617" fill="#ff1802" stroke="none" /><path d="M 84.80347519578584 85.50635884689758 l -1.9858177089254498 -1.8939678406381417 a23.7441913480028,23.7441913480028 0 0,0 0.2846314996077872,-0.29333778016099527 l 1.9529219456145441 1.9278698163492607" fill="#ff1302" stroke="none" /><path d="M 85.57189188830299 84.74124197986013 l -6.038628871551656 -6.386282665135876 a29.789177716223072,29.789177716223072 0 0,0 0.3756161622614201,-0.34909428669380016 l 5.92780482549538 6.489281537904324" fill="#ff6809" stroke="none" /><path d="M 85.83668400450813 84.49514656593479 l -3.846979879165276 -4.211362593988645 a26.703931020686458,26.703931020686458 0 0,0 0.34205066821713115,-0.30709646720250405 l 3.7739182233521733 4.276958069960428" fill="#ff3d05" stroke="none" /><path d="M 86.65592168130627 83.78471172551755 l -0.9387994041553995 -1.1407983831274717 a22.47741844857467,22.47741844857467 0 0,0 0.30087266356847325,-0.2432847696477945 l 0.9190233420224259 1.1567892500394006" fill="#ff0000" stroke="none" /><path d="M 86.93701828274178 83.55741782278169 l -2.798752105945219 -3.5228336448537783 a25.49926329967991,25.49926329967991 0 0,0 0.3460219003727055,-0.2700755817493329 l 2.7376976504130877 3.570487615826333" fill="#ff2c04" stroke="none" /><path d="M 87.51073957382395 83.11751280151077 l -8.074025305316875 -10.914147371897306 a34.576026572100915,34.576026572100915 0 0,0 0.48152004347081,-0.3498447896685346 l 7.884959945492283 11.051511396382507" fill="#ffa90f" stroke="none" /><path d="M 87.80319425747018 82.90503203632743 l -12.860268517373552 -18.024873311061523 a43.142325176430035,43.142325176430035 0 0,0 0.608242811937943,-0.4261129599999216 l 12.54809456585195 18.24357111382539" fill="#eaff1a" stroke="none" /><path d="M 88.39885842347998 82.49532879139004 l -1.855447080009572 -2.799637506905216 a24.35866849164762,24.35866849164762 0 0,0 0.35149903623612144,-0.22862475074976107 l 1.8069810179891632 2.831161181814512" fill="#ff1b02" stroke="none" /><path d="M 88.70189139769569 82.29822771554957 l -3.439753160572345 -5.389373505469003 a27.39353177728231,27.39353177728231 0 0,0 0.3996596897829367,-0.2502668610772257 l 3.3464743184171657 5.447784707869158" fill="#ff4706" stroke="none" /><path d="M 89.00827224532344 82.1063720568725 l -2.0284609312239494 -3.3021674126752742 a24.875430733587745,24.875430733587745 0 0,0 0.3667798559187665,-0.22098075926324096 l 1.9713190090875339 3.3365947813971344" fill="#ff2303" stroke="none" /><line stroke="#e1ed5e" stroke-width="0.3" x1="56.762969772571076" x2="54.21961505331055" y1="26.818313649435495" y2="22.513508569990535" /><path d="M 56.25429882871897 25.957352633546506 a86.0,86.0 0 0,1 42.265352541879196,-11.944610805530505" fill="none" id="id12" stroke="none" /><text fill="#e1ed5e" style="font-size:6.75px; font-family:Arial;" text-anchor="middle"><textPath startOffset="22.20632615414155" xlink:href="#id12">December</textPath></text><path d="M 89.63071344664047 81.73862282372117 l -13.368715929176918 -23.5436799522269 a48.07447933549082,48.07447933549082 0 0,0 0.7231223786897755,-0.40241682083287506 l 12.961469461415097 23.77031217061996" fill="#b0ff20" stroke="none" /><path d="M 89.94658935756843 81.56283822128135 l -1.7584053312491477 -3.224776617396841 a24.673033288860154,24.673033288860154 0 0,0 0.3746247086345275,-0.20011154527730432 l 1.702635576086315 3.2545668891758948" fill="#ff2003" stroke="none" /><path d="M 90.91171255644093 81.06846463323043 l -2.1206424627757063 -4.417445864651218 a25.90009718495986,25.90009718495986 0 0,0 0.40357505373221625,-0.1894838990779428 l 2.0442891977438817 4.453294746369169" fill="#ff3204" stroke="none" /><path d="M 91.23893434514133 80.91482961587045 l -2.031908212974711 -4.42632391734543 a25.87042035220968,25.87042035220968 0 0,0 0.406310820711421,-0.18229982157706914 l 1.9554152737965151 4.460644069439028" fill="#ff3104" stroke="none" /><path d="M 91.90106846888425 80.62456947434976 l -2.8166556808621177 -6.738409412346718 a28.30340404420676,28.30340404420676 0 0,0 0.4511240894834985,-0.18402484315162643 l 2.7002477217902388 6.785895141681921" fill="#ff5407" stroke="none" /><path d="M 92.23578459929587 80.48803036053334 l -3.320504544504713 -8.344640187881863 a29.981022786703612,29.981022786703612 0 0,0 0.48114806712606834,-0.18667797496119656 l 3.1763733123789684 8.400560866733612" fill="#ff6b09" stroke="none" /><path d="M 92.91201910852362 80.23233633223022 l -3.7224062672122837 -10.381415561311407 a32.02860360493657,32.02860360493657 0 0,0 0.5205685140518279,-0.1816161329219682 l 3.5431557490971706 10.443952547405585" fill="#ff870c" stroke="none" /><path d="M 93.59665428221793 80.00007090966166 l -0.4580717833020434 -1.4307213116550153 a22.502262703484767,22.502262703484767 0 0,0 0.36991001106422683,-0.11493284106732186 l 0.43337639952708784 1.4383942876048623" fill="#ff0000" stroke="none" /><path d="M 94.28887869178378 79.79150937346287 l -3.7105151082816583 -13.129454924632693 a34.64369850834986,34.64369850834986 0 0,0 0.5752538473789796,-0.15723860682865312 l 3.483963371678956 13.191380072287641" fill="#ffa90f" stroke="none" /><path d="M 94.63758080256005 79.69619591428918 l -4.340826133686699 -16.4357317366357 a37.99929555133245,37.99929555133245 0 0,0 0.633848355612543,-0.16158205906799208 l 4.057268889389157 16.508016791872553" fill="#ffd513" stroke="none" /><path d="M 96.04723909329186 79.375362276772 l -0.5964359143479274 -3.112071523899166 a24.168710300704078,24.168710300704078 0 0,0 0.4092624428371966,-0.07479009548879802 l 0.5427783504078375 3.1218771007387005" fill="#ff1902" stroke="none" /><path d="M 96.75951476605007 79.25152402106235 l -9.72145570184976 -62.24542793681294 a84.0,84.0 0 0,0 1.430524078285405,-0.2108220633561242 l 8.648562643135705 62.403544484330034" fill="#4dd2ff" stroke="none" /><path d="M 97.83486435360386 79.11191278185805 l -0.6459179866665639 -6.2314761958287335 a27.264862777801245,27.264862777801245 0 0,0 0.46723519176492234,-0.04436961139522284 l 0.5385576678114052 6.241671351739137" fill="#ff4506" stroke="none" /><path d="M 98.55514903715128 79.0497635885617 l -0.13373084129347898 -1.9390877070635797 a22.943693667633394,22.943693667633394 0 0,0 0.3942359721466738,-0.023781390451625983 l 0.10033282030718219 1.941102366895512" fill="#ff0701" stroke="none" /><path d="M 99.27714615592234 79.0124445844662 l -0.43853575070531464 -12.732578577297668 a33.74012836794458,33.74012836794458 0 0,0 0.5806087484419451,-0.014995411009594985 l 0.21930036706849051 12.738240780449622" fill="#ff9e0e" stroke="none" /><path d="M 99.63851952072746 79.00311137660856 l -0.08019553809240176 -4.658223273377783 a25.65891354169278,25.65891354169278 0 0,0 0.44167601736493634,-0.0038016449235551103 l 1.1411047112676643e-15 4.65891354169278" fill="#ff2e04" stroke="none" /></svg>