<?xml version="1.0" encoding="utf-8" ?>
<svg baseProfile="full" height="200mm" version="1.1" viewBox="0,0,200,200" width="200mm" xmlns="http://www.w3.org/2000/svg" xmlns:ev="http://www.w3.org/2001/xml-events" xmlns:xlink="http://www.w3.org/1999/xlink"><defs /><rect fill="#1a1a1a" height="200" width="200" x="0" y="0" /><text alignment-baseline="middle" fill="#e1ed5e" style="dominant-baseline: central; font-size:9.0px; font-family:Arial;" text-anchor="middle" x="100.0" y="100.0">2024</text><line stroke="#e1ed5e" stroke-width="0.3" x1="100.0" x2="100.0" y1="15.0" y2="10.0" /><path d="M 100.0 14.0 a86.0,86.0 0 0,1 42.35913384403234,11.155469271406648" fill="none" id="id85" stroke="none" /><text fill="#e1ed5e" style="font-size:6.75px; font-family:Arial;" text-anchor="middle"><textPath startOffset="22.145653131862478" xlink:href="#id85">January</textPath></text><path d="M 100.36049292484886 79.00309439819443 l 0.24834721486376315 -14.46498021882696 a35.46711198097899,35.46711198097899 0 0,0 0.608660711728901,0.015676940865954704 l -0.49662124066340557 14.458585560610961" fill="#ffaf10" stroke="none" /><path d="M 102.15924093988457 79.11130261209362 l 6.477722819653705 -62.666092163719114 a84.0,84.0 0 0,0 1.4330563935968135,0.16057695797211657 l -7.552515114851315 62.54565944524002" fill="#4dd2ff" stroke="none" /><path d="M 102.87502721639298 79.19773525538626 l 3.9188176483385826 -28.354612346550052 a49.624136198042,49.624136198042 0 0,0 0.8428420732260303,0.12386875990340189 l -4.404984827172295 28.283162513347765" fill="#a2ff22" stroke="none" /><path d="M 103.23170211078529 79.25015418208739 l 1.125014088880534 -7.223397481266614 a28.310480686832335,28.310480686832335 0 0,0 0.479555946651801,0.07891074852911407 l -1.2488475385854054 7.203020734241832" fill="#ff4d07" stroke="none" /><path d="M 103.58742460773223 79.30868818359171 l 3.406413534219145 -19.64728804620574 a40.940400716552574,40.940400716552574 0 0,0 0.6914351489839405,0.12600251706154317 l -3.7431834167541393 19.585917355212832" fill="#fff517" stroke="none" /><path d="M 103.94208987418118 79.37332000966035 l 0.6875583902010614 -3.5975960320529685 a24.662708526456772,24.662708526456772 0 0,0 0.4151597209727668,0.08304357142065745 l -0.7492145967047851 3.585263063969452" fill="#ff1802" stroke="none" /><path d="M 104.64783097203109 79.52079915486377 l 0.44893781354878404 -1.9781028410816281 a23.02840725948444,23.02840725948444 0 0,0 0.3847584599017192,0.09080194889383437 l -0.48282842719038815 1.9701047485415664" fill="#ff0000" stroke="none" /><path d="M 107.40779381753099 80.34994680014964 l 4.455982125034141 -11.82002198917665 a33.632050368932326,33.632050368932326 0 0,0 0.5384775334880901,0.20829467776811764 l -4.658231921015757 11.741787423270495" fill="#ff960d" stroke="none" /><path d="M 107.74402155503746 80.48000691201159 l 3.4346347907162795 -8.657523342110832 a30.313937221432866,30.313937221432866 0 0,0 0.482057338040504,0.1960485227583744 l -3.582746589947223 8.597287562773165" fill="#ff6909" stroke="none" /><path d="M 110.34350942703115 81.72400993836675 l 4.76803505572947 -8.424661079179034 a30.68034465252654,30.68034465252654 0 0,0 0.456125461388465,0.26334415791687255 l -4.911952984978332 8.34157002398599" fill="#ff6e0a" stroke="none" /><line stroke="#e1ed5e" stroke-width="0.3" x1="143.13028292997686" x2="145.6673583964461" y1="26.7553504044142" y2="22.446841604673864" /><path d="M 143.63769802327073 25.89364864446614 a86.0,86.0 0 0,1 29.32050498858742,28.57503671076993" fill="none" id="id86" stroke="none" /><text fill="#e1ed5e" style="font-size:6.75px; font-family:Arial;" text-anchor="middle"><textPath startOffset="20.669276256404974" xlink:href="#id86">February</textPath></text><path d="M 112.45986205192187 83.09580414077388 l 4.76296033668274 -6.461870449728751 a29.02755011680965,29.02755011680965 0 0,0 0.3985717769249999,0.29909569192465857 l -4.873185102518506 6.379155730540078" fill="#ff5708" stroke="none" /><path d="M 113.03279911837588 83.53348406188908 l 10.092498224558017 -12.751541810824044 a37.26223659174532,37.26223659174532 0 0,0 0.49815924847488374,0.40128182772842386 l -10.309908243388161 12.576411689302212" fill="#ffc612" stroke="none" /><line stroke="#e1ed5e" stroke-width="0.3" x1="172.87174338648825" x2="177.1583165268699" y1="56.24261187166439" y2="53.66864786411523" /><path d="M 173.72905801456457 55.72781907015455 a86.0,86.0 0 0,1 12.242430191666344,42.057860355516425" fill="none" id="id87" stroke="none" /><text fill="#e1ed5e" style="font-size:6.75px; font-family:Arial;" text-anchor="middle"><textPath startOffset="22.145653131862474" xlink:href="#id87">March</textPath></text><line stroke="#e1ed5e" stroke-width="0.3" x1="184.99686870605535" x2="189.99668451229388" y1="99.2704041080226" y2="99.22748670261217" /><path d="M 185.99683186730306 99.26182062694052 a86.0,86.0 0 0,1 -10.086455211305974,41.156179273409016" fill="none" id="id88" stroke="none" /><text fill="#e1ed5e" style="font-size:6.75px; font-family:Arial;" text-anchor="middle"><textPath startOffset="21.40746469413373" xlink:href="#id88">April</textPath></text><line stroke="#e1ed5e" stroke-width="0.3" x1="174.33088141563837" x2="178.70328620479359" y1="141.23008692659167" y2="143.65538615756765" /><path d="M 175.20536237346943 141.71514677278685 a86.0,86.0 0 0,1 -30.301960400862466,31.631185727798858" fill="none" id="id89" stroke="none" /><text fill="#e1ed5e" style="font-size:6.75px; font-family:Arial;" text-anchor="middle"><textPath startOffset="22.145653131862474" xlink:href="#id89">May</textPath></text><line stroke="#e1ed5e" stroke-width="0.3" x1="143.1302829299769" x2="145.66735839644613" y1="173.24464959558577" y2="177.55315839532614" /><path d="M 143.63769802327073 174.10635135553383 a86.0,86.0 0 0,1 -40.68552437913181,11.842963189579606" fill="none" id="id90" stroke="none" /><text fill="#e1ed5e" style="font-size:6.75px; font-family:Arial;" text-anchor="middle"><textPath startOffset="21.407464694133747" xlink:href="#id90">June</textPath></text><line stroke="#e1ed5e" stroke-width="0.3" x1="101.45913802915013" x2="101.54496967792366" y1="184.9874750549273" y2="189.98673829345242" /><path d="M 101.47630435890484 185.9873277026323 a86.0,86.0 0 0,1 -42.54439059252881,-10.42667462771756" fill="none" id="id91" stroke="none" /><text fill="#e1ed5e" style="font-size:6.75px; font-family:Arial;" text-anchor="middle"><textPath startOffset="22.145653131862474" xlink:href="#id91">July</textPath></text><line stroke="#e1ed5e" stroke-width="0.3" x1="58.13341422392154" x2="55.67067388415222" y1="173.97424548756322" y2="178.32567169271397" /><path d="M 57.64086615596768 174.84453072859336 a86.0,86.0 0 0,1 -31.369924170532247,-30.572349798747897" fill="none" id="id92" stroke="none" /><text fill="#e1ed5e" style="font-size:6.75px; font-family:Arial;" text-anchor="middle"><textPath startOffset="22.145653131862474" xlink:href="#id92">August</textPath></text><line stroke="#e1ed5e" stroke-width="0.3" x1="26.387840678322732" x2="22.057713659400548" y1="142.50000000000003" y2="145.00000000000006" /><path d="M 25.521815274538298 143.00000000000003 a86.0,86.0 0 0,1 -11.493303480769221,-40.785679425670985" fill="none" id="id93" stroke="none" /><text fill="#e1ed5e" style="font-size:6.75px; font-family:Arial;" text-anchor="middle"><textPath startOffset="21.40746469413373" xlink:href="#id93">September</textPath></text><line stroke="#e1ed5e" stroke-width="0.3" x1="15.003131293944662" x2="10.003315487706104" y1="100.72959589197737" y2="100.7725132973878" /><path d="M 14.003168132696942 100.73817937305945 a86.0,86.0 0 0,1 10.791469493833604,-42.45332614584628" fill="none" id="id94" stroke="none" /><text fill="#e1ed5e" style="font-size:6.75px; font-family:Arial;" text-anchor="middle"><textPath startOffset="22.145653131862435" xlink:href="#id94">October</textPath></text><line stroke="#e1ed5e" stroke-width="0.3" x1="26.387840678322718" x2="22.05771365940052" y1="57.49999999999999" y2="54.99999999999999" /><path d="M 25.521815274538284 56.99999999999999 a86.0,86.0 0 0,1 29.574782752854787,-30.34633250058573" fill="none" id="id95" stroke="none" /><text fill="#e1ed5e" style="font-size:6.75px; font-family:Arial;" text-anchor="middle"><textPath startOffset="21.40746469413373" xlink:href="#id95">November</textPath></text><line stroke="#e1ed5e" stroke-width="0.3" x1="56.869717070023135" x2="54.33264160355391" y1="26.7553504044142" y2="22.446841604673864" /><path d="M 56.362301976729285 25.89364864446614 a86.0,86.0 0 0,1 42.16139366436587,-11.88097634709845" fill="none" id="id96" stroke="none" /><text fill="#e1ed5e" style="font-size:6.75px; font-family:Arial;" text-anchor="middle"><textPath startOffset="22.145653131862474" xlink:href="#id96">December</textPath></text></svg>