<?xml version="1.0" encoding="utf-8" ?>
<svg baseProfile="full" height="200mm" version="1.1" viewBox="0,0,200,200" width="200mm" xmlns="http://www.w3.org/2000/svg" xmlns:ev="http://www.w3.org/2001/xml-events" xmlns:xlink="http://www.w3.org/1999/xlink"><defs /><rect fill="#1a1a1a" height="200" width="200" x="0" y="0" /><text alignment-baseline="middle" fill="#e1ed5e" style="dominant-baseline: central; font-size:9.0px; font-family:Arial;" text-anchor="middle" x="100.0" y="100.0">2021</text><line stroke="#e1ed5e" stroke-width="0.3" x1="100.0" x2="100.0" y1="15.0" y2="10.0" /><path d="M 100.0 14.0 a86.0,86.0 0 0,1 42.46469731375804,11.215312516191453" fill="none" id="id49" stroke="none" /><text fill="#e1ed5e" style="font-size:6.75px; font-family:Arial;" text-anchor="middle"><textPath startOffset="22.20632615414155" xlink:href="#id49">January</textPath></text><path d="M 100.72285384407766 79.0124445844662 l 1.0638985928479647 -30.889550988548372 a51.907866967650705,51.907866967650705 0 0,0 0.8927143822134306,0.03844215917269622 l -1.5954538074507267 30.86666110285148" fill="#89ff24" stroke="none" /><path d="M 103.2404852339499 79.25152402106235 l 1.574207434168563 -10.079479699988793 a31.20166849433355,31.20166849433355 0 0,0 0.5299392319840759,0.08744451397192876 l -1.7474758722915142 10.05088892307724" fill="#ff750a" stroke="none" /><path d="M 104.66035177308747 79.52364482259891 l 3.232427346447698 -14.202432274153745 a35.56563314971192,35.56563314971192 0 0,0 0.5957689190594815,0.1409992546196072 l -3.476419952469703 14.14468710739327" fill="#ffb010" stroke="none" /><path d="M 105.36241919743992 79.69619591428918 l 4.060720061325153 -15.375162130447224 a36.90236013785334,36.90236013785334 0 0,0 0.6127586129855359,0.1674900760196521 l -4.3247765635343995 15.302985513601278" fill="#ffc212" stroke="none" /><path d="M 106.74666289553966 80.11325718540242 l 1.6004459221766572 -4.717540647249547 a25.98162793755852,25.98162793755852 0 0,0 0.42228557994386356,0.1473271470476956 l -1.6814135061837945 4.689292647029644" fill="#ff2c04" stroke="none" /><path d="M 107.76421540070413 80.48803036053334 l 6.7121454543837 -16.86805060943331 a39.154449260806764,39.154449260806764 0 0,0 0.6240774164273839,0.25457684781145545 l -7.0015067403994715 16.750012875438276" fill="#ffdf14" stroke="none" /><path d="M 108.09893153111575 80.62456947434976 l 8.511181662469593 -20.361674667676734 a43.0689376401282,43.0689376401282 0 0,0 0.6815479767871738,0.29180327512278886 l -8.86041339704708 20.212151864591156" fill="#efff19" stroke="none" /><path d="M 108.43124777332544 80.76684994638697 l 12.432034748104048 -28.359644528357673 a51.964898284232646,51.964898284232646 0 0,0 0.8161406031521361,0.3661784987068009 l -12.918357469722965 28.14144569913434" fill="#88ff25" stroke="none" /><path d="M 109.08828744355905 81.06846463323043 l 2.1372748461602002 -4.45209227699598 a25.938529073612543,25.938529073612543 0 0,0 0.4008475226605979,0.1966941385078778 l -2.21359363583123 4.41464297835327" fill="#ff2b04" stroke="none" /><path d="M 109.73455568895987 81.39251694778311 l 6.158156468779049 -11.771240083988841 a34.284765116812224,34.284765116812224 0 0,0 0.5205651041004259,0.27806785029922354 l -6.359866619407787 11.663493507187864" fill="#ff9f0e" stroke="none" /><path d="M 110.05341064243156 81.56283822128135 l 24.0106249342279 -44.03359139157032 a71.1544343061702,71.1544343061702 0 0,0 1.0702843691916928,0.5956120926828773 l -24.765033392491627 43.61376390132727" fill="#3dffab" stroke="none" /><path d="M 110.36928655335952 81.73862282372117 l 12.730042368486647 -22.41891030445366 a46.78103019552562,46.78103019552562 0 0,0 0.6968218620856454,0.4036441992590381 l -13.11406096303762 22.196461947804572" fill="#c3ff1e" stroke="none" /><line stroke="#e1ed5e" stroke-width="0.3" x1="143.23703022742887" x2="145.7803849466894" y1="26.81831364943548" y2="22.513508569990506" /><path d="M 143.74570117128098 25.957352633546492 a86.0,86.0 0 0,1 28.547481713284135,27.462654790039103" fill="none" id="id50" stroke="none" /><text fill="#e1ed5e" style="font-size:6.75px; font-family:Arial;" text-anchor="middle"><textPath startOffset="19.985693538727396" xlink:href="#id50">February</textPath></text><path d="M 111.2981086023043 82.29822771554956 l 6.200286216699249 -9.7145512200194 a32.52458478971677,32.52458478971677 0 0,0 0.4693343649504398,0.30526812634846795 l -6.366587607433969 9.606384169511404" fill="#ff880c" stroke="none" /><path d="M 111.60114157652 82.49532879139004 l 8.19844836579563 -12.370432867958082 a35.84055810767488,35.84055810767488 0 0,0 0.511317283757569,0.34524371246428315 l -8.41017034395974 12.227477243195128" fill="#ffb410" stroke="none" /><path d="M 112.19680574252982 82.90503203632743 l 15.962372944168658 -22.372763809236336 a48.483411550835584,48.483411550835584 0 0,0 0.6752000374851755,0.49056154214379094 l -16.345118298007623 22.09468303227587" fill="#afff20" stroke="none" /><path d="M 112.48926042617603 83.11751280151076 l 18.137509658414963 -24.517566626995233 a51.497218396408655,51.497218396408655 0 0,0 0.708096184890836,0.5333233660863416 l -18.556851997064182 24.201726671403044" fill="#8dff24" stroke="none" /><path d="M 113.6212207817346 84.01681056812373 l 11.452831882352738 -13.438794102254088 a38.656968738948784,38.656968738948784 0 0,0 0.5027360899107185,0.43596778312688084 l -11.682461770910221 13.239661325707536" fill="#ffd814" stroke="none" /><path d="M 113.89432698308785 84.25364557470407 l 26.11696820375047 -29.59819776452713 a60.47340039905065,60.47340039905065 0 0,0 0.7746038214310903,0.695446959021995 l -26.62258301277755 29.144251796735833" fill="#30ff2f" stroke="none" /><path d="M 114.16331599549186 84.49514656593476 l 16.151694230897377 -17.68156919196126 a44.948175621924044,44.948175621924044 0 0,0 0.5667582163090545,0.5267399945174833 l -16.453660331001277 17.400924611369135" fill="#d8ff1c" stroke="none" /><path d="M 114.42810811169701 84.74124197986012 l 16.324705413885955 -17.264545547632103 a44.760482735340645,44.760482735340645 0 0,0 0.555278846502538,0.534177810388588 l -16.619467504000912 16.98098465048121" fill="#daff1b" stroke="none" /><path d="M 114.68862486808459 84.99185889309783 l 12.6406117726498 -12.915578338017404 a39.072001266941,39.072001266941 0 0,0 0.47661180668606196,0.4745650841214186 l -12.861059379503184 12.696077403245868" fill="#ffde14" stroke="none" /><path d="M 114.94478906791727 85.2469230424477 l 12.788296808728685 -12.624248232463525 a38.9697573356737,38.9697573356737 0 0,0 0.4671466931527136,0.48143573064749234 l -13.003707765584508 12.402248306265918" fill="#ffdc14" stroke="none" /><path d="M 117.2510076193507 88.02491185347247 l 15.428909530648344 -10.71024694389804 a39.7819231950354,39.7819231950354 0 0,0 0.38564887005498766,0.5658921302345639 l -15.610982866372066 10.443076790393071" fill="#ffe715" stroke="none" /><path d="M 117.65298651832404 88.62581576622439 l 8.39267679654443 -5.4075751997737855 a30.983931758203468,30.983931758203468 0 0,0 0.28501145597540173,0.4508196777038848 l -8.484515848765788 5.262307874355695" fill="#ff720a" stroke="none" /><line stroke="#e1ed5e" stroke-width="0.3" x1="172.23445277983987" x2="176.4835382374775" y1="55.19839476539836" y2="52.563006222186495" /><path d="M 173.08426987136738 54.67131705675599 a86.0,86.0 0 0,1 12.851231095245387,41.99856678651699" fill="none" id="id51" stroke="none" /><text fill="#e1ed5e" style="font-size:6.75px; font-family:Arial;" text-anchor="middle"><textPath startOffset="22.20632615414155" xlink:href="#id51">March</textPath></text><path d="M 118.03404312379186 89.2402003453031 l 11.199079241862103 -6.681798869635542 a34.040928341179146,34.040928341179146 0 0,0 0.2958972447967192,0.5057843078587455 l -11.31243616112915 6.488035149422901" fill="#ff9c0e" stroke="none" /><path d="M 118.3937258080291 89.86733742301442 l 10.382309610938558 -5.719365459471705 a32.85341698061724,32.85341698061724 0 0,0 0.26860312421764465,0.49768079543060284 l -10.479220834374667 5.539803680708643" fill="#ff8c0c" stroke="none" /><path d="M 120.18372546131832 94.20196356495316 l 10.473076688657692 -3.008526862112346 a31.896631094359243,31.896631094359243 0 0,0 0.1470483744903942,0.5290112413895672 l -10.523311833714448 2.827804317303827" fill="#ff7f0b" stroke="none" /><path d="M 120.37134235888165 94.90015583598534 l 20.601644976159285 -5.157499051846258 a42.23740973361639,42.23740973361639 0 0,0 0.17049271177881284,0.706802359849788 l -20.68737048819892 4.802111460337064" fill="#f9ff18" stroke="none" /><path d="M 120.45610955862082 95.25157060432595 l 22.50317817629667 -5.22361069890663 a44.10149641836837,44.10149641836837 0 0,0 0.1652873957016727,0.7409509853292591 l -22.589759959000382 4.835481544027408" fill="#e2ff1b" stroke="none" /><path d="M 120.96714384426684 98.82574320788733 l 14.12104181965058 -0.7908434926374465 a35.1431699241071,35.1431699241071 0 0,0 0.028627277744694285,0.6042765875074148 l -14.132562705628771 0.5476557985070319" fill="#ffab0f" stroke="none" /><path d="M 120.98425023603335 99.18683210126433 l 16.04213007372607 -0.6216541004117373 a37.054170521173155,37.054170521173155 0 0,0 0.019212244301293473,0.6375608557954496 l -16.05045401248301 0.3454230971912886" fill="#ffc412" stroke="none" /><line stroke="#e1ed5e" stroke-width="0.3" x1="184.98032266829074" x2="189.97916517819016" y1="98.17113171792111" y2="98.06355123074" /><path d="M 185.9800911702706 98.14961562048488 a86.0,86.0 0 0,1 -9.607161424134198,41.387399972396054" fill="none" id="id52" stroke="none" /><text fill="#e1ed5e" style="font-size:6.75px; font-family:Arial;" text-anchor="middle"><textPath startOffset="21.466115282336823" xlink:href="#id52">April</textPath></text><path d="M 120.99513854157772 99.54816195383933 l 23.741859415551666 -0.5109504445183802 a44.74735688165259,44.74735688165259 0 0,0 0.0099445521937007,0.7702165266831452 l -23.747136974863082 0.10219765977477228" fill="#dbff1b" stroke="none" /><path d="M 120.99980553446 99.90962569577887 l 16.572226293571443 -0.07131987094923113 a37.57237975817996,37.57237975817996 0 0,0 -0.0027834025252201277,0.6467647220911328 l -16.570998593756723 -0.2139543293455864" fill="#ffca12" stroke="none" /><path d="M 120.99824983174949 100.27111621757518 l 24.11632023916 0.3113747849207391 a45.118330293252114,45.118330293252114 0 0,0 -0.01671083546562115,0.7764868601203185 l -24.10738734100937 -0.7264514608311724" fill="#d6ff1c" stroke="none" /><path d="M 120.9764740272857 100.99374915477107 l 27.63679428692873 1.3092782384442982 a48.66779008095298,48.66779008095298 0 0,0 -0.04684541103694122,0.8364562830317271 l -27.61016252500426 -1.7848062378114486" fill="#adff20" stroke="none" /><path d="M 120.95626037817324 101.35467743843564 l 10.466774028594196 0.6766046219061473 a31.48862013708375,31.48862013708375 0 0,0 -0.039620843187294655,0.5405949263841641 l -10.453576626742564 -0.8566726847870817" fill="#ff790b" stroke="none" /><path d="M 120.81339534386255 102.79330883721812 l 62.44018603158764 8.379926511654341 a84.0,84.0 0 0,0 -0.20466379593359463,1.4314181120783627 l -62.28668818463745 -9.453490095713112" fill="#4dd2ff" stroke="none" /><path d="M 120.76222939487914 103.15116336523771 l 9.664639282151612 1.4668394547102368 a30.77531945462667,30.77531945462667 0 0,0 -0.08399939619571954,0.5230643202944308 l -9.637958131594603 -1.6329830046978726" fill="#ff700a" stroke="none" /><path d="M 120.64145759157962 103.86396538481128 l 16.154234123619933 3.023982254880473 a37.43483339734719,37.43483339734719 0 0,0 -0.12401637469039482,0.6323568227241602 l -16.099787815953874 -3.3016028046725783" fill="#ffc912" stroke="none" /><path d="M 120.5718875245553 104.21870165774334 l 30.021988113751128 6.156645124228605 a51.646762463397366,51.646762463397366 0 0,0 -0.18609056802682436,0.8693531810812716 l -29.911563506999858 -6.672512124726047" fill="#8bff24" stroke="none" /><path d="M 120.49622156327973 104.57218783832717 l 14.902727091715045 3.324420911253318 a36.26902253470457,36.26902253470457 0 0,0 -0.14117187505898943,0.6081647429428892 l -14.843294650725504 -3.5804543115447722" fill="#ffb911" stroke="none" /><path d="M 120.41448212921028 104.9243191809786 l 11.324242716012698 2.7315993255948308 a32.64903892888837,32.64903892888837 0 0,0 -0.13648648652840498,0.5451956677519912 l -11.275544915189231 -2.926122832744218" fill="#ff890c" stroke="none" /><path d="M 119.54520255179757 107.68017299344265 l 15.496151568286527 6.089122098461062 a37.64956820332815,37.64956820332815 0 0,0 -0.24220753517179214,0.6011392390010017 l -15.38904141885734 -6.354960705304877" fill="#ffcb13" stroke="none" /><path d="M 118.81262510543309 109.33194174019688 l 6.716949281521554 3.331920931593635 a28.49794003343083,28.49794003343083 0 0,0 -0.22177006041020964,0.43757336852042616 l -6.658600551325075 -3.4470485118167553" fill="#ff5007" stroke="none" /><line stroke="#e1ed5e" stroke-width="0.3" x1="174.80103733775053" x2="179.2010983576182" y1="140.37084112569926" y2="142.7455964860345" /><path d="M 175.68104954172406 140.8457921977663 a86.0,86.0 0 0,1 -30.038265399797805,32.042727171017184" fill="none" id="id53" stroke="none" /><text fill="#e1ed5e" style="font-size:6.75px; font-family:Arial;" text-anchor="middle"><textPath startOffset="22.206326154141568" xlink:href="#id53">May</textPath></text><path d="M 116.71984013943494 112.70617746262583 l 6.4487923483591905 4.900734655029104 a29.099637208619857,29.099637208619857 0 0,0 -0.306506731998769,0.39620126863167704 l -6.363478799142353 -5.011013917774034" fill="#ff5808" stroke="none" /><path d="M 114.81725581225074 114.88116024355365 l 6.2699306375835615 6.2969718358175975 a29.88616252952809,29.88616252952809 0 0,0 -0.36767102441944455,0.35984348188716486 l -6.160609660788323 -6.403965420627334" fill="#ff6309" stroke="none" /><path d="M 114.55890576462653 115.13401014063108 l 11.084126053541528 11.521970044060776 a36.98792181826744,36.98792181826744 0 0,0 -0.4626381724768218,0.43745326849559285 l -10.884152046673899 -11.71105794930229" fill="#ffc312" stroke="none" /><path d="M 114.29624159901734 115.38237550388516 l 9.447317434518789 10.165062144176257 a34.877330258501736,34.877330258501736 0 0,0 -0.4432750075898615,0.40492120948435073 l -9.270942877462064 -10.32617612024719" fill="#ffa70f" stroke="none" /><path d="M 113.75828350139079 115.86535959552629 l 11.56923407959912 13.341058054160827 a38.65873741786335,38.65873741786335 0 0,0 -0.5064930140760431,0.4316443347268805 l -11.33787558894603 -13.538226779110653" fill="#ffd814" stroke="none" /><line stroke="#e1ed5e" stroke-width="0.3" x1="143.8653032363475" x2="146.44561519142675" y1="172.8068346515853" y2="177.08958963109032" /><path d="M 144.38136562736335 173.6633856474863 a86.0,86.0 0 0,1 -40.68145358897372,12.25698825130547" fill="none" id="id54" stroke="none" /><text fill="#e1ed5e" style="font-size:6.75px; font-family:Arial;" text-anchor="middle"><textPath startOffset="21.466115282336833" xlink:href="#id54">June</textPath></text><path d="M 108.92500713936063 119.00905698771935 l 10.096792045152878 21.50480020716398 a44.75713874929181,44.75713874929181 0 0,0 -0.7001977379533587,0.3214264389640486 l -9.725126311432101 -21.675413716462103" fill="#daff1b" stroke="none" /><path d="M 105.53697534728816 120.25689768951611 l 3.880186850115337 14.1955748597451 a35.716324119508755,35.716324119508755 0 0,0 -0.5944379346385971,0.15699646130036726 l -3.6352584726652424 -14.260262670349052" fill="#ffb210" stroke="none" /><path d="M 104.83641907484287 120.43548508189849 l 4.238452619660452 17.90887719592804 a39.40359646992777,39.40359646992777 0 0,0 -0.6613797046240042,0.15052786750497282 l -3.929552765643586 -17.979181797010696" fill="#ffe215" stroke="none" /><path d="M 103.06178313531738 120.77559828337769 l 0.46557744525711436 3.1591558072451242 a24.193278530285564,24.193278530285564 0 0,0 -0.41252006319756,0.05717152186780526 l -0.4111287908727239 -3.166701894605532" fill="#ff1202" stroke="none" /><path d="M 102.70371172650421 120.8252237178851 l 1.058099499365364 8.149966053724414 a29.218364875534398,29.218364875534398 0 0,0 -0.49931761414800313,0.06046040938933929 l -0.9176544621659807 -8.166971991839103" fill="#ff5a08" stroke="none" /><path d="M 102.34483914955558 120.86867818915974 l 2.331685800360252 20.75161557037877 a41.882200732978035,41.882200732978035 0 0,0 -0.7171178174285636,0.07433219389432331 l -1.9741353863260858 -20.788677132728854" fill="#fdff18" stroke="none" /><path d="M 101.98527174616119 120.90594882070398 l 1.6647759985489194 17.530961134614486 a38.609829000552736,38.609829000552736 0 0,0 -0.662169014551261,0.05713472883738676 l -1.3627626662561168 -17.557020115730538" fill="#ffd814" stroke="none" /><path d="M 101.26447882468166 120.96189622390904 l 0.4548321336951746 7.53997915957005 a28.55368506072317,28.55368506072317 0 0,0 -0.49086766655642106,0.02537225147068206 l -0.32497639872527395 -7.546691217802934" fill="#ff5107" stroke="none" /><line stroke="#e1ed5e" stroke-width="0.3" x1="102.19456741930631" x2="102.32365962044197" y1="184.97166512339345" y2="189.96999836594603" /><path d="M 102.22038585953345 185.97133177190398 a86.0,86.0 0 0,1 -42.740103519485714,-10.115201625700543" fill="none" id="id55" stroke="none" /><text fill="#e1ed5e" style="font-size:6.75px; font-family:Arial;" text-anchor="middle"><textPath startOffset="22.20632615414155" xlink:href="#id55">July</textPath></text><path d="M 95.16358092515715 120.4354850818985 l -1.901873519493029 8.036050502203523 a29.258040358227507,29.258040358227507 0 0,0 -0.48909233155268317,-0.12020699553834276 l 2.0399191357889226 -8.002122248351151" fill="#ff5a08" stroke="none" /><path d="M 94.81253420990036 120.34920634021253 l -0.8633712615001587 3.3868020839784387 a24.495116348739348,24.495116348739348 0 0,0 -0.4076798699204257,-0.10767195899066224 l 0.9215415742320736 -3.371438775684195" fill="#ff1602" stroke="none" /><path d="M 93.42475214034765 119.94407469862007 l -2.388428335307582 7.24459277405761 a28.628152749835827,28.628152749835827 0 0,0 -0.46668015125548534,-0.1583232452852485 l 2.512778219500293 -7.202406541874239" fill="#ff5207" stroke="none" /><line stroke="#e1ed5e" stroke-width="0.3" x1="58.666819895761336" x2="56.23545636021788" y1="174.27360380694188" y2="178.64263932499728" /><path d="M 58.180547188652646 175.14741091055294 a86.0,86.0 0 0,1 -31.652253787137756,-30.449443065178592" fill="none" id="id56" stroke="none" /><text fill="#e1ed5e" style="font-size:6.75px; font-family:Arial;" text-anchor="middle"><textPath startOffset="22.20632615414155" xlink:href="#id56">August</textPath></text><path d="M 86.79598089348748 116.32954008644616 l -5.874209187536956 7.2646921842716505 a30.342488218411688,30.342488218411688 0 0,0 -0.4033092779066452,-0.33189607856131675 l 5.998388593988291 -7.162500986853153" fill="#ff6a09" stroke="none" /><path d="M 82.85270091963577 112.12312394758628 l -2.2344811036925742 1.5797759898889612 a23.736530281394458,23.736530281394458 0 0,0 -0.23300127711072346,-0.33565571773441205 l 2.2613432879654316 -1.5410790099675367" fill="#ff0b01" stroke="none" /><line stroke="#e1ed5e" stroke-width="0.3" x1="26.63291911575756" x2="22.317208475507996" y1="142.92168965132927" y2="145.44649492493687" /><path d="M 25.769776987707644 143.4266507060508 a86.0,86.0 0 0,1 -11.730757126820373,-40.83630448921669" fill="none" id="id57" stroke="none" /><text fill="#e1ed5e" style="font-size:6.75px; font-family:Arial;" text-anchor="middle"><textPath startOffset="21.46611528233685" xlink:href="#id57">September</textPath></text><path d="M 81.69416730710424 110.29060199501025 l -4.341771681480095 2.4407217675849044 a25.980773442033403,25.980773442033403 0 0,0 -0.21579332328505463,-0.3917275631702217 l 4.383141414216666 -2.36562368601686" fill="#ff2c04" stroke="none" /><path d="M 79.4281124754447 104.21870165774334 l -39.57480092893417 8.115651910135863 a61.39837465160276,61.39837465160276 0 0,0 -0.20340423998557838,-1.0371538375235676 l 39.70863510189541 -7.43323434554434" fill="#30ff3a" stroke="none" /><path d="M 79.10278846688536 102.07522291339032 l -9.072500471087707 0.900955652839653 a30.117125966348738,30.117125966348738 0 0,0 -0.04678968541077643,-0.5163202795863235 l 9.08666475277556 -0.7446539847047633" fill="#ff6609" stroke="none" /><path d="M 79.07016306316243 101.71520430193888 l -15.63249196917734 1.2810858276858281 a36.68489675019544,36.68489675019544 0 0,0 -0.04615910558017639,-0.6298043220613401 l 15.652227633421852 -1.0118083691277273" fill="#ffbf11" stroke="none" /><path d="M 79.0235259727143 100.99374915477108 l -3.6956082108911286 0.17507744777129877 a24.69975298650113,24.69975298650113 0 0,0 -0.01646399337681893,-0.42486251294562827 l 3.6980743371191487 -0.11143768781167371" fill="#ff1902" stroke="none" /><path d="M 79.0095281055655 100.63252640178507 l -3.646497960029593 0.10988348643965898 a24.64815319759082,24.64815319759082 0 0,0 -0.009129132881009258,-0.4241949327416392 l 3.6478491555956096 -0.04709873790789095" fill="#ff1802" stroke="none" /><line stroke="#e1ed5e" stroke-width="0.3" x1="15.007084014347285" x2="10.007500721073583" y1="101.09737516637583" y2="101.16192664675087" /><path d="M 14.007167355692545 101.11028546245083 a86.0,86.0 0 0,1 10.666146001902534,-42.60595125391555" fill="none" id="id58" stroke="none" /><text fill="#e1ed5e" style="font-size:6.75px; font-family:Arial;" text-anchor="middle"><textPath startOffset="22.20632615414155" xlink:href="#id58">October</textPath></text><path d="M 79.00175016825051 100.2711162175752 l -18.690634464429966 0.24132173684376132 a39.692192296881885,39.692192296881885 0 0,0 -0.0029404405305631792,-0.6832548240304709 l 18.69201920225003 0.08044256539038494" fill="#ffe515" stroke="none" /><path d="M 79.00019446554 99.90962569577889 l -5.606228782756411 -0.024126843685034018 a26.60628069839467,26.60628069839467 0 0,0 0.005912920125879525,-0.4579621800159608 l 5.604982855512816 0.12062528176146677" fill="#ff3505" stroke="none" /><path d="M 79.00486145842228 99.54816195383935 l -17.32926541094703 -0.37294449899320414 a38.33327803049309,38.33327803049309 0 0,0 0.01987544970060558,-0.6595694142607033 l 17.32027826679078 0.6711840606789019" fill="#ffd413" stroke="none" /><path d="M 79.01574976396665 99.18683210126434 l -4.045292472584355 -0.15676052004250168 a25.048328673587612,25.048328673587612 0 0,0 0.02040412016126071,-0.4306987276994715 l 4.041994744189595 0.22637035436498226" fill="#ff1e03" stroke="none" /><path d="M 79.03285615573316 98.82574320788736 l -9.98555365033704 -0.5592370751116715 a31.001201318338655,31.001201318338655 0 0,0 0.034425223471279257,-0.5325429701361072 l 9.974447835861348 0.7310391095007905" fill="#ff730a" stroke="none" /><path d="M 79.05617556472873 98.46500227214037 l -9.147297396397155 -0.6704162729649099 a30.17183229443225,30.17183229443225 0 0,0 0.04242090107641333,-0.5176424413345163 l 9.134402011501244 0.8277726315072046" fill="#ff6709" stroke="none" /><path d="M 79.08570108090925 98.10471618934814 l -25.490053698676657 -2.309945281677584 a46.59450497207875,46.59450497207875 0 0,0 0.07926141166744478,-0.7981515987224197 l 25.44651516132698 2.7483724111044334" fill="#c5ff1e" stroke="none" /><path d="M 79.16333360222342 97.38593545837743 l -16.279681971178178 -2.042367938198119 a37.40729447159657,37.40729447159657 0 0,0 0.08565201821981598,-0.6382070229599581 l 16.242113953900528 2.3222933032227364" fill="#ffc812" stroke="none" /><path d="M 79.26566170972629 96.67025291283419 l -21.456080521595293 -3.445652357871021 a42.73098965810078,42.73098965810078 0 0,0 0.122878329564348,-0.7252348568322142 l 21.393590330510722 3.8144730030190632" fill="#f3ff19" stroke="none" /><path d="M 79.32604984820605 96.31383870115002 l -9.306189942643007 -1.6592918602612055 a30.45295830552949,30.45295830552949 0 0,0 0.09645507030930767,-0.5152668424796596 l 9.276249148423839 1.8192367802034377" fill="#ff6b09" stroke="none" /><path d="M 79.3925641242962 95.95851677861259 l -10.424908685811161 -2.044509263176963 a31.623499387429614,31.623499387429614 0 0,0 0.10935813291175601,-0.5332690938281217 l 10.38817125698441 2.223654013168487" fill="#ff7b0b" stroke="none" /><path d="M 79.46518482838121 95.60439243477599 l -8.042375998472249 -1.7215216443788333 a29.22456372538187,29.22456372538187 0 0,0 0.1095303429811522,-0.4910030508425283 l 8.01155126848906 1.8597028647713207" fill="#ff5a08" stroke="none" /><path d="M 79.54389044137918 95.25157060432595 l -4.639658396862148 -1.07699317186447 a25.76301840557184,25.76301840557184 0 0,0 0.10399328224140066,-0.43111929260708215 l 4.620432314359933 1.156697696130949" fill="#ff2903" stroke="none" /><path d="M 79.62865764111835 94.90015583598534 l -30.33110211993073 -7.593210668663715 a52.26711697723944,52.26711697723944 0 0,0 0.2260021878141464,-0.870878621742464 l 30.195903600246275 8.114185715955042" fill="#85ff25" stroke="none" /><path d="M 79.81627453868168 94.20196356495316 l -5.6406979638644605 -1.6203635139736263 a26.868820276423673,26.868820276423673 0 0,0 0.13152172742770235,-0.44342588193319876 l 5.611970339325052 1.7172187826533643" fill="#ff3905" stroke="none" /><path d="M 79.91906864156998 93.8553929516997 l -7.148857943809403 -2.187494301173848 a28.476048502948256,28.476048502948256 0 0,0 0.14745781517363196,-0.46748157058213147 l 7.110144644867567 2.310226038182394" fill="#ff4f07" stroke="none" /><path d="M 80.14247586403 93.16781622104843 l -12.70917694087093 -4.372721994176349 a34.440382291911156,34.440382291911156 0 0,0 0.19769914195344193,-0.558922096755154 l 12.63202471810768 4.5908417173581135" fill="#ffa10e" stroke="none" /><path d="M 80.38941819471856 92.48833698450439 l -7.074534996968183 -2.7098391784706486 a28.575768858439524,28.575768858439524 0 0,0 0.1799000457226481,-0.4578259937281254 l 7.026841401363844 2.8312141770945374" fill="#ff5107" stroke="none" /><path d="M 80.52162464483688 92.15188598940014 l -11.584772991534823 -4.667669534378464 a33.4897599715751,33.4897599715751 0 0,0 0.22004098035542874,-0.5328466874246681 l 11.502710324293195 4.8663907922564436" fill="#ff950d" stroke="none" /><line stroke="#e1ed5e" stroke-width="0.3" x1="26.266209847984243" x2="21.928928074336255" y1="57.711370442889674" y2="55.22380399835377" /><path d="M 25.398753493254645 57.213857153982495 a86.0,86.0 0 0,1 29.58750427330803,-30.492523968695096" fill="none" id="id59" stroke="none" /><text fill="#e1ed5e" style="font-size:6.75px; font-family:Arial;" text-anchor="middle"><textPath startOffset="21.46611528233685" xlink:href="#id59">November</textPath></text><path d="M 82.7489923806493 88.02491185347247 l -1.634684421704321 -1.134744733386269 a22.989934362864933,22.989934362864933 0 0,0 0.22846234157462278,-0.3231437801442557 l 1.61490946032582 1.162715013862311" fill="#ff0000" stroke="none" /><line stroke="#e1ed5e" stroke-width="0.3" x1="56.762969772571076" x2="54.21961505331055" y1="26.818313649435495" y2="22.513508569990535" /><path d="M 56.25429882871897 25.957352633546506 a86.0,86.0 0 0,1 42.265352541879196,-11.944610805530505" fill="none" id="id60" stroke="none" /><text fill="#e1ed5e" style="font-size:6.75px; font-family:Arial;" text-anchor="middle"><textPath startOffset="22.20632615414155" xlink:href="#id60">December</textPath></text><path d="M 90.91171255644093 81.06846463323043 l -3.2641045411037064 -6.79935696846078 a28.542256535003965,28.542256535003965 0 0,0 0.444745154139497,-0.20881381324993767 l 3.146581175664601 6.854535764350726" fill="#ff5007" stroke="none" /><path d="M 92.91201910852362 80.23233633223022 l -5.308652021532471 -14.805294948957147 a36.72827214958264,36.72827214958264 0 0,0 0.5969533449673237,-0.20826530057291373 l 5.053016672501863 14.89448110270227" fill="#ffbf11" stroke="none" /><path d="M 98.55514903715128 79.0497635885617 l -0.5368366329410537 -7.7840930750815565 a28.802582814171224,28.802582814171224 0 0,0 0.49490785575203,-0.02985419339368957 l 0.4027667283494007 7.792180537855553" fill="#ff5407" stroke="none" /><path d="M 99.27714615592234 79.0124445844662 l -0.25365507138205917 -7.364697456724312 a28.369064358812413,28.369064358812413 0 0,0 0.48818210684367014,-0.012608303542265381 l 0.12684632934351 7.367972552408937" fill="#ff4e07" stroke="none" /><path d="M 99.63851952072746 79.00311137660856 l -0.5093570674915889 -29.586420924253176 a50.59080512134284,50.59080512134284 0 0,0 0.8708375467641174,-0.0074955736982241115 l 7.247656955209123e-15 29.59080512134284" fill="#97ff23" stroke="none" /></svg>