<?xml version="1.0" encoding="utf-8" ?>
<svg baseProfile="full" height="200mm" version="1.1" viewBox="0,0,200,200" width="200mm" xmlns="http://www.w3.org/2000/svg" xmlns:ev="http://www.w3.org/2001/xml-events" xmlns:xlink="http://www.w3.org/1999/xlink"><defs /><rect fill="#1a1a1a" height="200" width="200" x="0" y="0" /><text alignment-baseline="middle" fill="#e1ed5e" style="dominant-baseline: central; font-size:9.0px; font-family:Arial;" text-anchor="middle" x="100.0" y="100.0">2024</text><line stroke="#e1ed5e" stroke-width="0.3" x1="100.0" x2="100.0" y1="15.0" y2="10.0" /><path d="M 100.0 14.0 a86.0,86.0 0 0,1 42.35913384403234,11.155469271406648" fill="none" id="id85" stroke="none" /><text fill="#e1ed5e" style="font-size:6.75px; font-family:Arial;" text-anchor="middle"><textPath startOffset="22.145653131862478" xlink:href="#id85">January</textPath></text><path d="M 100.36049292484886 79.00309439819443 l 0.15649394206005585 -9.114987568943576 a30.11633088122066,30.11633088122066 0 0,0 0.5168345085062906,0.013311823600907402 l -0.31294176463708784 9.110958027992623" fill="#ff720a" stroke="none" /><path d="M 102.15924093988457 79.11130261209362 l 4.081883423480675 -39.488519336039126 a60.69892859556316,60.69892859556316 0 0,0 1.0355355679565266,0.1160339203100268 l -4.759154893037998 39.41262965522213" fill="#30ff36" stroke="none" /><path d="M 102.87502721639298 79.19773525538626 l 2.469410507943273 -17.86742430000896 a39.0372625243769,39.0372625243769 0 0,0 0.6630291184879678,0.09744244775607605 l -2.775764732038923 17.822400778954" fill="#ffe615" stroke="none" /><path d="M 103.23170211078529 79.25015418208739 l 0.7089183171979503 -4.551764140098002 a25.60663890136191,25.60663890136191 0 0,0 0.4337551204005161,0.07137423999872357 l -0.7869509406515369 4.53892390160361" fill="#ff3304" stroke="none" /><path d="M 103.58742460773223 79.30868818359171 l 2.1465232962210448 -12.38057595623466 a33.56527847957678,33.56527847957678 0 0,0 0.5668780207329611,0.10330405907796533 l -2.3587360505050596 12.341903723225329" fill="#ffa00e" stroke="none" /><path d="M 103.94208987418118 79.37332000966035 l 0.43325922917257614 -2.2669953649547967 a23.308025464415362,23.308025464415362 0 0,0 0.39235566271451333,0.07848212110410728 l -0.47211137741804643 2.2592238471878305" fill="#ff1202" stroke="none" /><path d="M 104.64783097203109 79.52079915486377 l 0.2828944476812925 -1.2464851340123841 a22.278184046936424,22.278184046936424 0 0,0 0.37222373595881125,0.08784378817359191 l -0.30425033737998874 1.2414452021925646" fill="#ff0300" stroke="none" /><path d="M 107.40779381753099 80.34994680014964 l 2.807900257219623 -7.448289030893819 a28.959981993838127,28.959981993838127 0 0,0 0.4636737725722106,0.1793589760780469 l -2.9353462922853595 7.398990166677733" fill="#ff6209" stroke="none" /><path d="M 107.74402155503746 80.48000691201159 l 2.1643066874362322 -5.455466682109195 a26.86910045551145,26.86910045551145 0 0,0 0.4272769632830463,0.17376982124331244 l -2.257638111909718 5.41750960428659" fill="#ff4506" stroke="none" /><path d="M 110.34350942703115 81.72400993836675 l 3.004537828865813 -5.308730454351564 a27.09998906573163,27.09998906573163 0 0,0 0.4028962241534423,0.2326122434704737 l -3.0952265208796526 5.256371313604919" fill="#ff4806" stroke="none" /><line stroke="#e1ed5e" stroke-width="0.3" x1="143.13028292997686" x2="145.6673583964461" y1="26.7553504044142" y2="22.446841604673864" /><path d="M 143.63769802327073 25.89364864446614 a86.0,86.0 0 0,1 29.32050498858742,28.57503671076993" fill="none" id="id86" stroke="none" /><text fill="#e1ed5e" style="font-size:6.75px; font-family:Arial;" text-anchor="middle"><textPath startOffset="20.669276256404974" xlink:href="#id86">February</textPath></text><path d="M 112.45986205192187 83.09580414077388 l 3.001340036658217 -4.071894183770817 a26.05849426800843,26.05849426800843 0 0,0 0.3578042350317219,0.26850296846413124 l -3.0707972606007052 4.019772188042671" fill="#ff3a05" stroke="none" /><path d="M 113.03279911837588 83.53348406188908 l 6.359704228056772 -8.035278537003839 a31.247513797775426,31.247513797775426 0 0,0 0.41774835366851665,0.33650850286099665 l -6.496703352080549 7.924921740349434" fill="#ff810b" stroke="none" /><path d="M 113.31354834802062 83.75963576809568 l 7.818656170641047 -9.537489232471614 a33.33268361607543,33.33268361607543 0 0,0 0.4393972541043358,0.3665608170787164 l -7.981227758907275 9.401866231481028" fill="#ff9d0e" stroke="none" /><path d="M 113.59037401385872 83.9905735841838 l 8.510211943525336 -10.025008270849291 a34.150075975229875,34.150075975229875 0 0,0 0.44365911874762204,0.38322218001611996 l -8.681050542035818 9.87744195836845" fill="#ffa70f" stroke="none" /><path d="M 114.13192950727249 84.46653392183569 l 7.688131902474132 -8.450603723297501 a32.42453830305847,32.42453830305847 0 0,0 0.4085032149466325,0.37810447715571893 l -7.832064888734729 8.317381500009407" fill="#ff910d" stroke="none" /><path d="M 114.91283532996326 85.21462403516908 l 9.93068739429194 -9.845810234275232 a34.98422437221699,34.98422437221699 0 0,0 0.41916631445482144,0.43010156516747966 l -10.098240509897574 9.67388597704001" fill="#ffb210" stroke="none" /><path d="M 115.16444852881244 85.47280134310134 l 12.877524450820442 -12.336377122497879 a38.83302656561604,38.83302656561604 0 0,0 0.45701695114556395,0.4853361646832492 l -13.087397235702266 12.113499497870134" fill="#ffe315" stroke="none" /><path d="M 116.35404254752997 86.82634096563983 l 11.065108245281024 -8.913267944483588 a35.20855256280332,35.20855256280332 0 0,0 0.375111196991441,0.4739407434826782 l -11.216485872914024 8.722007257086231" fill="#ffb510" stroke="none" /><path d="M 116.7966241395341 87.39550010848427 l 24.053560068027927 -18.050239902339964 a51.07299307482136,51.07299307482136 0 0,0 0.5202100034530258,0.705764778907981 l -24.35987209106478 17.634668814163106" fill="#8cff24" stroke="none" /><path d="M 117.01052211995028 87.68569379921539 l 1.7392195154539718 -1.259060804404224 a23.147118681424704,23.147118681424704 0 0,0 0.23024207643260508,0.32386431450764075 l -1.7605766904165376 1.2290192631870793" fill="#ff1001" stroke="none" /><path d="M 117.42321728460499 88.27688183743584 l 9.419332988913538 -6.33774760641605 a32.353011876972,32.353011876972 0 0,0 0.30608346606008957,0.46344937947279025 l -9.526740893894353 6.175118348604201" fill="#ff900d" stroke="none" /><path d="M 117.81537515405839 88.88188828441811 l 7.84972440205515 -4.898808589989035 a30.252918393110924,30.252918393110924 0 0,0 0.2711699242999937,0.44293569213306605 l -7.932662290810547 4.763335781731414" fill="#ff740a" stroke="none" /><line stroke="#e1ed5e" stroke-width="0.3" x1="172.87174338648825" x2="177.1583165268699" y1="56.24261187166439" y2="53.66864786411523" /><path d="M 173.72905801456457 55.72781907015455 a86.0,86.0 0 0,1 12.242430191666344,42.057860355516425" fill="none" id="id87" stroke="none" /><text fill="#e1ed5e" style="font-size:6.75px; font-family:Arial;" text-anchor="middle"><textPath startOffset="22.145653131862474" xlink:href="#id87">March</textPath></text><path d="M 118.18653347947321 89.5 l 3.948550596573589 -2.2796967498406198 a25.55939349968124,25.55939349968124 0 0,0 0.21611883313490066,0.3818612700427428 l -3.987102794729866 2.211578709698759" fill="#ff3204" stroke="none" /><path d="M 118.36410011445183 89.81374322990088 l 10.010846383525648 -5.5528477362395545 a32.44775800305061,32.44775800305061 0 0,0 0.26600154451339,0.48941288152628754 l -10.104693277654379 5.380180021238664" fill="#ff910d" stroke="none" /><path d="M 119.0197475246899 91.09779779509293 l 7.955197105786604 -3.7234339269578993 a29.783457246456926,29.783457246456926 0 0,0 0.212761013204473,0.46492121110126117 l -8.017942583846128 3.586323733641954" fill="#ff6d0a" stroke="none" /><path d="M 119.31412917781788 91.75594674310238 l 57.94238753345363 -24.732159770692828 a84.0,84.0 0 0,0 0.5546966218540672,1.3310699622348887 l -58.358409999844184 23.733857299016663" fill="#4dd2ff" stroke="none" /><path d="M 119.94978838288452 93.4421083053983 l 8.794794848545198 -2.891023753539237 a30.25777698864718,30.25777698864718 0 0,0 0.15796761809993815,0.4948313137886483 l -8.843127182422393 2.7396234060592013" fill="#ff740a" stroke="none" /><path d="M 120.05942366710727 93.78553927170692 l 5.459866857918371 -1.6914807091830886 a26.71587728137457,26.71587728137457 0 0,0 0.1319556717121742,0.43923751487350154 l -5.488098849634173 1.5975055907188636" fill="#ff4306" stroke="none" /><path d="M 120.51834098615036 95.52812308129327 l 6.252302212843359 -1.3626601669825833 a27.39907225239776,27.39907225239776 0 0,0 0.09621287186573253,0.4604134213292252 l -6.274772795533458 1.2551302943679536" fill="#ff4c07" stroke="none" /><path d="M 120.592083275326 95.88100663000786 l 8.160118382325548 -1.632252213909026 a29.32176539583869,29.32176539583869 0 0,0 0.0944910752937692,0.4944172340648285 l -8.186935749901474 1.491932414810883" fill="#ff6709" stroke="none" /><path d="M 120.7213421655516 96.59031103205396 l 9.476761914330318 -1.5593975666722037 a30.604204139430024,30.604204139430024 0 0,0 0.08085121809292883,0.5191228189070324 l -9.502134624561512 1.3964865658337302" fill="#ff780b" stroke="none" /><path d="M 120.77682067341334 96.94652285012252 l 13.61963996955233 -2.001618057463549 a34.765938680242314,34.765938680242314 0 0,0 0.08170903385596169,0.5912058656720673 l -13.651993519963504 1.767523883591396" fill="#ffaf10" stroke="none" /><path d="M 120.82617615685814 97.30363454192243 l 14.01200001888937 -1.8141339324585517 a35.128949941671294,35.128949941671294 0 0,0 0.07229523468417826,0.5987082527221457 l -14.041077339833214 1.573332002812993" fill="#ffb410" stroke="none" /><path d="M 120.86939407059847 97.66154086499901 l 5.5583569949711205 -0.6228254949097376 a26.593142594343,26.593142594343 0 0,0 0.04694019868410452,0.4541038415531692 l -5.568229586136892 0.527317131073637" fill="#ff4106" stroke="none" /><path d="M 120.9064616781168 98.02013634271609 l 5.871730869024963 -0.5560590181122316 a26.898001782797678,26.898001782797678 0 0,0 0.03958665675123742,0.4600569575253736 l -5.880411148473941 0.4551810132111959" fill="#ff4506" stroke="none" /><path d="M 120.93736805541906 98.37931529534042 l 5.636542680182493 -0.4363040514334516 a26.653403807514202,26.653403807514202 0 0,0 0.031395220555516516,0.45647961657344716 l -5.6432018619030755 0.33948101070567027" fill="#ff4206" stroke="none" /><path d="M 120.96210409425399 98.7389718711861 l 13.60130175567173 -0.8182205386094609 a34.62589058735763,34.62589058735763 0 0,0 0.03060007109295138,0.5936332043285671 l -13.613343416221255 0.5846155409041631" fill="#ffae10" stroke="none" /><path d="M 120.99303781780057 99.45929381324524 l 47.29243083676099 -1.2180852605536552 a68.30811501372466,68.30811501372466 0 0,0 0.020129973434696337,1.1724700343350845 l -47.30637224179436 0.4060683102495042" fill="#39ff8e" stroke="none" /><line stroke="#e1ed5e" stroke-width="0.3" x1="184.99686870605535" x2="189.99668451229388" y1="99.2704041080226" y2="99.22748670261217" /><path d="M 185.99683186730306 99.26182062694052 a86.0,86.0 0 0,1 -10.086455211305974,41.156179273409016" fill="none" id="id88" stroke="none" /><text fill="#e1ed5e" style="font-size:6.75px; font-family:Arial;" text-anchor="middle"><textPath startOffset="21.40746469413373" xlink:href="#id88">April</textPath></text><path d="M 120.99303781780057 100.54070618675476 l 7.000246820874388 0.18030152652074075 a28.00256839978216,28.00256839978216 0 0,0 -0.016501930897120903,0.48043571288364323 l -6.996120202980421 -0.3004435039684946" fill="#ff5507" stroke="none" /><path d="M 120.98066250479742 100.90099992219065 l 3.845517226092683 0.16514305593067077 a24.849061569408534,24.849061569408534 0 0,0 -0.021959956486856485,0.4260172891954932 l -3.8421156801492535 -0.23113213850289463" fill="#ff2803" stroke="none" /><path d="M 120.96210409425399 101.26102812881392 l 2.926932999188903 0.1760770210153959 a23.932224394392524,23.932224394392524 0 0,0 -0.028189925334573634,0.40987532752652883 l -2.923479112689263 -0.22629577269626824" fill="#ff1b02" stroke="none" /><path d="M 120.86939407059847 102.33845913500097 l 6.647678525477063 0.7448862445102078 a27.689281373611774,27.689281373611774 0 0,0 -0.05698442733031693,0.47191280405059716 l -6.633912011887083 -0.8588927254842135" fill="#ff5007" stroke="none" /><path d="M 120.82617615685814 102.69636545807757 l 8.969454168456522 1.1612754168350718 a30.044316926876654,30.044316926876654 0 0,0 -0.07061198984259422,0.5109131831776068 l -8.948197662058718 -1.3150769082127638" fill="#ff710a" stroke="none" /><path d="M 120.7213421655516 103.40968896794604 l 8.676116653467002 1.4276516936783965 a29.792791908320716,29.792791908320716 0 0,0 -0.08737116795665789,0.5039336787896499 l -8.65033066801811 -1.5763784053886343" fill="#ff6d0a" stroke="none" /><path d="M 120.592083275326 104.11899336999214 l 5.769699979124839 1.154101585697027 a26.883994248741374,26.883994248741374 0 0,0 -0.09440415609937183,0.45175806162469084 l -5.749038112201103 -1.252976098607127" fill="#ff4506" stroke="none" /><path d="M 120.35273937422433 105.17358676015961 l 9.010454702432561 2.2904223502493313 a30.29700642610893,30.29700642610893 0 0,0 -0.13245637571635638,0.5029584332992397 l -8.969808845911475 -2.444761287921374" fill="#ff740a" stroke="none" /><path d="M 120.16314734710363 105.8691983318838 l 6.666477371684507 1.9405144046151217 a27.94316330657002,27.94316330657002 0 0,0 -0.1380175108998565,0.4594154060229585 l -6.63218354078102 -2.0546674142288035" fill="#ff5407" stroke="none" /><path d="M 118.70294669586154 109.54985784667822 l 26.124358401182434 13.339283543067053 a50.33289258351059,50.33289258351059 0 0,0 -0.3995279551819922,0.7661475337969841 l -25.891522377025492 -13.78577731996854" fill="#94ff23" stroke="none" /><line stroke="#e1ed5e" stroke-width="0.3" x1="174.33088141563837" x2="178.70328620479359" y1="141.23008692659167" y2="143.65538615756765" /><path d="M 175.20536237346943 141.71514677278685 a86.0,86.0 0 0,1 -30.301960400862466,31.631185727798858" fill="none" id="id89" stroke="none" /><text fill="#e1ed5e" style="font-size:6.75px; font-family:Arial;" text-anchor="middle"><textPath startOffset="22.145653131862474" xlink:href="#id89">May</textPath></text><path d="M 117.423217284605 111.72311816256416 l 11.687466688450748 7.863849183055558 a35.08676689547639,35.08676689547639 0 0,0 -0.3405258664412642,0.4968374158766164 l -11.550751085194163 -8.063321334002218" fill="#ffb410" stroke="none" /><path d="M 117.21940702142032 112.02048342749411 l 9.588694192853145 6.693653242130816 a32.6939321893854,32.6939321893854 0 0,0 -0.32520327638323415,0.4574391345550779 l -9.47237581793995 -6.857269603395398" fill="#ff940d" stroke="none" /><path d="M 116.1254893667686 113.45245675266167 l 3.832309679470782 3.1970490354314354 a25.990763470083362,25.990763470083362 0 0,0 -0.2887517341033877,0.34014881671788266 l -3.77686338186028 -3.262364634598875" fill="#ff3905" stroke="none" /><path d="M 114.91283532996324 114.78537596483092 l 3.648459165560935 3.6172759412669424 a26.13769788115594,26.13769788115594 0 0,0 -0.31864104032275326,0.3159176289924443 l -3.585826205108217 -3.6793735804880487" fill="#ff3b05" stroke="none" /><path d="M 113.86319453409587 115.77377054828091 l 3.846505147968003 4.3766167651766 a26.826695132111276,26.826695132111276 0 0,0 -0.34851775819932707,0.30104133878391515 l -3.77080791000582 -4.442002236425233" fill="#ff4406" stroke="none" /><path d="M 112.7482090630111 116.68781488649013 l 1.3625944327579904 1.7836798523491202 a23.244588470936097,23.244588470936097 0 0,0 -0.31916702902827065,0.23950888877089607 l -1.3317744148189532 -1.8068077683840311" fill="#ff1101" stroke="none" /><path d="M 112.45986205192187 116.90419585922612 l 19.66332961309746 26.677083071963093 a54.14081007914163,54.14081007914163 0 0,0 -0.7528640312783731,0.5450154994270131 l -19.20248457144512 -27.010699342763186" fill="#6cff28" stroke="none" /><path d="M 111.8722381534696 117.32195027204791 l 0.5974783375213972 0.8717387503001631 a22.056839066548083,22.056839066548083 0 0,0 -0.3141563065548362,0.21137838340059167 l -0.5824257428695577 -0.881866807757876" fill="#ff0000" stroke="none" /><path d="M 110.96478420261333 117.91015095944535 l 2.887054789575545 4.715787028180988 a26.529351919815845,26.529351919815845 0 0,0 -0.39044541277024575,0.23445125196063063 l -2.8056766202478625 -4.764652280677542" fill="#ff4006" stroke="none" /><line stroke="#e1ed5e" stroke-width="0.3" x1="143.1302829299769" x2="145.66735839644613" y1="173.24464959558577" y2="177.55315839532614" /><path d="M 143.63769802327073 174.10635135553383 a86.0,86.0 0 0,1 -40.68552437913181,11.842963189579606" fill="none" id="id90" stroke="none" /><text fill="#e1ed5e" style="font-size:6.75px; font-family:Arial;" text-anchor="middle"><textPath startOffset="21.407464694133747" xlink:href="#id90">June</textPath></text><path d="M 109.71004243097381 118.62028667847754 l 11.459596329749651 21.97528696670874 a45.78377665550613,45.78377665550613 0 0,0 -0.6999963986299136,0.35742314881224085 l -11.080672709406155 -22.168768067193817" fill="#c8ff1d" stroke="none" /><path d="M 109.06512990194946 118.94263497670748 l 4.6810114637437 9.781513606375507 a31.8438866074581,31.8438866074581 0 0,0 -0.49511373197766967,0.2317382263234459 l -4.512409017894525 -9.860428064269486" fill="#ff890c" stroke="none" /><path d="M 108.4095320186766 119.2426549942271 l 2.36073193240088 5.4018166537873515 a26.89514023733037,26.89514023733037 0 0,0 -0.42464215005100747,0.18125448307369732 l -2.2676547071794415 -5.441545786520453" fill="#ff4506" stroke="none" /><path d="M 108.07796709384702 119.3841803445677 l 4.425179671063933 10.618820280458356 a32.503980149055856,32.503980149055856 0 0,0 -0.5168837697300797,0.21021212933978725 l -4.242241440143413 -10.693219666377434" fill="#ff920d" stroke="none" /><path d="M 107.74402155503746 119.51999308798841 l 11.186358865201846 28.19693181076656 a51.334824677292914,51.334824677292914 0 0,0 -0.8219139026922634,0.3179339542829901 l -10.700672700016053 -28.38480565318759" fill="#8aff24" stroke="none" /><path d="M 104.9986988182912 120.39639698878246 l 3.016131681091233 12.30684651631212 a33.671050528418945,33.671050528418945 0 0,0 -0.56257566572486,0.13276632529694748 l -2.8044238616264936 -12.356808985255293" fill="#ffa10e" stroke="none" /><path d="M 103.94208987418118 120.62667999033965 l 3.0051394011526043 15.724159197869895 a37.0087490235907,37.0087490235907 0 0,0 -0.6250341825425643,0.1139020490433586 l -2.734770485058983 -15.773429420844618" fill="#ffcc13" stroke="none" /><path d="M 103.2317021107853 120.74984581791261 l 0.6054564253991713 3.887464576196496 a24.934330732696445,24.934330732696445 0 0,0 -0.4234976086108356,0.06223956452469707 l -0.5386337111806503 -3.8972852140200755" fill="#ff2a04" stroke="none" /><path d="M 102.51750503828377 120.84855314841334 l 0.8540862039087634 7.073058978923623 a28.124438684067634,28.124438684067634 0 0,0 -0.47980841276814734,0.053763533435248784 l -0.7325418895398168 -7.086678272865842" fill="#ff5608" stroke="none" /><path d="M 101.08105385017728 120.97215588758144 l 0.500717237684219 9.713780643388429 a30.726677343264853,30.726677343264853 0 0,0 -0.5269979829225782,0.022631560919453352 l -0.3338934941608113 -9.720944772733713" fill="#ff7a0b" stroke="none" /><path d="M 100.72087961077811 120.9876233191556 l 0.31510304417983453 9.173881323716893 a30.17929128365001,30.17929128365001 0 0,0 -0.5179149890194436,0.013339652946198075 l -0.15757474108964717 -9.177938694013138" fill="#ff730a" stroke="none" /><line stroke="#e1ed5e" stroke-width="0.3" x1="101.45913802915013" x2="101.54496967792366" y1="184.9874750549273" y2="189.98673829345242" /><path d="M 101.47630435890484 185.9873277026323 a86.0,86.0 0 0,1 -42.54439059252881,-10.42667462771756" fill="none" id="id91" stroke="none" /><text fill="#e1ed5e" style="font-size:6.75px; font-family:Arial;" text-anchor="middle"><textPath startOffset="22.145653131862474" xlink:href="#id91">July</textPath></text><path d="M 100.0 121.0 l 9.193490434098477e-16 7.507054638528711 a28.50705463852871,28.50705463852871 0 0,0 -0.4893615002604406,-0.004200579923910505 l 0.12886857541158755 -7.505948456799235" fill="#ff5c08" stroke="none" /><path d="M 97.12497278360702 120.80226474461374 l -1.9142124372254892 13.850287631904665 a34.98194109347197,34.98194109347197 0 0,0 -0.594151435483443,-0.08731980028769144 l 2.151688978316617 -13.815386758318091" fill="#ffb210" stroke="none" /><path d="M 96.76829788921471 120.74984581791261 l -1.2222499108978142 7.847721210889806 a28.94233108404198,28.94233108404198 0 0,0 -0.49025896574668326,-0.08067192624819894 l 1.356786379697561 -7.825583286145939" fill="#ff6209" stroke="none" /><path d="M 95.70440661134978 120.55596938700252 l -2.870226159642865 13.73507120745708 a35.03176322781334,35.03176322781334 0 0,0 -0.5875954105207415,-0.12806368485733524 l 3.105583986782743 -13.683776064466027" fill="#ffb310" stroke="none" /><path d="M 94.30408787586889 120.21278271476187 l -1.7210021982780603 6.107229663541982 a27.345084926911934,27.345084926911934 0 0,0 -0.45072511228691464,-0.1311995112485525 l 1.8255873229465818 -6.076786457990913" fill="#ff4c07" stroke="none" /><path d="M 93.61358852112213 120.00534299687104 l -0.7870470745739415 2.4654137513078225 a23.58799305693294,23.58799305693294 0 0,0 -0.384683394596306,-0.12645307258690588 l 0.8292532068179911 -2.451539757318895" fill="#ff1602" stroke="none" /><path d="M 92.93061703081489 119.77432235084164 l -2.606396811685715 7.290555760401851 a28.742448426401953,28.742448426401953 0 0,0 -0.46317887407221053,-0.1700856982552207 l 2.7311648374120443 -7.244739213137911" fill="#ff5f08" stroke="none" /><path d="M 92.59220618246901 119.65005319985036 l -1.5456383900207724 4.099989462417592 a25.381656265003144,25.381656265003144 0 0,0 -0.40638175524518916,-0.15719719300324345 l 1.6157924077594896 -4.072852381276308" fill="#ff3004" stroke="none" /><path d="M 92.25597844496254 119.51999308798841 l -1.702568993733677 4.291586064592764 a25.61697434779858,25.61697434779858 0 0,0 -0.40736544291648813,-0.16567197925297358 l 1.775988897840606 -4.261726828760499" fill="#ff3304" stroke="none" /><line stroke="#e1ed5e" stroke-width="0.3" x1="58.13341422392154" x2="55.67067388415222" y1="173.97424548756322" y2="178.32567169271397" /><path d="M 57.64086615596768 174.84453072859336 a86.0,86.0 0 0,1 -31.369924170532247,-30.572349798747897" fill="none" id="id92" stroke="none" /><text fill="#e1ed5e" style="font-size:6.75px; font-family:Arial;" text-anchor="middle"><textPath startOffset="22.145653131862474" xlink:href="#id92">August</textPath></text><line stroke="#e1ed5e" stroke-width="0.3" x1="26.387840678322732" x2="22.057713659400548" y1="142.50000000000003" y2="145.00000000000006" /><path d="M 25.521815274538298 143.00000000000003 a86.0,86.0 0 0,1 -11.493303480769221,-40.785679425670985" fill="none" id="id93" stroke="none" /><text fill="#e1ed5e" style="font-size:6.75px; font-family:Arial;" text-anchor="middle"><textPath startOffset="21.40746469413373" xlink:href="#id93">September</textPath></text><line stroke="#e1ed5e" stroke-width="0.3" x1="15.003131293944662" x2="10.003315487706104" y1="100.72959589197737" y2="100.7725132973878" /><path d="M 14.003168132696942 100.73817937305945 a86.0,86.0 0 0,1 10.791469493833604,-42.45332614584628" fill="none" id="id94" stroke="none" /><text fill="#e1ed5e" style="font-size:6.75px; font-family:Arial;" text-anchor="middle"><textPath startOffset="22.145653131862435" xlink:href="#id94">October</textPath></text><line stroke="#e1ed5e" stroke-width="0.3" x1="26.387840678322718" x2="22.05771365940052" y1="57.49999999999999" y2="54.99999999999999" /><path d="M 25.521815274538284 56.99999999999999 a86.0,86.0 0 0,1 29.574782752854787,-30.34633250058573" fill="none" id="id95" stroke="none" /><text fill="#e1ed5e" style="font-size:6.75px; font-family:Arial;" text-anchor="middle"><textPath startOffset="21.40746469413373" xlink:href="#id95">November</textPath></text><line stroke="#e1ed5e" stroke-width="0.3" x1="56.869717070023135" x2="54.33264160355391" y1="26.7553504044142" y2="22.446841604673864" /><path d="M 56.362301976729285 25.89364864446614 a86.0,86.0 0 0,1 42.16139366436587,-11.88097634709845" fill="none" id="id96" stroke="none" /><text fill="#e1ed5e" style="font-size:6.75px; font-family:Arial;" text-anchor="middle"><textPath startOffset="22.145653131862474" xlink:href="#id96">December</textPath></text></svg>