<?xml version="1.0" encoding="utf-8" ?>
<svg baseProfile="full" height="200mm" version="1.1" viewBox="0,0,200,200" width="200mm" xmlns="http://www.w3.org/2000/svg" xmlns:ev="http://www.w3.org/2001/xml-events" xmlns:xlink="http://www.w3.org/1999/xlink"><defs /><rect fill="#1a1a1a" height="200" width="200" x="0" y="0" /><text alignment-baseline="middle" fill="#e1ed5e" style="dominant-baseline: central; font-size:9.0px; font-family:Arial;" text-anchor="middle" x="100.0" y="100.0">2023</text><line stroke="#e1ed5e" stroke-width="0.3" x1="100.0" x2="100.0" y1="15.0" y2="10.0" /><path d="M 100.0 14.0 a86.0,86.0 0 0,1 42.46469731375804,11.215312516191453" fill="none" id="id73" stroke="none" /><text fill="#e1ed5e" style="font-size:6.75px; font-family:Arial;" text-anchor="middle"><textPath startOffset="22.20632615414155" xlink:href="#id73">January</textPath></text><path d="M 100.0 79.0 l 0.0 -18.426375844597487 a39.42637584459749,39.42637584459749 0 0,0 0.6786602493468541,0.005841443026815764 l -0.3171797700743257 18.42364577817923" fill="#ffed16" stroke="none" /><path d="M 101.08401301168833 79.027996857942 l 0.21982841265153652 -4.252939873536466 a25.258617392878264,25.258617392878264 0 0,0 0.43401274996144457,0.0261808343150832 l -0.293003211452593 4.248525769841079" fill="#ff3204" stroke="none" /><path d="M 101.44485096284872 79.0497635885617 l 0.9498065683017383 -13.77212782682128 a34.80484108548498,34.80484108548498 0 0,0 0.597333627852069,0.046364585901838104 l -1.1867303855161484 13.753737978730976" fill="#ffb310" stroke="none" /><path d="M 101.80526077348638 79.07773832637324 l 0.43699260735951384 -5.064572285010759 a26.083390105922028,26.083390105922028 0 0,0 0.44698841425829866,0.0424469359080035 l -0.5241061487080567 5.056299804587578" fill="#ff3e05" stroke="none" /><path d="M 102.16513564639614 79.11191278185805 l 0.6530991871341122 -6.300756631882182 a27.33451439989227,27.33451439989227 0 0,0 0.46759370075400875,0.052539600528370645 l -0.7614595913978462 6.288581077883211" fill="#ff4f07" stroke="none" /><path d="M 104.66035177308747 79.52364482259891 l 1.1907114224845037 -5.231671596418682 a26.365461898514337,26.365461898514337 0 0,0 0.4416545227709256,0.10452535625454727 l -1.2805896322179529 5.210400328023266" fill="#ff4206" stroke="none" /><path d="M 106.74666289553966 80.11325718540242 l 1.3344393810517807 -3.933448755857076 a25.15364268764845,25.15364268764845 0 0,0 0.4088281386979362,0.1426321100407771 l -1.4019495238129907 3.9098957926440914" fill="#ff3104" stroke="none" /><path d="M 107.08798089147638 80.2323363322302 l 2.0504626717297425 -5.718533539898902 a27.075032758356596,27.075032758356596 0 0,0 0.437349030567668,0.16107933889837064 l -2.148594028069987 5.682390933194207" fill="#ff4c07" stroke="none" /><path d="M 107.4271985657038 80.35727306442388 l 5.257473640773064 -13.904451077094436 a35.865220780019925,35.865220780019925 0 0,0 0.5755801520890709,0.22331615683637995 l -5.4960369578618025 13.811892216367509" fill="#ffc111" stroke="none" /><path d="M 108.09893153111575 80.62456947434976 l 2.5222976456507507 -6.034203723115638 a27.540152902288902,27.540152902288902 0 0,0 0.4358114343985139,0.18659171213878958 l -2.6257928378395796 5.989892483014058" fill="#ff5207" stroke="none" /><path d="M 109.08828744355905 81.06846463323043 l 3.5530341277010535 -7.401217409291183 a29.20987640906995,29.20987640906995 0 0,0 0.4514021038960642,0.2215010519639854 l -3.6799074986075495 7.338961197192366" fill="#ff6909" stroke="none" /><path d="M 109.41281617654863 81.2277094730956 l 1.023598034395726 -2.041395404312514 a23.28364798792788,23.28364798792788 0 0,0 0.3567271214662366,0.18272948697157482 l -1.0585856434507182 2.0234733920284387" fill="#ff1602" stroke="none" /><line stroke="#e1ed5e" stroke-width="0.3" x1="143.23703022742887" x2="145.7803849466894" y1="26.81831364943548" y2="22.513508569990506" /><path d="M 143.74570117128098 25.957352633546492 a86.0,86.0 0 0,1 28.547481713284135,27.462654790039103" fill="none" id="id74" stroke="none" /><text fill="#e1ed5e" style="font-size:6.75px; font-family:Arial;" text-anchor="middle"><textPath startOffset="19.985693538727396" xlink:href="#id74">February</textPath></text><path d="M 110.68208982089419 81.91981866633111 l 1.9530036539315778 -3.3055947666095356 a24.839424440369474,24.839424440369474 0 0,0 0.36624895524091045,0.2206608975451181 l -2.009614675390126 3.2714872596058027" fill="#ff2d04" stroke="none" /><path d="M 111.2981086023043 82.29822771554956 l 2.7648513616501194 -4.331943595789217 a26.139079525471242,26.139079525471242 0 0,0 0.37719061961260847,0.245335271235716 l -2.8390090070470078 4.283709400393973" fill="#ff3f05" stroke="none" /><path d="M 111.90073688211348 82.69761687909136 l 1.5979150052557745 -2.3231954365059573 a23.8196754068906,23.8196754068906 0 0,0 0.3358221025335922,0.23526484380153476 l -1.6376682473730175 2.2953457499404872" fill="#ff1e03" stroke="none" /><path d="M 112.77801427241765 83.33499621200491 l 2.0873887883323516 -2.7223589927948506 a24.430514602695432,24.430514602695432 0 0,0 0.3315191105938258,0.25875592428747923 l -2.1339404540856077 2.6860246792841473" fill="#ff2703" stroke="none" /><path d="M 113.06298171725822 83.55741782278167 l 2.020204292612352 -2.5428631697587476 a24.247672779700085,24.247672779700085 0 0,0 0.3245684957663806,0.26244515135049346 l -2.0636761869432236 2.5077119211441246" fill="#ff2403" stroke="none" /><path d="M 113.34407831869373 83.78471172551755 l 2.2150196659733346 -2.6916195753354537 a24.485846820928543,24.485846820928543 0 0,0 0.3231460903616144,0.27062555749379724 l -2.2610232932940666 2.6530928604478374" fill="#ff2803" stroke="none" /><path d="M 113.6212207817346 84.01681056812373 l 7.474252688011287 -8.770314973118124 a32.52314531592585,32.52314531592585 0 0,0 0.42296536539484736,0.36679139690048984 l -7.6241118520528985 8.640358582797964" fill="#ff960d" stroke="none" /><path d="M 114.94478906791727 85.2469230424477 l 3.6750168953765217 -3.627873691050404 a26.164031051370486,26.164031051370486 0 0,0 0.31363912481959366,0.32323268778400427 l -3.736920283899224 3.5640768077162854" fill="#ff3f05" stroke="none" /><path d="M 115.19652480421416 85.50635884689758 l 4.283692041264698 -4.085558774547857 a26.919612149852345,26.919612149852345 0 0,0 0.31692418111068854,0.33807261950938855 l -4.353383544345849 4.011216738160413" fill="#ff4a06" stroke="none" /><path d="M 115.4437574822437 85.77008943001954 l 4.0935263173440894 -3.771783743602606 a26.566265383476928,26.566265383476928 0 0,0 0.3069749162087023,0.3389693696266718 l -4.157844874168827 3.7007615867063848" fill="#ff4506" stroke="none" /><path d="M 115.9244219780498 86.31012108654704 l 7.014623587037424 -6.030319195406909 a30.2503888386551,30.2503888386551 0 0,0 0.33605212637838117,0.3977797213349605 l -7.117386326902923 5.9086805244428415" fill="#ff770b" stroke="none" /><path d="M 116.15771136456269 86.58626213691792 l 2.572758936403631 -2.1358417153996587 a24.343786532972178,24.343786532972178 0 0,0 0.2648853300644835,0.32471809426507775 l -2.6091427585445235 2.09123945152648" fill="#ff2603" stroke="none" /><path d="M 116.60985879189232 87.15038557335679 l 3.4144493116562322 -2.6414647881001883 a25.316920236539342,25.316920236539342 0 0,0 0.2636866464361039,0.3469807177086461 l -3.4594118983164495 2.5822992945105088" fill="#ff3304" stroke="none" /><path d="M 116.82858285166822 87.43820079747576 l 3.156185346292334 -2.355953969240109 a24.93853082320409,24.93853082320409 0 0,0 0.25382363932857355,0.3462151587914311 l -3.196271598134534 2.3012763667771843" fill="#ff2e04" stroke="none" /><path d="M 117.04232023915458 87.72973835380427 l 3.7250749926473112 -2.682008328095505 a25.59013642202713,25.59013642202713 0 0,0 0.2543018347035276,0.35969191069888534 l -3.7706894471547217 2.6174899170648267" fill="#ff3705" stroke="none" /><path d="M 117.2510076193507 88.02491185347247 l 4.624874787205918 -3.2104375851831066 a26.629953488767853,26.629953488767853 0 0,0 0.25815271479489016,0.37880725458961284 l -4.679451967669542 3.1303523073230872" fill="#ff4606" stroke="none" /><line stroke="#e1ed5e" stroke-width="0.3" x1="172.23445277983987" x2="176.4835382374775" y1="55.19839476539836" y2="52.563006222186495" /><path d="M 173.08426987136738 54.67131705675599 a86.0,86.0 0 0,1 12.851231095245387,41.99856678651699" fill="none" id="id75" stroke="none" /><text fill="#e1ed5e" style="font-size:6.75px; font-family:Arial;" text-anchor="middle"><textPath startOffset="22.20632615414155" xlink:href="#id75">March</textPath></text><path d="M 118.03404312379186 89.2402003453031 l 15.038135823940188 -8.972326811853318 a38.51137280392303,38.51137280392303 0 0,0 0.3347561203915569,0.572206722539918 l -15.19035161880207 8.712140676959505" fill="#ffe215" stroke="none" /><path d="M 118.21658344932153 89.55222093294921 l 1.6021988180461895 -0.9189110196764121 a22.84700798986668,22.84700798986668 0 0,0 0.19272251832074347,0.3428318555361194 l -1.6177789776593658 0.8911956542054987" fill="#ff1001" stroke="none" /><path d="M 118.3937258080291 89.86733742301442 l 1.3094683788234782 -0.7213547367363068 a22.495011736191557,22.495011736191557 0 0,0 0.1839148249090319,0.3407662387353361 l -1.321691302950975 0.698707514668512" fill="#ff0b01" stroke="none" /><path d="M 118.56541770881063 90.18545643968196 l 5.290593169113376 -2.7968536950042484 a26.984376882544083,26.984376882544083 0 0,0 0.21354994713957398,0.41251052629066715 l -5.337952549413067 2.7053704464532364" fill="#ff4b06" stroke="none" /><path d="M 119.04729006885535 91.15688171328212 l 6.958802057573869 -3.2307750607317542 a28.672211778199333,28.672211778199333 0 0,0 0.20397914319996255,0.44944100358107636 l -7.013383517737179 3.1105120483086153" fill="#ff6209" stroke="none" /><path d="M 119.34039704204932 91.81776055985345 l 5.61884970259289 -2.377137012485019 a27.101004208854015,27.101004208854015 0 0,0 0.17806432592513052,0.43119688916334226 l -5.658935715404217 2.2800655528683738" fill="#ff4c07" stroke="none" /><path d="M 119.47837535516314 92.15188598940014 l 12.229219494483742 -4.927326181129282 a34.18454977386423,34.18454977386423 0 0,0 0.21521037973785284,0.5476869423145814 l -12.312223424103294 4.716090233918917" fill="#ffab0f" stroke="none" /><path d="M 119.61058180528143 92.48833698450437 l 3.881310364907471 -1.48670222073082 a25.1563028813916,25.1563028813916 0 0,0 0.15141148830815435,0.4057075116099834 l -3.9063264417172503 1.4196715720915034" fill="#ff3104" stroke="none" /><path d="M 120.37134235888165 94.90015583598534 l 6.275726567502514 -1.571090748287164 a27.46939487814822,27.46939487814822 0 0,0 0.11088112773097207,0.4596738589314644 l -6.3018404954943055 1.4628316576962936" fill="#ff5107" stroke="none" /><line stroke="#e1ed5e" stroke-width="0.3" x1="184.98032266829074" x2="189.97916517819016" y1="98.17113171792111" y2="98.06355123074" /><path d="M 185.9800911702706 98.14961562048488 a86.0,86.0 0 0,1 -9.607161424134198,41.387399972396054" fill="none" id="id76" stroke="none" /><text fill="#e1ed5e" style="font-size:6.75px; font-family:Arial;" text-anchor="middle"><textPath startOffset="21.466115282336823" xlink:href="#id76">April</textPath></text><path d="M 120.99980553446 99.90962569577887 l 25.66455643829675 -0.11044942427913945 a46.66479410106075,46.66479410106075 0 0,0 -0.0034569784127525716,0.8032800366242888 l -25.662655162594493 -0.3313400905488341" fill="#bbff1f" stroke="none" /><path d="M 120.99824983174949 100.27111621757518 l 3.1004066581589464 0.040030504105824365 a24.100665071757234,24.100665071757234 0 0,0 -0.008926355341798003,0.4147726572935489 l -3.099258240132141 -0.09339297718948811" fill="#ff2203" stroke="none" /><path d="M 120.9904718944345 100.63252640178507 l 7.11293152416151 0.21434091647622228 a28.116160263504923,28.116160263504923 0 0,0 -0.01874125124299151,0.4836284197037454 l -7.108188140067316 -0.3367465831939739" fill="#ff5a08" stroke="none" /><path d="M 120.92983693683757 101.71520430193887 l 4.412675006599046 0.3616195948978288 a25.427467610867183,25.427467610867183 0 0,0 -0.03950387602172059,0.43592198009479044 l -4.40579653430025 -0.4375229635411898" fill="#ff3505" stroke="none" /><path d="M 120.64145759157962 103.86396538481128 l 1.893992384968426 0.3545447787369221 a22.92689105930979,22.92689105930979 0 0,0 -0.0759535879836109,0.38728570877613383 l -1.8876088640091508 -0.38709421458100085" fill="#ff1101" stroke="none" /><path d="M 120.32669344350535 105.2749913415812 l 1.475291747252601 0.38285376884798655 a22.52415968580485,22.52415968580485 0 0,0 -0.10062070232906399,0.37444706518648896 l -1.4684829685817598 -0.4081917672100237" fill="#ff0b01" stroke="none" /><path d="M 120.02730092923936 106.31721596034902 l 5.914765304166274 1.8656957277076747 a27.202037500028183,27.202037500028183 0 0,0 -0.1446989703285612,0.4453376388264264 l -5.881774082821467 -1.9672322665118962" fill="#ff4e07" stroke="none" /><path d="M 119.9155931802556 106.66101706037122 l 5.416694898100233 1.811680766950088 a26.711634688987203,26.711634688987203 0 0,0 -0.14959681713903605,0.434798375323932 l -5.384707250017966 -1.9046518453633206" fill="#ff4706" stroke="none" /><path d="M 119.79798401119884 107.00284435728193 l 3.2248182787942024 1.1406666696033014 a24.42061008920764,24.42061008920764 0 0,0 -0.1435882322603871,0.39509314648869504 l -3.2047057855285885 -1.1960076130981274" fill="#ff2703" stroke="none" /><path d="M 119.67450827220406 107.3425965602758 l 9.971161483020438 3.7212729789347065 a31.642928821721018,31.642928821721018 0 0,0 -0.1948386527173345,0.5086622403137758 l -9.905628550709597 -3.892358786081626" fill="#ff8a0c" stroke="none" /><line stroke="#e1ed5e" stroke-width="0.3" x1="174.80103733775053" x2="179.2010983576182" y1="140.37084112569926" y2="142.7455964860345" /><path d="M 175.68104954172406 140.8457921977663 a86.0,86.0 0 0,1 -30.038265399797805,32.042727171017184" fill="none" id="id77" stroke="none" /><text fill="#e1ed5e" style="font-size:6.75px; font-family:Arial;" text-anchor="middle"><textPath startOffset="22.206326154141568" xlink:href="#id77">May</textPath></text><path d="M 118.12598468904814 110.60418214915192 l 2.67743491791336 1.5663704923687585 a24.101962968674073,24.101962968674073 0 0,0 -0.21257830833388416,0.35629347224903984 l -2.6500757338812484 -1.6122260585039023" fill="#ff2203" stroke="none" /><path d="M 117.14729908036423 112.12312394758627 l 13.146046070507762 9.294241920346778 a37.09973478545047,37.09973478545047 0 0,0 -0.3731530325806152,0.5182769253679456 l -12.984113245551544 -9.519152451165855" fill="#ffd013" stroke="none" /><path d="M 116.71984013943494 112.70617746262583 l 2.492383571762278 1.894077198325115 a24.130415995040533,24.130415995040533 0 0,0 -0.254165881704526,0.3285436640087448 l -2.4594108728396837 -1.9366988564471126" fill="#ff2203" stroke="none" /><path d="M 115.80600337817218 113.82643327865902 l 4.6022845592610775 4.025886801713726 a27.11463716868186,27.11463716868186 0 0,0 -0.3103220518328058,0.3486501149356419 l -4.532303657779933 -4.104511086390235" fill="#ff4c07" stroke="none" /><path d="M 114.0293411484842 115.62618273729858 l 4.068224593387772 4.531276290156933 a27.089574382498622,27.089574382498622 0 0,0 -0.3496588710896216,0.30853329959675757 l -3.989623369391562 -4.600632731525979" fill="#ff4c07" stroke="none" /><path d="M 113.75828350139079 115.86535959552629 l 3.3592775589360997 3.87374969038219 a26.127444039841663,26.127444039841663 0 0,0 -0.34231246972198587,0.2917261130075099 l -3.2920996126370667 -3.931000193612647" fill="#ff3f05" stroke="none" /><path d="M 113.20401910651253 116.32954008644616 l 6.490003357835403 8.026250881496544 a31.321862564355275,31.321862564355275 0 0,0 -0.42216278633226934,0.3353916495674256 l -6.350883078785782 -8.136776445069096" fill="#ff860c" stroke="none" /><path d="M 112.92097659922987 116.55440617244103 l 2.6640368954235982 3.4131745759712637 a25.32976365015861,25.32976365015861 0 0,0 -0.34601816691810877,0.2653119754212386 l -2.604890000011996 -3.458525893219874" fill="#ff3304" stroke="none" /><line stroke="#e1ed5e" stroke-width="0.3" x1="143.8653032363475" x2="146.44561519142675" y1="172.8068346515853" y2="177.08958963109032" /><path d="M 144.38136562736335 173.6633856474863 a86.0,86.0 0 0,1 -40.68145358897372,12.25698825130547" fill="none" id="id78" stroke="none" /><text fill="#e1ed5e" style="font-size:6.75px; font-family:Arial;" text-anchor="middle"><textPath startOffset="21.466115282336833" xlink:href="#id78">June</textPath></text><path d="M 109.89434966115114 118.52300852407294 l 1.952781935752439 3.6557629031062326 a25.144630223835264,25.144630223835264 0 0,0 -0.3835263720619845,0.20064287128706246 l -1.889564661163959 -3.688835193338012" fill="#ff3104" stroke="none" /><path d="M 108.92500713936063 119.00905698771935 l 1.5970961027407984 3.4015984926191556 a24.75787017689259,24.75787017689259 0 0,0 -0.38732155760688364,0.17780033017456287 l -1.5383065493664954 -3.4285858931277926" fill="#ff2b04" stroke="none" /><path d="M 108.59647513512805 119.15986991738527 l 5.047896224318379 11.25077819619143 a33.3313124326401,33.3313124326401 0 0,0 -0.5254908777604813,0.23035975805682482 l -4.853484671900143 -11.336002507542709" fill="#ffa00e" stroke="none" /><path d="M 108.2653958097858 119.30500536409082 l 3.0453764517379978 7.112909059584587 a28.737428062523154,28.737428062523154 0 0,0 -0.4564167828328596,0.19078225224063242 l -2.922488209407677 -7.164276354845192" fill="#ff6309" stroke="none" /><path d="M 107.59598834532513 119.57807347666477 l 9.758776243380792 25.152492295860945 a47.9792806142365,47.9792806142365 0 0,0 -0.7725344553415531,0.2921064278645304 l -9.324371567278964 -25.316746973832107" fill="#acff20" stroke="none" /><path d="M 106.91757812671514 119.82793768551818 l 2.1347814875806215 6.118949946438304 a27.480651236313697,27.480651236313697 0 0,0 -0.44797422270410436,0.15197717869904168 l -2.0291375319392904 -6.154790112035469" fill="#ff5107" stroke="none" /><path d="M 105.53697534728816 120.25689768951611 l 5.013319206927839 18.34111367488055 a40.013937527651706,40.013937527651706 0 0,0 -0.6659644565075216,0.17588726582039116 l -4.696864307608821 -18.424692290004526" fill="#fff517" stroke="none" /><path d="M 105.18746579009965 120.34920634021253 l 1.44423322942152 5.6653867568590615 a26.846573075380086,26.846573075380086 0 0,0 -0.4487810140006442,0.11029945445353509 l -1.346498930677665 -5.689407469626627" fill="#ff4906" stroke="none" /><path d="M 104.83641907484287 120.43548508189849 l 0.7563407270190973 3.1957920528905355 a24.284073406710952,24.284073406710952 0 0,0 -0.4076022174538213,0.09276893765360199 l -0.7012183601724139 -3.208337724121822" fill="#ff2503" stroke="none" /><path d="M 103.7750983002368 120.6578951692458 l 1.1281770126744146 6.173551151957815 a27.27578817343022,27.27578817343022 0 0,0 -0.4625857148513176,0.08042645598374894 l -1.021742326351047 -6.192056186462571" fill="#ff4f07" stroke="none" /><line stroke="#e1ed5e" stroke-width="0.3" x1="102.19456741930631" x2="102.32365962044197" y1="184.97166512339345" y2="189.96999836594603" /><path d="M 102.22038585953345 185.97133177190398 a86.0,86.0 0 0,1 -42.740103519485714,-10.115201625700543" fill="none" id="id79" stroke="none" /><text fill="#e1ed5e" style="font-size:6.75px; font-family:Arial;" text-anchor="middle"><textPath startOffset="22.20632615414155" xlink:href="#id79">July</textPath></text><path d="M 100.18074693466247 120.99922214144158 l 0.05834757924498684 6.778835725590339 a27.779086828957396,27.779086828957396 0 0,0 -0.47818902781487993,0.0 l 0.05834757924498217 -6.778835725590339" fill="#ff5607" stroke="none" /><path d="M 99.45781275523022 120.99299961872073 l -0.1770648406898793 6.855790446840597 a27.858076596889198,27.858076596889198 0 0,0 -0.47926457694976127,-0.016506841074114837 l 0.29504976931428356 -6.8517268073403885" fill="#ff5708" stroke="none" /><path d="M 96.93821686468263 120.77559828337769 l -1.1389622227765785 7.728379364104255 a28.811855255982707,28.811855255982707 0 0,0 -0.4900267333494986,-0.07653209784042393 l 1.2718248197345943 -7.707628958916724" fill="#ff6409" stroke="none" /><path d="M 96.58105272829116 120.7198165907248 l -0.3689324479693772 2.2358381246610786 a23.266072212188448,23.266072212188448 0 0,0 -0.3945826451512607,-0.06860325064817271 l 0.4073640645926878 -2.2291562954918995" fill="#ff1602" stroke="none" /><path d="M 94.81253420990036 120.34920634021253 l -1.4596617078870116 5.725909043561962 a26.909030942262554,26.909030942262554 0 0,0 -0.44785540423819614,-0.11828268275373464 l 1.558007554936697 -5.699935011504645" fill="#ff4a06" stroke="none" /><path d="M 93.76903079525671 120.05430185196036 l -1.7454006707130756 5.617551740818812 a26.88245790993035,26.88245790993035 0 0,0 -0.4407169738038205,-0.14110365762866078 l 1.8418389896078367 -5.5866752365304455" fill="#ff4906" stroke="none" /><path d="M 91.7346041902142 119.30500536409082 l -11.541992533118599 26.95796219466534 a50.32489245203759,50.32489245203759 0 0,0 -0.7934062590924872,-0.3478059879254822 l 12.00431946686883 -26.755291653445404" fill="#93ff23" stroke="none" /><path d="M 90.7491055286396 118.85261126421891 l -0.8972547340220284 1.828536122411297 a23.036813788417557,23.036813788417557 0 0,0 -0.35448839786509695,-0.17774784174798366 l 0.9285970395698858 -1.812820439754011" fill="#ff1302" stroke="none" /><path d="M 90.10565033884886 118.52300852407294 l -0.7344518615650354 1.3749522260877554 a22.558817872934494,22.558817872934494 0 0,0 -0.34093591352759073,-0.18590544372191378 l 0.7580105869612667 -1.3621061306060758" fill="#ff0c01" stroke="none" /><line stroke="#e1ed5e" stroke-width="0.3" x1="58.666819895761336" x2="56.23545636021788" y1="174.27360380694188" y2="178.64263932499728" /><path d="M 58.180547188652646 175.14741091055294 a86.0,86.0 0 0,1 -31.652253787137756,-30.449443065178592" fill="none" id="id80" stroke="none" /><text fill="#e1ed5e" style="font-size:6.75px; font-family:Arial;" text-anchor="middle"><textPath startOffset="22.20632615414155" xlink:href="#id80">August</textPath></text><path d="M 88.54995079064634 117.60387380957326 l -1.1233500644042616 1.72709413000548 a23.06028383993479,23.06028383993479 0 0,0 -0.3308879512004924,-0.2192944912871842 l 1.1529127143447158 -1.7075016176269775" fill="#ff1302" stroke="none" /><path d="M 84.67929136418377 114.36230785411682 l -2.757241670119005 2.5847599243465806 a24.77933400137495,24.77933400137495 0 0,0 -0.2890374700528743,-0.313693088148758 l 2.801325548167608 -2.5369155813964785" fill="#ff2c04" stroke="none" /><path d="M 84.19399662182784 113.82643327865904 l -7.806733792835833 6.829005494201008 a31.372097596534296,31.372097596534296 0 0,0 -0.3520509423380893,-0.40951478088331256 l 7.923127244744701 -6.693613614156165" fill="#ff860c" stroke="none" /><path d="M 83.95833913139862 113.55231037782056 l -1.7340995362984628 1.4650013695246789 a23.270094758925215,23.270094758925215 0 0,0 -0.25586466489010884,-0.3082054715757674 l 1.759060201082108 -1.4349346408351504" fill="#ff1602" stroke="none" /><path d="M 83.72743513129214 113.27417163493432 l -8.81779262538325 7.193020503834676 a32.3794995827079,32.3794995827079 0 0,0 -0.34859166058463625,-0.43492169499744077 l 8.940302198022748 -7.040170975258976" fill="#ff940d" stroke="none" /><line stroke="#e1ed5e" stroke-width="0.3" x1="26.63291911575756" x2="22.317208475507996" y1="142.92168965132927" y2="145.44649492493687" /><path d="M 25.769776987707644 143.4266507060508 a86.0,86.0 0 0,1 -11.730757126820373,-40.83630448921669" fill="none" id="id81" stroke="none" /><text fill="#e1ed5e" style="font-size:6.75px; font-family:Arial;" text-anchor="middle"><textPath startOffset="21.46611528233685" xlink:href="#id81">September</textPath></text><path d="M 80.87730276802145 108.67885076344099 l -3.3629892987293415 1.5262952651842618 a24.69313880864123,24.69313880864123 0 0,0 -0.1723333161130664,-0.3885661331682031 l 3.388763699573688 -1.4681807955233628" fill="#ff2a04" stroke="none" /><path d="M 79.86692584326677 105.97154293290107 l -5.448325554278525 1.6159931516924064 a26.68292928090093,26.68292928090093 0 0,0 -0.12681680055625166,-0.4414659195375502 l 5.475334991720881 -1.5219697566502604" fill="#ff4606" stroke="none" /><path d="M 79.76711848015287 105.62410040840567 l -7.632515656071782 2.121597676355115 a28.921898253606663,28.921898253606663 0 0,0 -0.12920090052468106,-0.48080461476707775 l 7.667904632938239 -1.9899021284124983" fill="#ff6509" stroke="none" /><path d="M 79.67330655649465 105.27499134158121 l -1.7904864515274919 0.46465011907992976 a22.84979497952192,22.84979497952192 0 0,0 -0.09552159380379045,-0.3815612845140752 l 1.798219359626341 -0.43376099516846267" fill="#ff1001" stroke="none" /><path d="M 79.58551787078972 104.9243191809786 l -7.370037170416558 1.7777779114405319 a28.581420855995766,28.581420855995766 0 0,0 -0.11124900788903436,-0.47925781432891673 l 7.399546744236148 -1.650651439763041" fill="#ff6108" stroke="none" /><path d="M 79.50377843672027 104.57218783832718 l -1.8730004188695333 0.4178189482338253 a22.91903706128586,22.91903706128586 0 0,0 -0.0825805224167792,-0.3857887082596823 l 1.8799149800107533 -0.38551642055797924" fill="#ff1101" stroke="none" /><path d="M 79.4281124754447 104.21870165774334 l -0.721123825089912 0.14788172804822855 a21.73613081487113,21.73613081487113 0 0,0 -0.07200876560191745,-0.3671711444395601 l 0.723562523667496 -0.13544685654071356" fill="#ff0000" stroke="none" /><path d="M 79.29508885075956 103.50808413554451 l -2.2512491199384717 0.3814346879293136 a23.283334189552523,23.283334189552523 0 0,0 -0.06355046992213946,-0.39572883686882954 l 2.257481344221902 -0.34262662136727035" fill="#ff1602" stroke="none" /><path d="M 79.1416061653843 102.43462659150553 l -5.126517181676899 0.5983756540068481 a26.16132074544264,26.16132074544264 0 0,0 -0.048358202906231856,-0.4477369000125733 l 5.1360576860841824 -0.5100424321094926" fill="#ff3f05" stroke="none" /><path d="M 79.07016306316243 101.71520430193888 l -4.531346579456286 0.37134475390871363 a25.546537006272544,25.546537006272544 0 0,0 -0.03214416294831565,-0.43858156477337495 l 4.537067301068937 -0.29329005263857805" fill="#ff3705" stroke="none" /><path d="M 79.04373962182676 101.35467743843564 l -4.142815194100258 0.26780437796532125 a25.15146202166482,25.15146202166482 0 0,0 -0.024209658474833664,-0.43227971519685277 l 4.146811203462623 -0.19645294643303088" fill="#ff3104" stroke="none" /><path d="M 79.0235259727143 100.99374915477108 l -22.543641419652527 1.0679928655836555 a43.56892503463137,43.56892503463137 0 0,0 -0.029041524973845656,-0.7494327164595399 l 22.558685077477573 -0.6797829021101187" fill="#dfff1b" stroke="none" /><line stroke="#e1ed5e" stroke-width="0.3" x1="15.007084014347285" x2="10.007500721073583" y1="101.09737516637583" y2="101.16192664675087" /><path d="M 14.007167355692545 101.11028546245083 a86.0,86.0 0 0,1 10.666146001902534,-42.60595125391555" fill="none" id="id82" stroke="none" /><text fill="#e1ed5e" style="font-size:6.75px; font-family:Arial;" text-anchor="middle"><textPath startOffset="22.20632615414155" xlink:href="#id82">October</textPath></text><path d="M 79.01574976396665 99.18683210126434 l -29.10770111346442 -1.1279625378664728 a50.129547947017784,50.129547947017784 0 0,0 0.0408350326790139,-0.8619629996989265 l 29.083972472551906 1.6288366441884086" fill="#95ff23" stroke="none" /><path d="M 79.12142395522702 97.74499172005258 l -11.624479741578261 -1.2555117748991624 a32.69208446254447,32.69208446254447 0 0,0 0.06524351044771878,-0.5589665539756709 l 11.601145878126953 1.4554220671996951" fill="#ff980e" stroke="none" /><path d="M 79.16333360222342 97.38593545837743 l -6.63777048782182 -0.8327416745269413 a27.689802369688678,27.689802369688678 0 0,0 0.06340173729678593,-0.4724165857578087 l 6.6224527514672005 0.9468766023494094" fill="#ff5407" stroke="none" /><path d="M 79.3925641242962 95.95851677861259 l -9.48707859376367 -1.8605841691291958 a30.667803974774365,30.667803974774365 0 0,0 0.10605321511376392,-0.5171531409274461 l 9.453646082734911 2.0236129662200444" fill="#ff7d0b" stroke="none" /><path d="M 79.62865764111835 94.90015583598534 l -5.457746780972627 -1.366314383179461 a26.626172315073557,26.626172315073557 0 0,0 0.11513114830771189,-0.4436472793807677 l 5.4334193007946086 1.4600580881090925" fill="#ff4606" stroke="none" /><path d="M 79.71946130924805 94.55025226153421 l -8.097952253692783 -2.176066309367341 a29.385230783100226,29.385230783100226 0 0,0 0.13547043284593907,-0.48735922515140684 l 8.059295050280484 2.3151368379376907" fill="#ff6c09" stroke="none" /><path d="M 79.81627453868168 94.20196356495316 l -1.0578926289522925 -0.303893353027814 a22.100676148740437,22.100676148740437 0 0,0 0.10818186561592708,-0.3647354707707194 l 1.0525048662246583 0.3220582105450726" fill="#ff0500" stroke="none" /><path d="M 80.38941819471856 92.48833698450439 l -1.105647890114536 -0.4235088202277297 a22.183983520884226,22.183983520884226 0 0,0 0.1396602719418651,-0.35542015861797543 l 1.0981940682909797 0.4424779837414685" fill="#ff0701" stroke="none" /><path d="M 80.803312248108 91.48605970444005 l -13.364750739454795 -5.927412652192773 a35.62021829786178,35.62021829786178 0 0,0 0.2534084801409608,-0.558351995423669 l 13.260739942350483 6.156586656458513" fill="#ffbe11" stroke="none" /><path d="M 80.95270993114464 91.15688171328213 l -8.01681883199085 -3.7219823375505947 a29.838695418782216,29.838695418782216 0 0,0 0.22029739195875472,-0.4640024903045447 l 7.951563246190344 3.859427243495672" fill="#ff720a" stroke="none" /><path d="M 81.10775173730289 90.83032412892265 l -15.655991879684752 -7.5989034751564795 a38.402684153931546,38.402684153931546 0 0,0 0.2937622230972259,-0.5922067161501715 l 15.522869643634113 7.867269779805612" fill="#ffe115" stroke="none" /><path d="M 81.26839172434947 90.50648371742162 l -6.186793205231704 -3.1355781717452498 a27.936011868172262,27.936011868172262 0 0,0 0.2210810308389205,-0.4270581829020143 l 6.131902741232669 3.2416090769075994" fill="#ff5808" stroke="none" /><path d="M 81.43458229118936 90.18545643968196 l -7.368441450157044 -3.895300968633702 a29.33470449629926,29.33470449629926 0 0,0 0.23983481780162197,-0.4443774927902482 l 7.30029853313695 4.021559444756423" fill="#ff6b09" stroke="none" /><line stroke="#e1ed5e" stroke-width="0.3" x1="26.266209847984243" x2="21.928928074336255" y1="57.711370442889674" y2="55.22380399835377" /><path d="M 25.398753493254645 57.213857153982495 a86.0,86.0 0 0,1 29.58750427330803,-30.492523968695096" fill="none" id="id83" stroke="none" /><text fill="#e1ed5e" style="font-size:6.75px; font-family:Arial;" text-anchor="middle"><textPath startOffset="21.46611528233685" xlink:href="#id83">November</textPath></text><path d="M 82.34701348167596 88.62581576622439 l -5.656980994063863 -3.64490982682505 a27.729546909925332,27.729546909925332 0 0,0 0.2619826384252177,-0.3990175319173018 l 5.593401720280725 3.741745422720019" fill="#ff5507" stroke="none" /><path d="M 82.54541684631803 88.32363383020206 l -10.995824489003581 -7.355734132519433 a34.22932276502778,34.22932276502778 0 0,0 0.33182155579465145,-0.4869071884992408 l 10.86757846754019 7.5439193442890895" fill="#ffac0f" stroke="none" /><path d="M 82.95767976084542 87.72973835380427 l -4.137175470164665 -2.9787156198668843 a26.097937584452282,26.097937584452282 0 0,0 0.2656240475277661,-0.36231090231356744 l 4.085288810123265 3.0494889658519524" fill="#ff3e05" stroke="none" /><path d="M 83.84228863543731 86.58626213691792 l -48.47313409368807 -40.241213589246236 a84.0,84.0 0 0,0 0.9331575460515031,-1.1045642014835364 l 47.77326593414944 41.06963674035889" fill="#4dd2ff" stroke="none" /><path d="M 85.57189188830299 84.74124197986013 l -5.617549455123538 -5.940961014313935 a29.176299875515625,29.176299875515625 0 0,0 0.3678882946225551,-0.34191207593691564 l 5.514453276706127 6.036777676325498" fill="#ff6909" stroke="none" /><path d="M 89.00827224532344 82.1063720568725 l -3.7716239073710423 -6.139893240276865 a28.20579183023284,28.20579183023284 0 0,0 0.41588490966706704,-0.2505660047063959 l 3.665376931486326 6.203905854441881" fill="#ff5b08" stroke="none" /><line stroke="#e1ed5e" stroke-width="0.3" x1="56.762969772571076" x2="54.21961505331055" y1="26.818313649435495" y2="22.513508569990535" /><path d="M 56.25429882871897 25.957352633546506 a86.0,86.0 0 0,1 42.265352541879196,-11.944610805530505" fill="none" id="id84" stroke="none" /><text fill="#e1ed5e" style="font-size:6.75px; font-family:Arial;" text-anchor="middle"><textPath startOffset="22.20632615414155" xlink:href="#id84">December</textPath></text><path d="M 89.3179101791058 81.91981866633112 l -4.037188496066734 -6.833222834759705 a28.936738956413713,28.936738956413713 0 0,0 0.4310241189221082,-0.24967699036150615 l 3.918967644679306 6.9017039825112585" fill="#ff6509" stroke="none" /><path d="M 90.58718382345135 81.22770947309562 l -2.1688861507481065 -4.32548136264057 a25.838786640621578,25.838786640621578 0 0,0 0.3993061281175644,-0.19593778289981362 l 2.094108755620116 4.362174305675213" fill="#ff3b05" stroke="none" /><path d="M 90.91171255644093 81.06846463323043 l -1.271874404701192 -2.6494029182312264 a23.938877391873664,23.938877391873664 0 0,0 0.3730153466499173,-0.17513570684186858 l 1.2260808467516664 2.6709036077131025" fill="#ff2003" stroke="none" /><path d="M 93.25333710446033 80.11325718540243 l -2.0331998318645423 -5.993143984369606 a27.328639377755664,27.328639377755664 0 0,0 0.44678054014885876,-0.14729651963002913 l 1.9297364694732744 6.027254228258869" fill="#ff4f07" stroke="none" /><path d="M 93.59665428221793 80.00007090966166 l -1.8840896546077972 -5.8846829693037055 a27.178939025092674,27.178939025092674 0 0,0 0.44678891931739034,-0.1388194920889291 l 1.7825153625796781 5.9162425962751595" fill="#ff4d07" stroke="none" /><path d="M 93.94186890950719 79.89281104454417 l -0.8572461022080407 -2.845235453137564 a23.97157124490425,23.97157124490425 0 0,0 0.39611284373912947,-0.11563620121682226 l 0.8081430407454899 2.859569983273085" fill="#ff2003" stroke="none" /><path d="M 94.63758080256005 79.69619591428918 l -0.8126429180601126 -3.0769214401981015 a24.18242581397022,24.18242581397022 0 0,0 0.4033756577461041,-0.10282943669315621 l 0.7595583716290091 3.090453873060121" fill="#ff2303" stroke="none" /><path d="M 95.33964822691252 79.52364482259891 l -2.696796793346054 -11.84901305105698 a33.15202959298241,33.15202959298241 0 0,0 0.5575181171352155,-0.12185186644307476 l 2.492435952057318 11.893678415595923" fill="#ff9e0e" stroke="none" /><path d="M 95.692805502759 79.44645832069477 l -5.425348321186717 -25.88927036280534 a47.45162989920724,47.45162989920724 0 0,0 0.8008786458006003,-0.16064872207247533 l 4.97890326591898 25.978823040955028" fill="#b2ff20" stroke="none" /><path d="M 96.04723909329186 79.375362276772 l -2.0780614728099556 -10.842868074961851 a32.04020505134773,32.04020505134773 0 0,0 0.5425549160534752,-0.09914844298502586 l 1.891111435653587 10.877031999297614" fill="#ff8f0d" stroke="none" /><path d="M 96.40284397218896 79.31037775812273 l -2.9042485345850833 -16.704253196838962 a37.95484398084348,37.95484398084348 0 0,0 0.6446373492153419,-0.10637068608647823 l 2.6162819792308554 16.75177014586507" fill="#ffdb14" stroke="none" /><path d="M 97.11714578562143 79.19881850522333 l -4.344924157754541 -31.350720246522844 a52.650371655201404,52.650371655201404 0 0,0 0.8987801322370031,-0.11668745632688005 l 3.80462929700968 31.42086602601386" fill="#7aff26" stroke="none" /><path d="M 97.83486435360386 79.11191278185805 l -0.7304428532013437 -7.046927545132902 a28.08468309722783,28.08468309722783 0 0,0 0.48128436953932635,-0.04570375011007018 l 0.609033356571781 7.058456839758152" fill="#ff5a08" stroke="none" /><path d="M 98.19473922651362 79.07773832637324 l -0.6338228591646625 -7.345757415732933 a28.373051161330366,28.373051161330366 0 0,0 0.48694885696513723,-0.03779660319769359 l 0.5072838128371912 7.355579281119089" fill="#ff5e08" stroke="none" /><path d="M 98.55514903715128 79.0497635885617 l -0.42620855848427686 -6.179993847406163 a27.194673331928268,27.194673331928268 0 0,0 0.4672795336937495,-0.02818757755745941 l 0.31976697595090436 6.186414694343928" fill="#ff4e07" stroke="none" /><path d="M 98.91598698831166 79.02799685794201 l -0.16798397788653247 -3.249924561850774 a24.254263092398574,24.254263092398574 0 0,0 0.4171261652124289,-0.01796233012224613 l 0.11201698028477945 3.252334618497213" fill="#ff2403" stroke="none" /><path d="M 99.27714615592234 79.0124445844662 l -0.2399992657560064 -6.968210698483114 a27.97234250349321,27.97234250349321 0 0,0 0.4813552158080306,-0.012431985088105247 l 0.12001741475309681 6.971309475713579" fill="#ff5808" stroke="none" /><path d="M 99.63851952072746 79.00311137660856 l -0.39028424612167395 -22.669978926033746 a43.67333822575725,43.67333822575725 0 0,0 0.751764725394204,-0.0064706763320619524 l 5.553366216831788e-15 22.67333822575725" fill="#deff1b" stroke="none" /></svg>