<?xml version="1.0" encoding="utf-8" ?>
<svg baseProfile="full" height="200mm" version="1.1" viewBox="0,0,200,200" width="200mm" xmlns="http://www.w3.org/2000/svg" xmlns:ev="http://www.w3.org/2001/xml-events" xmlns:xlink="http://www.w3.org/1999/xlink"><defs /><rect fill="#1a1a1a" height="200" width="200" x="0" y="0" /><text alignment-baseline="middle" fill="#e1ed5e" style="dominant-baseline: central; font-size:9.0px; font-family:Arial;" text-anchor="middle" x="100.0" y="100.0">2024</text><line stroke="#e1ed5e" stroke-width="0.3" x1="100.0" x2="100.0" y1="15.0" y2="10.0" /><path d="M 100.0 14.0 a86.0,86.0 0 0,1 42.35913384403234,11.155469271406648" fill="none" id="id85" stroke="none" /><text fill="#e1ed5e" style="font-size:6.75px; font-family:Arial;" text-anchor="middle"><textPath startOffset="22.145653131862478" xlink:href="#id85">January</textPath></text><path d="M 100.36049292484886 79.00309439819443 l 0.15649394206005585 -9.114987568943576 a30.11633088122066,30.11633088122066 0 0,0 0.5168345085062906,0.013311823600907402 l -0.31294176463708784 9.110958027992623" fill="#ff6f0a" stroke="none" /><path d="M 102.15924093988457 79.11130261209362 l 4.081883423480675 -39.488519336039126 a60.69892859556316,60.69892859556316 0 0,0 1.0355355679565266,0.1160339203100268 l -4.759154893037998 39.41262965522213" fill="#30ff35" stroke="none" /><path d="M 102.87502721639298 79.19773525538626 l 2.469410507943273 -17.86742430000896 a39.0372625243769,39.0372625243769 0 0,0 0.6630291184879678,0.09744244775607605 l -2.775764732038923 17.822400778954" fill="#ffe415" stroke="none" /><path d="M 103.23170211078529 79.25015418208739 l 0.7089183171979503 -4.551764140098002 a25.60663890136191,25.60663890136191 0 0,0 0.4337551204005161,0.07137423999872357 l -0.7869509406515369 4.53892390160361" fill="#ff3004" stroke="none" /><path d="M 103.58742460773223 79.30868818359171 l 2.1465232962210448 -12.38057595623466 a33.56527847957678,33.56527847957678 0 0,0 0.5668780207329611,0.10330405907796533 l -2.3587360505050596 12.341903723225329" fill="#ff9d0e" stroke="none" /><path d="M 103.94208987418118 79.37332000966035 l 0.43325922917257614 -2.2669953649547967 a23.308025464415362,23.308025464415362 0 0,0 0.39235566271451333,0.07848212110410728 l -0.47211137741804643 2.2592238471878305" fill="#ff0f01" stroke="none" /><path d="M 104.64783097203109 79.52079915486377 l 0.2828944476812925 -1.2464851340123841 a22.278184046936424,22.278184046936424 0 0,0 0.37222373595881125,0.08784378817359191 l -0.30425033737998874 1.2414452021925646" fill="#ff0000" stroke="none" /><path d="M 107.40779381753099 80.34994680014964 l 2.807900257219623 -7.448289030893819 a28.959981993838127,28.959981993838127 0 0,0 0.4636737725722106,0.1793589760780469 l -2.9353462922853595 7.398990166677733" fill="#ff5f08" stroke="none" /><path d="M 107.74402155503746 80.48000691201159 l 2.1643066874362322 -5.455466682109195 a26.86910045551145,26.86910045551145 0 0,0 0.4272769632830463,0.17376982124331244 l -2.257638111909718 5.41750960428659" fill="#ff4206" stroke="none" /><path d="M 110.34350942703115 81.72400993836675 l 3.004537828865813 -5.308730454351564 a27.09998906573163,27.09998906573163 0 0,0 0.4028962241534423,0.2326122434704737 l -3.0952265208796526 5.256371313604919" fill="#ff4506" stroke="none" /><line stroke="#e1ed5e" stroke-width="0.3" x1="143.13028292997686" x2="145.6673583964461" y1="26.7553504044142" y2="22.446841604673864" /><path d="M 143.63769802327073 25.89364864446614 a86.0,86.0 0 0,1 29.32050498858742,28.57503671076993" fill="none" id="id86" stroke="none" /><text fill="#e1ed5e" style="font-size:6.75px; font-family:Arial;" text-anchor="middle"><textPath startOffset="20.669276256404974" xlink:href="#id86">February</textPath></text><path d="M 112.45986205192187 83.09580414077388 l 3.001340036658217 -4.071894183770817 a26.05849426800843,26.05849426800843 0 0,0 0.3578042350317219,0.26850296846413124 l -3.0707972606007052 4.019772188042671" fill="#ff3705" stroke="none" /><path d="M 113.03279911837588 83.53348406188908 l 6.359704228056772 -8.035278537003839 a31.247513797775426,31.247513797775426 0 0,0 0.41774835366851665,0.33650850286099665 l -6.496703352080549 7.924921740349434" fill="#ff7e0b" stroke="none" /><path d="M 113.31354834802062 83.75963576809568 l 7.818656170641047 -9.537489232471614 a33.33268361607543,33.33268361607543 0 0,0 0.4393972541043358,0.3665608170787164 l -7.981227758907275 9.401866231481028" fill="#ff9a0e" stroke="none" /><path d="M 113.59037401385872 83.9905735841838 l 8.510211943525336 -10.025008270849291 a34.150075975229875,34.150075975229875 0 0,0 0.44365911874762204,0.38322218001611996 l -8.681050542035818 9.87744195836845" fill="#ffa50f" stroke="none" /><path d="M 114.13192950727249 84.46653392183569 l 7.688131902474132 -8.450603723297501 a32.42453830305847,32.42453830305847 0 0,0 0.4085032149466325,0.37810447715571893 l -7.832064888734729 8.317381500009407" fill="#ff8e0d" stroke="none" /><path d="M 114.91283532996326 85.21462403516908 l 9.93068739429194 -9.845810234275232 a34.98422437221699,34.98422437221699 0 0,0 0.41916631445482144,0.43010156516747966 l -10.098240509897574 9.67388597704001" fill="#ffb010" stroke="none" /><path d="M 115.16444852881244 85.47280134310134 l 12.877524450820442 -12.336377122497879 a38.83302656561604,38.83302656561604 0 0,0 0.45701695114556395,0.4853361646832492 l -13.087397235702266 12.113499497870134" fill="#ffe115" stroke="none" /><path d="M 116.35404254752997 86.82634096563983 l 11.065108245281024 -8.913267944483588 a35.20855256280332,35.20855256280332 0 0,0 0.375111196991441,0.4739407434826782 l -11.216485872914024 8.722007257086231" fill="#ffb310" stroke="none" /><path d="M 116.7966241395341 87.39550010848427 l 24.053560068027927 -18.050239902339964 a51.07299307482136,51.07299307482136 0 0,0 0.5202100034530258,0.705764778907981 l -24.35987209106478 17.634668814163106" fill="#8eff24" stroke="none" /><path d="M 117.01052211995028 87.68569379921539 l 1.7392195154539718 -1.259060804404224 a23.147118681424704,23.147118681424704 0 0,0 0.23024207643260508,0.32386431450764075 l -1.7605766904165376 1.2290192631870793" fill="#ff0d01" stroke="none" /><path d="M 117.42321728460499 88.27688183743584 l 9.419332988913538 -6.33774760641605 a32.353011876972,32.353011876972 0 0,0 0.30608346606008957,0.46344937947279025 l -9.526740893894353 6.175118348604201" fill="#ff8d0d" stroke="none" /><path d="M 117.81537515405839 88.88188828441811 l 7.84972440205515 -4.898808589989035 a30.252918393110924,30.252918393110924 0 0,0 0.2711699242999937,0.44293569213306605 l -7.932662290810547 4.763335781731414" fill="#ff710a" stroke="none" /><line stroke="#e1ed5e" stroke-width="0.3" x1="172.87174338648825" x2="177.1583165268699" y1="56.24261187166439" y2="53.66864786411523" /><path d="M 173.72905801456457 55.72781907015455 a86.0,86.0 0 0,1 12.242430191666344,42.057860355516425" fill="none" id="id87" stroke="none" /><text fill="#e1ed5e" style="font-size:6.75px; font-family:Arial;" text-anchor="middle"><textPath startOffset="22.145653131862474" xlink:href="#id87">March</textPath></text><path d="M 118.18653347947321 89.5 l 3.948550596573589 -2.2796967498406198 a25.55939349968124,25.55939349968124 0 0,0 0.21611883313490066,0.3818612700427428 l -3.987102794729866 2.211578709698759" fill="#ff2f04" stroke="none" /><path d="M 118.36410011445183 89.81374322990088 l 10.010846383525648 -5.5528477362395545 a32.44775800305061,32.44775800305061 0 0,0 0.26600154451339,0.48941288152628754 l -10.104693277654379 5.380180021238664" fill="#ff8f0d" stroke="none" /><path d="M 119.0197475246899 91.09779779509293 l 7.955197105786604 -3.7234339269578993 a29.783457246456926,29.783457246456926 0 0,0 0.212761013204473,0.46492121110126117 l -8.017942583846128 3.586323733641954" fill="#ff6b09" stroke="none" /><path d="M 119.31412917781788 91.75594674310238 l 57.94238753345363 -24.732159770692828 a84.0,84.0 0 0,0 0.5546966218540672,1.3310699622348887 l -58.358409999844184 23.733857299016663" fill="#4dd2ff" stroke="none" /><path d="M 119.94978838288452 93.4421083053983 l 8.794794848545198 -2.891023753539237 a30.25777698864718,30.25777698864718 0 0,0 0.15796761809993815,0.4948313137886483 l -8.843127182422393 2.7396234060592013" fill="#ff710a" stroke="none" /><path d="M 120.05942366710727 93.78553927170692 l 5.459866857918371 -1.6914807091830886 a26.71587728137457,26.71587728137457 0 0,0 0.1319556717121742,0.43923751487350154 l -5.488098849634173 1.5975055907188636" fill="#ff4006" stroke="none" /><line stroke="#e1ed5e" stroke-width="0.3" x1="184.99686870605535" x2="189.99668451229388" y1="99.2704041080226" y2="99.22748670261217" /><path d="M 185.99683186730306 99.26182062694052 a86.0,86.0 0 0,1 -10.086455211305974,41.156179273409016" fill="none" id="id88" stroke="none" /><text fill="#e1ed5e" style="font-size:6.75px; font-family:Arial;" text-anchor="middle"><textPath startOffset="21.40746469413373" xlink:href="#id88">April</textPath></text><line stroke="#e1ed5e" stroke-width="0.3" x1="174.33088141563837" x2="178.70328620479359" y1="141.23008692659167" y2="143.65538615756765" /><path d="M 175.20536237346943 141.71514677278685 a86.0,86.0 0 0,1 -30.301960400862466,31.631185727798858" fill="none" id="id89" stroke="none" /><text fill="#e1ed5e" style="font-size:6.75px; font-family:Arial;" text-anchor="middle"><textPath startOffset="22.145653131862474" xlink:href="#id89">May</textPath></text><line stroke="#e1ed5e" stroke-width="0.3" x1="143.1302829299769" x2="145.66735839644613" y1="173.24464959558577" y2="177.55315839532614" /><path d="M 143.63769802327073 174.10635135553383 a86.0,86.0 0 0,1 -40.68552437913181,11.842963189579606" fill="none" id="id90" stroke="none" /><text fill="#e1ed5e" style="font-size:6.75px; font-family:Arial;" text-anchor="middle"><textPath startOffset="21.407464694133747" xlink:href="#id90">June</textPath></text><line stroke="#e1ed5e" stroke-width="0.3" x1="101.45913802915013" x2="101.54496967792366" y1="184.9874750549273" y2="189.98673829345242" /><path d="M 101.47630435890484 185.9873277026323 a86.0,86.0 0 0,1 -42.54439059252881,-10.42667462771756" fill="none" id="id91" stroke="none" /><text fill="#e1ed5e" style="font-size:6.75px; font-family:Arial;" text-anchor="middle"><textPath startOffset="22.145653131862474" xlink:href="#id91">July</textPath></text><line stroke="#e1ed5e" stroke-width="0.3" x1="58.13341422392154" x2="55.67067388415222" y1="173.97424548756322" y2="178.32567169271397" /><path d="M 57.64086615596768 174.84453072859336 a86.0,86.0 0 0,1 -31.369924170532247,-30.572349798747897" fill="none" id="id92" stroke="none" /><text fill="#e1ed5e" style="font-size:6.75px; font-family:Arial;" text-anchor="middle"><textPath startOffset="22.145653131862474" xlink:href="#id92">August</textPath></text><line stroke="#e1ed5e" stroke-width="0.3" x1="26.387840678322732" x2="22.057713659400548" y1="142.50000000000003" y2="145.00000000000006" /><path d="M 25.521815274538298 143.00000000000003 a86.0,86.0 0 0,1 -11.493303480769221,-40.785679425670985" fill="none" id="id93" stroke="none" /><text fill="#e1ed5e" style="font-size:6.75px; font-family:Arial;" text-anchor="middle"><textPath startOffset="21.40746469413373" xlink:href="#id93">September</textPath></text><line stroke="#e1ed5e" stroke-width="0.3" x1="15.003131293944662" x2="10.003315487706104" y1="100.72959589197737" y2="100.7725132973878" /><path d="M 14.003168132696942 100.73817937305945 a86.0,86.0 0 0,1 10.791469493833604,-42.45332614584628" fill="none" id="id94" stroke="none" /><text fill="#e1ed5e" style="font-size:6.75px; font-family:Arial;" text-anchor="middle"><textPath startOffset="22.145653131862435" xlink:href="#id94">October</textPath></text><line stroke="#e1ed5e" stroke-width="0.3" x1="26.387840678322718" x2="22.05771365940052" y1="57.49999999999999" y2="54.99999999999999" /><path d="M 25.521815274538284 56.99999999999999 a86.0,86.0 0 0,1 29.574782752854787,-30.34633250058573" fill="none" id="id95" stroke="none" /><text fill="#e1ed5e" style="font-size:6.75px; font-family:Arial;" text-anchor="middle"><textPath startOffset="21.40746469413373" xlink:href="#id95">November</textPath></text><line stroke="#e1ed5e" stroke-width="0.3" x1="56.869717070023135" x2="54.33264160355391" y1="26.7553504044142" y2="22.446841604673864" /><path d="M 56.362301976729285 25.89364864446614 a86.0,86.0 0 0,1 42.16139366436587,-11.88097634709845" fill="none" id="id96" stroke="none" /><text fill="#e1ed5e" style="font-size:6.75px; font-family:Arial;" text-anchor="middle"><textPath startOffset="22.145653131862474" xlink:href="#id96">December</textPath></text></svg>