<?xml version="1.0" encoding="utf-8" ?>
<svg baseProfile="full" height="200mm" version="1.1" viewBox="0,0,200,200" width="200mm" xmlns="http://www.w3.org/2000/svg" xmlns:ev="http://www.w3.org/2001/xml-events" xmlns:xlink="http://www.w3.org/1999/xlink"><defs /><rect fill="#1a1a1a" height="200" width="200" x="0" y="0" /><text alignment-baseline="middle" fill="#e1ed5e" style="dominant-baseline: central; font-size:9.0px; font-family:Arial;" text-anchor="middle" x="100.0" y="100.0">2022</text><line stroke="#e1ed5e" stroke-width="0.3" x1="100.0" x2="100.0" y1="15.0" y2="10.0" /><path d="M 100.0 14.0 a86.0,86.0 0 0,1 42.46469731375804,11.215312516191453" fill="none" id="id61" stroke="none" /><text fill="#e1ed5e" style="font-size:6.75px; font-family:Arial;" text-anchor="middle"><textPath startOffset="22.20632615414155" xlink:href="#id61">January</textPath></text><path d="M 100.0 79.0 l 0.0 -25.907859013058555 a46.907859013058555,46.907859013058555 0 0,0 0.807441683699457,0.006949905490038462 l -0.4459612044269286 25.904020484177074" fill="#c5ff1e" stroke="none" /><path d="M 100.36148047927253 79.00311137660856 l 0.13156866120519384 -7.642273052237051 a28.643405505241752,28.643405505241752 0 0,0 0.49290303937652663,0.012730231301481019 l -0.26309833577658825 7.638876028793209" fill="#ff4a06" stroke="none" /><path d="M 101.80526077348638 79.07773832637324 l 1.2065835194728762 -13.983827985551455 a35.03578601001581,35.03578601001581 0 0,0 0.6004047160784686,0.05701566235119177 l -1.4471133626415889 13.960986778685085" fill="#ffa30f" stroke="none" /><path d="M 103.59715602781102 79.31037775812273 l 4.359420516802747 -25.073909218506788 a46.450058364181416,46.450058364181416 0 0,0 0.786565113302758,0.14373974685840146 l -4.790380751208406 24.99515399029765" fill="#cbff1d" stroke="none" /><path d="M 105.01212808612495 79.60689891045804 l 2.472398151593428 -10.059572415680782 a31.358945400296705,31.358945400296705 0 0,0 0.5230838016159788,0.13334570797859804 l -2.6451908418944323 10.015523711533314" fill="#ff710a" stroke="none" /><path d="M 105.36241919743992 79.69619591428918 l 4.251241050601488 -16.096534462235326 a37.64846756203852,37.64846756203852 0 0,0 0.6251476241131183,0.170876460758427 l -4.5276865639383175 16.020971460650607" fill="#ffc612" stroke="none" /><path d="M 106.0581310904928 79.89281104454417 l 5.641980860049965 -18.72596903921765 a40.557450357418986,40.557450357418986 0 0,0 0.6667154813780926,0.20715174546883944 l -5.9634817141387755 18.626077158866288" fill="#ffeb16" stroke="none" /><path d="M 106.74666289553966 80.11325718540242 l 5.58633420500042 -16.46650993703556 a38.38830294641914,38.38830294641914 0 0,0 0.6239342204325575,0.21767839823935356 l -5.868950429496251 16.367910685623997" fill="#ffcf13" stroke="none" /><path d="M 107.08798089147638 80.2323363322302 l 7.667329734139315 -21.38340914499654 a43.71647269965869,43.71647269965869 0 0,0 0.7061619140288036,0.2600853924823512 l -8.034273973940696 21.248260484707863" fill="#ecff1a" stroke="none" /><path d="M 107.76421540070413 80.48803036053334 l 2.0630755618243324 -5.18464077163435 a26.580034113219202,26.580034113219202 0 0,0 0.42365553164692327,0.1728197287156753 l -2.152014963059643 5.148360156735095" fill="#ff2d04" stroke="none" /><path d="M 108.76106565485865 80.91482961587045 l 15.04861895420401 -32.78202311239942 a57.07106834806419,57.07106834806419 0 0,0 0.8892808127569743,0.41752926554325814 l -15.610677978260583 32.51812886421616" fill="#54ff2b" stroke="none" /><path d="M 109.41281617654863 81.2277094730956 l 7.806223014262933 -15.568208662849177 a38.415689441374994,38.415689441374994 0 0,0 0.5885640566576087,0.3014853697720119 l -8.073047558509298 15.431530767764665" fill="#ffd013" stroke="none" /><path d="M 110.36928655335952 81.73862282372117 l 13.536951310372203 -23.839959714059393 a48.415191590564575,48.415191590564575 0 0,0 0.7211633394212266,0.4177443540654541 l -13.945311382258758 23.60341120260389" fill="#b4ff20" stroke="none" /><line stroke="#e1ed5e" stroke-width="0.3" x1="143.23703022742887" x2="145.7803849466894" y1="26.81831364943548" y2="22.513508569990506" /><path d="M 143.74570117128098 25.957352633546492 a86.0,86.0 0 0,1 28.547481713284135,27.462654790039103" fill="none" id="id62" stroke="none" /><text fill="#e1ed5e" style="font-size:6.75px; font-family:Arial;" text-anchor="middle"><textPath startOffset="19.985693538727396" xlink:href="#id62">February</textPath></text><path d="M 110.99172775467656 82.1063720568725 l 3.056320520486566 -4.9754382103636505 a26.839184918213665,26.839184918213665 0 0,0 0.3915720107085653,0.2452023571828183 l -3.1415116835673946 4.9220915118578885" fill="#ff3004" stroke="none" /><path d="M 111.2981086023043 82.29822771554956 l 7.352404199225216 -11.519679041797955 a34.66604744374992,34.66604744374992 0 0,0 0.5002359743420376,0.3253673926809501 l -7.5496071993515335 11.391412724957478" fill="#ff9e0e" stroke="none" /><path d="M 111.60114157652 82.49532879139004 l 8.700083037696535 -13.127336827843925 a36.74860047923251,36.74860047923251 0 0,0 0.5242718186051222,0.35399067222114855 l -8.924759550708199 12.975634243324105" fill="#ffba11" stroke="none" /><path d="M 111.90073688211348 82.69761687909136 l 4.876901947552756 -7.090487486240241 a29.605764660887104,29.605764660887104 0 0,0 0.4173973811858792,0.29241353963008654 l -4.998230468322286 7.0054891038462195" fill="#ff5808" stroke="none" /><path d="M 113.06298171725822 83.55741782278167 l 12.823412845259412 -16.141033040106716 a41.614869987506125,41.614869987506125 0 0,0 0.5570380248889776,0.4504193433955289 l -13.099354268712881 15.917907599447059" fill="#fff817" stroke="none" /><path d="M 115.9244219780498 86.31012108654704 l 3.5024404298300196 -3.0109717923857158 a25.618770409865633,25.618770409865633 0 0,0 0.28459939200628326,0.3368759128662409 l -3.5537504353234204 2.950236929890368" fill="#ff1f03" stroke="none" /><line stroke="#e1ed5e" stroke-width="0.3" x1="172.23445277983987" x2="176.4835382374775" y1="55.19839476539836" y2="52.563006222186495" /><path d="M 173.08426987136738 54.67131705675599 a86.0,86.0 0 0,1 12.851231095245387,41.99856678651699" fill="none" id="id63" stroke="none" /><text fill="#e1ed5e" style="font-size:6.75px; font-family:Arial;" text-anchor="middle"><textPath startOffset="22.20632615414155" xlink:href="#id63">March</textPath></text><path d="M 118.89224826269711 90.83032412892265 l 14.288854797800589 -6.935340105784444 a36.88301966930505,36.88301966930505 0 0,0 0.2723052374332899,0.5735442765281282 l -14.406118229075634 6.688353413615776" fill="#ffbc11" stroke="none" /><path d="M 119.04729006885535 91.15688171328212 l 4.830185093577002 -2.242518383183829 a26.325371042202683,26.325371042202683 0 0,0 0.18728330660882286,0.4126539407695053 l -4.868070717149172 2.1590424335722607" fill="#ff2904" stroke="none" /><path d="M 119.61058180528143 92.48833698450437 l 12.78083547467579 -4.8955880093471285 a34.68636319070901,34.68636319070901 0 0,0 0.2087712928034164,0.5594032701566921 l -12.863211355980832 4.674861602161103" fill="#ff9e0e" stroke="none" /><path d="M 119.7369772167798 92.82701384747503 l 8.21210686988465 -2.984516231323313 a29.7376218948544,29.7376218948544 0 0,0 0.17070374778416436,0.48260248219972646 l -8.262263698478625 2.8427161226969724" fill="#ff5a08" stroke="none" /><path d="M 120.08093135843002 93.85539295169968 l 9.624446522934047 -2.945004934543714 a31.064940384190265,31.064940384190265 0 0,0 0.1520615560986328,0.5126759733157766 l -9.67371397614438 2.7788995744814073" fill="#ff6d0a" stroke="none" /><path d="M 120.18372546131832 94.20196356495316 l 25.665537249949423 -7.372757838261794 a47.70350839253509,47.70350839253509 0 0,0 0.21992050965694873,0.791171083827578 l -25.788644530172732 6.929875451015264" fill="#bcff1f" stroke="none" /><path d="M 120.37134235888165 94.90015583598534 l 61.11402707664495 -15.299532492043943 a84.0,84.0 0 0,0 0.33906879895672226,1.4056590733623755 l -61.36832867586249 14.245288187022162" fill="#4dd2ff" stroke="none" /><path d="M 120.53481517161879 95.60439243477599 l 9.722232283940885 -2.0811055478707217 a30.942474585548645,30.942474585548645 0 0,0 0.1070030614540408,0.521784929013701 l -9.756614641309923 1.913444962693609" fill="#ff6b09" stroke="none" /><path d="M 120.73433829027371 96.67025291283417 l 4.285071725328026 -0.6881437399138384 a25.339974826884173,25.339974826884173 0 0,0 0.06545449022642683,0.43126330929003326 l -4.296282108993752 0.6142813182317229" fill="#ff1a02" stroke="none" /><path d="M 120.83666639777658 97.38593545837742 l 30.30490432396281 -3.8019025845223076 a51.54245715961205,51.54245715961205 0 0,0 0.10286315166128487,0.8812686659657968 l -30.365857828627686 3.279690180231658" fill="#90ff24" stroke="none" /><line stroke="#e1ed5e" stroke-width="0.3" x1="184.98032266829074" x2="189.97916517819016" y1="98.17113171792111" y2="98.06355123074" /><path d="M 185.9800911702706 98.14961562048488 a86.0,86.0 0 0,1 -9.607161424134198,41.387399972396054" fill="none" id="id64" stroke="none" /><text fill="#e1ed5e" style="font-size:6.75px; font-family:Arial;" text-anchor="middle"><textPath startOffset="21.466115282336823" xlink:href="#id64">April</textPath></text><path d="M 120.9764740272857 100.99374915477107 l 9.456750969114074 0.44800848179790964 a30.46735710172606,30.46735710172606 0 0,0 -0.02932649837326823,0.5236443288819875 l -9.447638119853275 -0.6107245270153204" fill="#ff6409" stroke="none" /><path d="M 120.95626037817324 101.35467743843564 l 13.479117400117724 0.8713318074146048 a34.50725083074897,34.50725083074897 0 0,0 -0.04341906276101336,0.5924186147680546 l -13.462121778692374 -1.1032235586794297" fill="#ff9c0e" stroke="none" /><path d="M 120.92983693683757 101.71520430193887 l 32.25857578934373 2.6435967052815292 a53.36671616795576,53.36671616795576 0 0,0 -0.08291003144506132,0.914905288214761 l -32.208291161621595 -3.1984833820448606" fill="#7cff26" stroke="none" /><path d="M 120.89721153311464 102.0752229133903 l 11.095282190126818 1.101830442544727 a32.14985727274855,32.14985727274855 0 0,0 -0.059427784114179406,0.5502274740335628 l -11.074672104511588 -1.2926542384630813" fill="#ff7c0b" stroke="none" /><path d="M 120.64145759157962 103.86396538481128 l 15.403493841327553 2.8834478739681213 a36.67105274580196,36.67105274580196 0 0,0 -0.12148607606563802,0.6194548845495519 l -15.35157783228625 -3.148166485585618" fill="#ffb911" stroke="none" /><path d="M 119.67450827220406 107.3425965602758 l 15.824235701875606 5.905661123827862 a37.89033063199197,37.89033063199197 0 0,0 -0.2333064999433305,0.60908965077432 l -15.720234922338769 -6.177174341435326" fill="#ffc912" stroke="none" /><line stroke="#e1ed5e" stroke-width="0.3" x1="174.80103733775053" x2="179.2010983576182" y1="140.37084112569926" y2="142.7455964860345" /><path d="M 175.68104954172406 140.8457921977663 a86.0,86.0 0 0,1 -30.038265399797805,32.042727171017184" fill="none" id="id65" stroke="none" /><text fill="#e1ed5e" style="font-size:6.75px; font-family:Arial;" text-anchor="middle"><textPath startOffset="22.206326154141568" xlink:href="#id65">May</textPath></text><path d="M 118.30583269289576 110.29060199501025 l 6.312875683538453 3.5487755292597982 a28.241975362626157,28.241975362626157 0 0,0 -0.24186966160390433,0.4217201422608561 l -6.25085402578217 -3.6569155173789696" fill="#ff4506" stroke="none" /><path d="M 114.29624159901734 115.38237550388516 l 29.16171503098428 31.377229311424433 a63.836154622118535,63.836154622118535 0 0,0 -0.8113284966164939,0.7411293452461826 l -28.61728698490092 -31.8745514232572" fill="#33ff55" stroke="none" /><line stroke="#e1ed5e" stroke-width="0.3" x1="143.8653032363475" x2="146.44561519142675" y1="172.8068346515853" y2="177.08958963109032" /><path d="M 144.38136562736335 173.6633856474863 a86.0,86.0 0 0,1 -40.68145358897372,12.25698825130547" fill="none" id="id66" stroke="none" /><text fill="#e1ed5e" style="font-size:6.75px; font-family:Arial;" text-anchor="middle"><textPath startOffset="21.466115282336833" xlink:href="#id66">June</textPath></text><path d="M 107.93186726928326 119.44442032107085 l 2.6305899575668277 6.4487081150992775 a27.96461340482002,27.96461340482002 0 0,0 -0.44727258377695955,0.17797899173897816 l -2.519196297748002 -6.493033951244325" fill="#ff4106" stroke="none" /><path d="M 107.59598834532513 119.57807347666477 l 2.200558196198233 5.671768846428088 a27.08370102997899,27.08370102997899 0 0,0 -0.4360859928695959,0.16489040810817415 l -2.102601982568362 -5.708807504642893" fill="#ff3404" stroke="none" /><line stroke="#e1ed5e" stroke-width="0.3" x1="102.19456741930631" x2="102.32365962044197" y1="184.97166512339345" y2="189.96999836594603" /><path d="M 102.22038585953345 185.97133177190398 a86.0,86.0 0 0,1 -42.740103519485714,-10.115201625700543" fill="none" id="id67" stroke="none" /><text fill="#e1ed5e" style="font-size:6.75px; font-family:Arial;" text-anchor="middle"><textPath startOffset="22.20632615414155" xlink:href="#id67">July</textPath></text><path d="M 99.45781275523022 120.99299961872073 l -0.3915427936947459 15.160182756119296 a36.16523811083199,36.16523811083199 0 0,0 -0.6221792622040085,-0.021429111799114175 l 0.6524424075733976 -15.151196845894088" fill="#ffb210" stroke="none" /><path d="M 95.16358092515715 120.4354850818985 l -2.0286192272052754 8.57159342746842 a29.808377254341842,29.808377254341842 0 0,0 -0.49829204391770954,-0.12246806100977643 l 2.1758645558661955 -8.535404108144613" fill="#ff5b08" stroke="none" /><path d="M 90.7491055286396 118.85261126421891 l -3.537152546113271 7.208444776941591 a29.029515815831743,29.029515815831743 0 0,0 -0.44670355227369185,-0.22398643452365619 l 3.6607100060697233 -7.146490501508633" fill="#ff5007" stroke="none" /><line stroke="#e1ed5e" stroke-width="0.3" x1="58.666819895761336" x2="56.23545636021788" y1="174.27360380694188" y2="178.64263932499728" /><path d="M 58.180547188652646 175.14741091055294 a86.0,86.0 0 0,1 -31.652253787137756,-30.449443065178592" fill="none" id="id68" stroke="none" /><text fill="#e1ed5e" style="font-size:6.75px; font-family:Arial;" text-anchor="middle"><textPath startOffset="22.20632615414155" xlink:href="#id68">August</textPath></text><path d="M 88.8546689885994 117.79835938074946 l -1.756283837805399 2.804669586563869 a24.30918485563028,24.30918485563028 0 0,0 -0.35273576204361323,-0.2251326524511897 l 1.8043014018959358 -2.774022505288875" fill="#ff0b01" stroke="none" /><path d="M 83.95833913139862 113.55231037782056 l -9.507338318492106 8.031986264673186 a33.44597466083581,33.44597466083581 0 0,0 -0.367752825554591,-0.44298196889380337 l 9.644187143940234 -7.867143038665621" fill="#ff8e0d" stroke="none" /><path d="M 82.6465618267979 111.8261652097733 l -8.369332652410275 5.70360234410485 a31.128020968895115,31.128020968895115 0 0,0 -0.29793502616464695,-0.445372439760959 l 8.466270783985651 -5.558692990138069" fill="#ff6e0a" stroke="none" /><path d="M 82.44556493220864 111.52570212397912 l -6.758028278150995 4.43711350314595 a29.084486529649773,29.084486529649773 0 0,0 -0.2711714768419644,-0.42086415398743626 l 6.833404618370006 -4.3201277492370656" fill="#ff5107" stroke="none" /><line stroke="#e1ed5e" stroke-width="0.3" x1="26.63291911575756" x2="22.317208475507996" y1="142.92168965132927" y2="145.44649492493687" /><path d="M 25.769776987707644 143.4266507060508 a86.0,86.0 0 0,1 -11.730757126820373,-40.83630448921669" fill="none" id="id69" stroke="none" /><text fill="#e1ed5e" style="font-size:6.75px; font-family:Arial;" text-anchor="middle"><textPath startOffset="21.46611528233685" xlink:href="#id69">September</textPath></text><path d="M 81.69416730710424 110.29060199501025 l -3.4130778528297117 1.918657640473538 a24.915398775453678,24.915398775453678 0 0,0 -0.20694444354104372,-0.3756642761039726 l 3.4455987058222717 -1.8596228459717428" fill="#ff1402" stroke="none" /><path d="M 81.35079622478065 109.6543875284942 l -15.441774877342755 7.993954089971833 a38.38826366705748,38.38826366705748 0 0,0 -0.2987362434793362,-0.5894349494995013 l 15.577089790608358 -7.726964928769647" fill="#ffcf13" stroke="none" /><path d="M 80.32549172779594 107.34259656027581 l -2.4019333765880595 0.8964100909126005 a23.563754082718866,23.563754082718866 0 0,0 -0.138550092802613,-0.38123035049570647 l 2.417007730395897 -0.8549319434107769" fill="#ff0000" stroke="none" /><path d="M 79.23777060512086 103.15116336523772 l -14.495040429405588 2.1999680048833428 a35.66103871738333,35.66103871738333 0 0,0 -0.0868871851289868,-0.6076887704237082 l 14.530761665551175 -1.9501337624792339" fill="#ffab0f" stroke="none" /><path d="M 79.07016306316243 101.71520430193888 l -9.034356156816328 0.7403672848566749 a30.064642016356252,30.064642016356252 0 0,0 -0.037829109742711815,-0.5161481470716488 l 9.045761825223375 -0.5847460012882654" fill="#ff5f08" stroke="none" /><path d="M 79.04373962182676 101.35467743843564 l -17.048245405075793 1.1020512724314344 a38.0838282711679,38.0838282711679 0 0,0 -0.036657768644423376,-0.6545490844423129 l 17.06468952460775 -0.808430471653684" fill="#ffcb12" stroke="none" /><line stroke="#e1ed5e" stroke-width="0.3" x1="15.007084014347285" x2="10.007500721073583" y1="101.09737516637583" y2="101.16192664675087" /><path d="M 14.007167355692545 101.11028546245083 a86.0,86.0 0 0,1 10.666146001902534,-42.60595125391555" fill="none" id="id70" stroke="none" /><text fill="#e1ed5e" style="font-size:6.75px; font-family:Arial;" text-anchor="middle"><textPath startOffset="22.20632615414155" xlink:href="#id70">October</textPath></text><path d="M 79.00019446554 99.90962569577889 l -6.623517690088873 -0.028504825997354467 a27.62357902617802,27.62357902617802 0 0,0 0.006139002223733086,-0.475472487645932 l 6.622045680747425 0.1425135717037584" fill="#ff3c05" stroke="none" /><path d="M 79.01574976396665 99.18683210126434 l -61.08385673870093 -2.367081543165419 a82.12970332911925,82.12970332911925 0 0,0 0.06690204194354435,-1.4121963661186778 l 61.034061088523885 3.418189015907106" fill="#4be4ff" stroke="none" /><path d="M 79.08570108090925 98.10471618934814 l -19.656226393667044 -1.7812754712240884 a40.736772237209344,40.736772237209344 0 0,0 0.06929688546388121,-0.6978101797068871 l 19.622652382520936 2.119361181635406" fill="#ffed16" stroke="none" /><path d="M 79.16333360222342 97.38593545837743 l -5.02229296817175 -0.6300718989837558 a26.06166151140477,26.06166151140477 0 0,0 0.05967375984137152,-0.44463882356455975 l 5.0107032092725445 0.716429064612975" fill="#ff2503" stroke="none" /><path d="M 79.91906864156998 93.8553929516997 l -15.836416529228392 -4.845818895967985 a37.56122124904255,37.56122124904255 0 0,0 0.1945036587525045,-0.6166297511632401 l 15.750657386707683 5.117698813557639" fill="#ffc512" stroke="none" /><path d="M 81.26839172434947 90.50648371742162 l -10.965442396354193 -5.557483607576058 a33.293353936019194,33.293353936019194 0 0,0 0.26347816012514186,-0.5089559419477803 l 10.868154803068938 5.745412271784174" fill="#ff8b0c" stroke="none" /><line stroke="#e1ed5e" stroke-width="0.3" x1="26.266209847984243" x2="21.928928074336255" y1="57.711370442889674" y2="55.22380399835377" /><path d="M 25.398753493254645 57.213857153982495 a86.0,86.0 0 0,1 29.58750427330803,-30.492523968695096" fill="none" id="id71" stroke="none" /><text fill="#e1ed5e" style="font-size:6.75px; font-family:Arial;" text-anchor="middle"><textPath startOffset="21.46611528233685" xlink:href="#id71">November</textPath></text><path d="M 84.31358615837235 86.03803664274999 l -21.53053895229147 -19.163627770421353 a49.8237529981681,49.8237529981681 0 0,0 0.5757166911133755,-0.6357207496966307 l 21.19747862056205 19.53140130738754" fill="#a3ff21" stroke="none" /><path d="M 86.10567301691215 84.25364557470407 l -22.316460969279913 -25.29110653350047 a54.72928252842423,54.72928252842423 0 0,0 0.7117574501964499,-0.6172290470359768 l 21.877809720436687 25.671500573956127" fill="#6dff28" stroke="none" /><path d="M 86.37877921826538 84.01681056812374 l -28.51723442625704 -33.46222539166898 a64.96536349770074,64.96536349770074 0 0,0 0.857364802480928,-0.718018365586029 l 27.937012086817003 33.94814491464882" fill="#35ff63" stroke="none" /><path d="M 87.80319425747018 82.90503203632743 l -3.974389034957706 -5.570479243664758 a27.84295310558913,27.84295310558913 0 0,0 0.392544352218922,-0.275002404586283 l 3.877913543155124 5.638066491014984" fill="#ff3f05" stroke="none" /><path d="M 88.09926311788651 82.69761687909137 l -32.68219527818663 -47.516373947014856 a78.67089110872206,78.67089110872206 0 0,0 1.122353793477497,-0.7578182914353957 l 31.8594367903026 48.071904150748914" fill="#46fff9" stroke="none" /><path d="M 88.70189139769569 82.29822771554957 l -5.186251835559318 -8.125771510477406 a30.639780637666433,30.639780637666433 0 0,0 0.4470210458522286,-0.27992453790287725 l 5.045611637334848 8.213840389703213" fill="#ff6709" stroke="none" /><path d="M 89.00827224532344 82.1063720568725 l -5.584485868164172 -9.091083277246208 a31.669314765510997,31.669314765510997 0 0,0 0.4669533899188438,-0.28133419264896614 l 5.427170412027679 9.185864079353793" fill="#ff750a" stroke="none" /><line stroke="#e1ed5e" stroke-width="0.3" x1="56.762969772571076" x2="54.21961505331055" y1="26.818313649435495" y2="22.513508569990535" /><path d="M 56.25429882871897 25.957352633546506 a86.0,86.0 0 0,1 42.265352541879196,-11.944610805530505" fill="none" id="id72" stroke="none" /><text fill="#e1ed5e" style="font-size:6.75px; font-family:Arial;" text-anchor="middle"><textPath startOffset="22.20632615414155" xlink:href="#id72">December</textPath></text><path d="M 89.3179101791058 81.91981866633112 l -12.491277688545216 -21.142357861132844 a45.55669591416063,45.55669591416063 0 0,0 0.6785849209539639,-0.3930801858424633 l 12.125496035125932 21.354242204365356" fill="#d5ff1c" stroke="none" /><path d="M 90.58718382345135 81.22770947309562 l -9.416140226516562 -18.778919789662037 a42.00741595798931,42.00741595798931 0 0,0 0.6491720703339182,-0.3185459155895052 l 9.091496889172218 18.938220865386374" fill="#fffd17" stroke="none" /><path d="M 90.91171255644093 81.06846463323043 l -9.099931686083714 -18.955791134486375 a42.02690595940503,42.02690595940503 0 0,0 0.6548628257895075,-0.30746687745999807 l 8.772290648994598 19.10962299458638" fill="#fffe18" stroke="none" /><path d="M 91.90106846888425 80.62456947434976 l -6.770943041965774 -16.19842518716407 a38.55661266365742,38.55661266365742 0 0,0 0.6145485805980503,-0.25068979642185035 l 6.491110591779343 16.312575869769496" fill="#ffd113" stroke="none" /><path d="M 92.57280143429618 80.3572730644239 l -3.7439741268415774 -9.901695878578163 a31.585883219378104,31.585883219378104 0 0,0 0.5102138020998412,-0.18791604918477228 l 3.5729779989691663 9.964675195569258" fill="#ff740a" stroke="none" /><path d="M 96.04723909329186 79.375362276772 l -1.1986620310037885 -6.254355050943442 a27.36818245403128,27.36818245403128 0 0,0 0.46344091462855785,-0.08469086490859286 l 1.0908259952723374 6.274061397202771" fill="#ff3805" stroke="none" /><path d="M 96.40284397218896 79.31037775812273 l -1.4300339996672926 -8.225070866375939 a29.34846021713649,29.34846021713649 0 0,0 0.4984637430594002,-0.0822507886069604 l 1.2882410504690067 8.248467917922527" fill="#ff5407" stroke="none" /><path d="M 98.55514903715128 79.0497635885617 l -0.20330798280134604 -2.947951320614383 a23.954953658618496,23.954953658618496 0 0,0 0.41161220944369886,-0.024829572537828196 l 0.15253372451802422 2.9510141625325175" fill="#ff0600" stroke="none" /><path d="M 99.63851952072746 79.00311137660856 l -0.6060116007626102 -35.20067836388493 a56.205894497057386,56.205894497057386 0 0,0 0.9674920800351373,-0.008327509781012953 l 8.622957201388149e-15 35.205894497057386" fill="#5dff2a" stroke="none" /></svg>