<?xml version="1.0" encoding="utf-8" ?>
<svg baseProfile="full" height="200mm" version="1.1" viewBox="0,0,200,200" width="200mm" xmlns="http://www.w3.org/2000/svg" xmlns:ev="http://www.w3.org/2001/xml-events" xmlns:xlink="http://www.w3.org/1999/xlink"><defs /><rect fill="#1a1a1a" height="200" width="200" x="0" y="0" /><text alignment-baseline="middle" fill="#e1ed5e" style="dominant-baseline: central; font-size:9.0px; font-family:Arial;" text-anchor="middle" x="100.0" y="100.0">2018</text><line stroke="#e1ed5e" stroke-width="0.3" x1="100.0" x2="100.0" y1="15.0" y2="10.0" /><path d="M 100.0 14.0 a86.0,86.0 0 0,1 42.46469731375804,11.215312516191453" fill="none" id="id13" stroke="none" /><text fill="#e1ed5e" style="font-size:6.75px; font-family:Arial;" text-anchor="middle"><textPath startOffset="22.20632615414155" xlink:href="#id13">January</textPath></text><path d="M 100.0 79.0 l 0.0 -7.276474656862984 a28.276474656862984,28.276474656862984 0 0,0 0.48673302910001587,0.004189464848565293 l -0.1252525498274875 7.275396568622978" fill="#ff6108" stroke="none" /><path d="M 101.08401301168833 79.027996857942 l 0.03750217366927154 -0.7255408335007121 a21.7265094040044,21.7265094040044 0 0,0 0.37332138758132627,0.02251976559539304 l -0.04998561009020974 0.724787798525015" fill="#ff0500" stroke="none" /><path d="M 102.16513564639614 79.11191278185805 l 1.4723975527730822 -14.204915314795882 a35.281021449950096,35.281021449950096 0 0,0 0.6035294113814126,0.06781356149573886 l -1.71669366766422 14.177465799829541" fill="#ffbd11" stroke="none" /><path d="M 104.66035177308747 79.52364482259891 l 1.5796950297953702 -6.9407628601897935 a28.11826000287642,28.11826000287642 0 0,0 0.4710160872781433,0.11147428993930344 l -1.698934804036037 6.912542658109621" fill="#ff5f08" stroke="none" /><path d="M 105.36241919743992 79.69619591428918 l 0.8739065460371637 -3.3088847862602364 a24.42234293722167,24.42234293722167 0 0,0 0.4055296443957902,0.11084657078443495 l -0.9307340796566647 3.2933516746495077" fill="#ff2b04" stroke="none" /><path d="M 106.0581310904928 79.89281104454417 l 0.12672606255735286 -0.4206090702494749 a21.439285197687582,21.439285197687582 0 0,0 0.3524359451842064,0.10950356373900683 l -0.13394738045227747 0.4183653716279475" fill="#ff0100" stroke="none" /><path d="M 107.76421540070413 80.48803036053334 l 0.7303068359335264 -1.8353077645086484 a22.975272807760227,22.975272807760227 0 0,0 0.3661997337792689,0.14938206613628996 l -0.7617904393011828 1.8224648121887792" fill="#ff1702" stroke="none" /><path d="M 108.43124777332544 80.76684994638697 l 0.661395708773225 -1.5087592315691016 a22.647361132972556,22.647361132972556 0 0,0 0.35569069862832325,0.15958804833952547 l -0.6872685258683284 1.4971508527130448" fill="#ff1202" stroke="none" /><path d="M 109.08828744355905 81.06846463323043 l 13.78642810419035 -28.71808939327476 a52.855835545032086,52.855835545032086 0 0,0 0.8168208257397259,0.40081043177658526 l -14.278720196940506 28.476523801363342" fill="#76ff27" stroke="none" /><line stroke="#e1ed5e" stroke-width="0.3" x1="143.23703022742887" x2="145.7803849466894" y1="26.81831364943548" y2="22.513508569990506" /><path d="M 143.74570117128098 25.957352633546492 a86.0,86.0 0 0,1 28.547481713284135,27.462654790039103" fill="none" id="id14" stroke="none" /><text fill="#e1ed5e" style="font-size:6.75px; font-family:Arial;" text-anchor="middle"><textPath startOffset="19.985693538727396" xlink:href="#id14">February</textPath></text><path d="M 111.2981086023043 82.29822771554956 l 3.590447995377072 -5.625480781833142 a27.6736310082504,27.6736310082504 0 0,0 0.3993344148465947,0.25973821162563804 l -3.686749436007947 5.562843646047975" fill="#ff5908" stroke="none" /><path d="M 114.16331599549186 84.49514656593476 l 0.6754667294515738 -0.7394463728033449 a22.00151696982529,22.00151696982529 0 0,0 0.27742039229350607,0.25783202027023694 l -0.6880950055399266 0.7277097664584675" fill="#ff0901" stroke="none" /><path d="M 114.68862486808459 84.99185889309783 l 0.48000002632564964 -0.49044128984904134 a21.686245352670177,21.686245352670177 0 0,0 0.26453522324485124,0.26339922492722073 l -0.4883710497378234 0.4821062142717019" fill="#ff0400" stroke="none" /><path d="M 115.4437574822437 85.77008943001954 l 5.568460965542264 -5.130791625237408 a28.571841270548017,28.571841270548017 0 0,0 0.3301494754098897,0.364559296715248 l -5.655954081568189 5.034179541252611" fill="#ff6509" stroke="none" /><path d="M 115.68641384162765 86.03803664274999 l 1.127609527516818 -1.0036483203507156 a22.509573846318727,22.509573846318727 0 0,0 0.2551172248961489,0.291643089527824 l -1.1447186159908151 0.9840896746199439" fill="#ff1001" stroke="none" /><path d="M 115.9244219780498 86.31012108654704 l 5.744771452093203 -4.93865495859264 a28.57579776900207,28.57579776900207 0 0,0 0.3174490633641284,0.3757595624342126 l -5.828931128944449 4.83903644652932" fill="#ff6509" stroke="none" /><path d="M 116.82858285166822 87.43820079747576 l 1.4225692445218965 -1.061885564511407 a22.77519131576777,22.77519131576777 0 0,0 0.23180523292069272,0.3161820771958645 l -1.4406370899562155 1.0372410436440487" fill="#ff1402" stroke="none" /><path d="M 117.04232023915458 87.72973835380427 l 11.9072905990542 -8.57310325691484 a35.6724799834264,35.6724799834264 0 0,0 0.35449506632569916,0.5014081313596204 l -12.053098285183781 8.366868625223425" fill="#ffc212" stroke="none" /><path d="M 117.2510076193507 88.02491185347247 l 3.313528007886287 -2.300143321826412 a25.033624568547438,25.033624568547438 0 0,0 0.24267778560906517,0.3560997055153814 l -3.3526302591640857 2.242765593040624" fill="#ff3404" stroke="none" /><line stroke="#e1ed5e" stroke-width="0.3" x1="172.23445277983987" x2="176.4835382374775" y1="55.19839476539836" y2="52.563006222186495" /><path d="M 173.08426987136738 54.67131705675599 a86.0,86.0 0 0,1 12.851231095245387,41.99856678651699" fill="none" id="id15" stroke="none" /><text fill="#e1ed5e" style="font-size:6.75px; font-family:Arial;" text-anchor="middle"><textPath startOffset="22.20632615414155" xlink:href="#id15">March</textPath></text><path d="M 117.84615892207809 88.93136811851018 l 2.6752698583814496 -1.6592689427099174 a24.14805372244598,24.14805372244598 0 0,0 0.2160494188849115,0.3551284382770485 l -2.703435075552585 1.6129727312257873" fill="#ff2803" stroke="none" /><path d="M 118.21658344932153 89.55222093294921 l 15.955976179097497 -9.151250254039528 a39.393981543972075,39.393981543972075 0 0,0 0.3323020385515036,0.5911282473252375 l -16.111135858941434 8.875238496779497" fill="#fff016" stroke="none" /><path d="M 118.73160827565052 90.50648371742162 l 3.006021263954928 -1.523505691298785 a24.3700494700774,24.3700494700774 0 0,0 0.18641925862847794,0.3758098499376578 l -3.031800535536814 1.4715362528621774" fill="#ff2b04" stroke="none" /><path d="M 119.04729006885535 91.15688171328212 l 2.2134189838439755 -1.0276278578969233 a23.440336577680775,23.440336577680775 0 0,0 0.16675866544308648,0.36743061460508925 l -2.2307799662504086 0.9893752344497713" fill="#ff1e03" stroke="none" /><path d="M 119.47837535516314 92.15188598940014 l 3.1196254153431733 -1.256941376452548 a24.363326382600043,24.363326382600043 0 0,0 0.15338042352938402,0.39033644787974164 l -3.1407993887542576 1.2030559236770222" fill="#ff2b04" stroke="none" /><path d="M 119.97218684219823 93.5106431181261 l 1.9169261099631152 -0.6228470493501422 a23.015575391282226,23.015575391282226 0 0,0 0.11918179103435068,0.37783884694022624 l -1.927363384765672 0.5897580359834969" fill="#ff1802" stroke="none" /><path d="M 120.18372546131832 94.20196356495316 l 7.350197931154316 -2.111439510575622 a28.64745620673731,28.64745620673731 0 0,0 0.13206917859204403,0.4751231039336759 l -7.385453880312722 1.9846051032229943" fill="#ff6609" stroke="none" /><path d="M 120.53481517161879 95.60439243477599 l 1.4685342192918864 -0.3143490735203387 a22.501801615811598,22.501801615811598 0 0,0 0.07781412745339517,0.3794493205876363 l -1.4737276426602783 0.2890240967692906" fill="#ff1001" stroke="none" /><path d="M 120.78858239683441 97.02765380044208 l 14.153029986038094 -2.0235966112646224 a35.29696474888342,35.29696474888342 0 0,0 0.08081996601146824,0.6022026214435737 l -14.185765951107399 1.7796756477563844" fill="#ffbd11" stroke="none" /><path d="M 120.87857604477298 97.74499172005257 l 2.634165980774562 -0.2845053266402998 a23.649485552924702,23.649485552924702 0 0,0 0.04022988571843228,0.40510945903042717 l -2.6386729921752226 0.23912033690543769" fill="#ff2103" stroke="none" /><path d="M 120.94382443527127 98.46500227214037 l 1.729332913194175 -0.12674485983541225 a22.733971333140012,22.733971333140012 0 0,0 0.025244894076732624,0.3905273377124571 l -1.7312583982753231 0.09695845786991988" fill="#ff1402" stroke="none" /><line stroke="#e1ed5e" stroke-width="0.3" x1="184.98032266829074" x2="189.97916517819016" y1="98.17113171792111" y2="98.06355123074" /><path d="M 185.9800911702706 98.14961562048488 a86.0,86.0 0 0,1 -9.607161424134198,41.387399972396054" fill="none" id="id16" stroke="none" /><text fill="#e1ed5e" style="font-size:6.75px; font-family:Arial;" text-anchor="middle"><textPath startOffset="21.466115282336823" xlink:href="#id16">April</textPath></text><path d="M 120.99513854157772 99.54816195383933 l 21.625686391474613 -0.4654081165816848 a42.630693854275464,42.630693854275464 0 0,0 0.009474149751654809,0.7337833391450116 l -21.63049354834398 0.09308851937621043" fill="#e7ff1a" stroke="none" /><path d="M 120.92983693683757 101.71520430193887 l 11.07038606601306 0.9072203410782402 a32.10749730577695,32.10749730577695 0 0,0 -0.049881907720651854,0.5504426951050634 l -11.053129562015334 -1.0976444247318742" fill="#ff940d" stroke="none" /><path d="M 120.8583938346157 102.4346265915055 l 3.264288316272906 0.3810131882709839 a24.28644933954446,24.28644933954446 0 0,0 -0.05204064600154205,0.4148151518806296 l -3.257246161024516 -0.4371460944390084" fill="#ff2a04" stroke="none" /><path d="M 120.70491114924044 103.5080841355445 l 2.2208716064914413 0.3762877509425905 a23.252523732178933,23.252523732178933 0 0,0 -0.07025977882853328,0.39405415211492034 l -2.2140653853237193 -0.41446065379072916" fill="#ff1b02" stroke="none" /><path d="M 120.49622156327973 104.57218783832717 l 1.9634044107711548 0.43798578879185934 a23.011663100874312,23.011663100874312 0 0,0 -0.08956953899344029,0.38586322973111226 l -1.9555743058471615 -0.4717176758715365" fill="#ff1702" stroke="none" /><path d="M 120.41448212921028 104.9243191809786 l 3.2156575195606134 0.7756711094998989 a24.307887385208197,24.307887385208197 0 0,0 -0.10161702313386177,0.4059094947169401 l -3.2018291821316907 -0.830908443614235" fill="#ff2a04" stroke="none" /><path d="M 120.13307415673323 105.97154293290107 l 2.4082705445966677 0.7143017921230128 a23.51197015631199,23.51197015631199 0 0,0 -0.11842556991298128,0.38702161453324035 l -2.3956182021775536 -0.7556503792083104" fill="#ff1f03" stroke="none" /><path d="M 119.41010516605496 108.01547362559984 l 1.5635333020140365 0.6456667719120716 a22.691603371614715,22.691603371614715 0 0,0 -0.1521947652412013,0.3597434674233387 l -1.5521875555805262 -0.6724847650015737" fill="#ff1302" stroke="none" /><line stroke="#e1ed5e" stroke-width="0.3" x1="174.80103733775053" x2="179.2010983576182" y1="140.37084112569926" y2="142.7455964860345" /><path d="M 175.68104954172406 140.8457921977663 a86.0,86.0 0 0,1 -30.038265399797805,32.042727171017184" fill="none" id="id17" stroke="none" /><text fill="#e1ed5e" style="font-size:6.75px; font-family:Arial;" text-anchor="middle"><textPath startOffset="22.206326154141568" xlink:href="#id17">May</textPath></text><path d="M 117.75023020441432 111.22182372390056 l 0.43518239505078943 0.275125452952735 a21.514857001335894,21.514857001335894 0 0,0 -0.20059544599998985,0.3113285868326037 l -0.43038208567374925 -0.28257563970679167" fill="#ff0200" stroke="none" /><path d="M 117.55443506779139 111.5257021239791 l 1.6820183406218954 1.104361506719606 a23.012163024139056,23.012163024139056 0 0,0 -0.22025587169686572,0.3292526434777072 l -1.6627593635143085 -1.1331510644031202" fill="#ff1702" stroke="none" /><path d="M 117.14729908036423 112.12312394758627 l 2.4353158764957534 1.721765980981279 a23.9824891469336,23.9824891469336 0 0,0 -0.2412183969983413,0.3350312558734898 l -2.405317687121809 -1.7634308423059002" fill="#ff2503" stroke="none" /><path d="M 116.93607887273984 112.41649034213515 l 3.7082598162773093 2.7186677944117488 a25.59808062580341,25.59808062580341 0 0,0 -0.2635855490266969,0.3531159174560658 l -3.6609130005555204 -2.7820965913771296" fill="#ff3c05" stroke="none" /><path d="M 116.71984013943494 112.70617746262583 l 2.9327522790174694 2.2287336840755034 a24.683515951453845,24.683515951453845 0 0,0 -0.25999168835955494,0.3360743044370099 l -2.893953773439846 -2.278885982625766" fill="#ff2f04" stroke="none" /><path d="M 116.27256486870786 113.27417163493432 l 5.86435446747804 4.783784754122705 a28.568041351235237,28.568041351235237 0 0,0 -0.3141178582479466,0.37837519562639954 l -5.781140609336551 -4.884021206862875" fill="#ff6509" stroke="none" /><path d="M 115.56566222782051 114.09645910891815 l 2.249388846646913 2.0370747760504733 a24.034703251825558,24.034703251825558 0 0,0 -0.28035175687102726,0.3042664619390525 l -2.2139906817801642 -2.0754924927908607" fill="#ff2603" stroke="none" /><path d="M 115.32070863581623 114.36230785411682 l 2.5955075781585104 2.4331432547486522 a24.557646087851786,24.557646087851786 0 0,0 -0.2917605624987154,0.30590978333654584 l -2.5532404642808304 -2.4774601546677055" fill="#ff2d04" stroke="none" /><path d="M 115.07121518719521 114.62390073753431 l 1.981857661905761 1.9230360235487702 a23.761490057907295,23.761490057907295 0 0,0 -0.2873549125169163,0.2910890092657418 l -1.9484621243333093 -1.9568655267951767" fill="#ff2203" stroke="none" /><path d="M 114.81725581225074 114.88116024355365 l 1.72110200491293 1.728524839898834 a23.439260181584284,23.439260181584284 0 0,0 -0.28835876115183096,0.28221973926117344 l -1.6910932913853047 -1.7578946820825794" fill="#ff1e03" stroke="none" /><path d="M 114.29624159901734 115.38237550388516 l 2.169595516733478 2.334427037958988 a24.186956903032105,24.186956903032105 0 0,0 -0.3074052235449911,0.2808073832008479 l -2.129090743721623 -2.371427187746419" fill="#ff2803" stroke="none" /><path d="M 113.75828350139079 115.86535959552629 l 2.0584666270473715 2.373720039290897 a24.14194711597744,24.14194711597744 0 0,0 -0.3162991959169801,0.269557036724961 l -2.017301954553344 -2.408801466238805" fill="#ff2803" stroke="none" /><path d="M 112.63410532772338 116.77436683061366 l 5.377126660070709 7.139238810426469 a29.93768548958525,29.93768548958525 0 0,0 -0.41430196924550167,0.30649069228660025 l -5.253439720406643 -7.230739451452838" fill="#ff770b" stroke="none" /><path d="M 112.34349029814194 116.9893568818739 l 0.5217721097781852 0.7181576985047943 a21.887691733916725,21.887691733916725 0 0,0 -0.30671188255997883,0.2188307845009841 l -0.5093328993693218 -0.7270327448499977" fill="#ff0701" stroke="none" /><path d="M 112.04921762599082 117.19931262002967 l 1.884355479564685 2.6897695756104225 a24.28415224117959,24.28415224117959 0 0,0 -0.3444222646573867,0.23689677424123481 l -1.8377763302844152 -2.7218071392167515" fill="#ff2a04" stroke="none" /><path d="M 111.1453310114006 117.79835938074945 l 1.1037311461464219 1.7625859275732572 a23.07964698808547,23.07964698808547 0 0,0 -0.338524349073808,0.20794930436549794 l -1.0732275971403054 -1.7813236987671333" fill="#ff1802" stroke="none" /><line stroke="#e1ed5e" stroke-width="0.3" x1="143.8653032363475" x2="146.44561519142675" y1="172.8068346515853" y2="177.08958963109032" /><path d="M 144.38136562736335 173.6633856474863 a86.0,86.0 0 0,1 -40.68145358897372,12.25698825130547" fill="none" id="id18" stroke="none" /><text fill="#e1ed5e" style="font-size:6.75px; font-family:Arial;" text-anchor="middle"><textPath startOffset="21.466115282336833" xlink:href="#id18">June</textPath></text><path d="M 110.21172684928248 118.3499491758327 l 3.073159774893256 5.522310429059999 a27.31982780437306,27.31982780437306 0 0,0 -0.41289000613260146,0.22514055208857628 l -2.977646956892006 -5.574391632908346" fill="#ff5407" stroke="none" /><path d="M 109.89434966115114 118.52300852407294 l 1.57425785194682 2.9471357501334876 a24.34124182215701,24.34124182215701 0 0,0 -0.3712724380685443,0.19423219217838147 l -1.52329451135178 -2.973797361256586" fill="#ff2a04" stroke="none" /><path d="M 109.57404056367764 118.69057910512821 l 2.417743482498963 4.719953452776762 a26.303154169317114,26.303154169317114 0 0,0 -0.40475054692536816,0.2029503267119021 l -2.3361390278908343 -4.760871620397967" fill="#ff4606" stroke="none" /><path d="M 109.2508944713604 118.85261126421891 l 2.2297992964581868 4.544159428420455 a26.061757581452113,26.061757581452113 0 0,0 -0.40443793549733986,0.19415478669158817 l -2.151248692960614 -4.581868491611604" fill="#ff4206" stroke="none" /><path d="M 108.59647513512805 119.15986991738527 l 1.357748737265789 3.0261576724864385 a24.31679241019021,24.31679241019021 0 0,0 -0.38337082026920133,0.1680585013761416 l -1.305457242338834 -3.0490807271570346" fill="#ff2a04" stroke="none" /><path d="M 108.2653958097858 119.30500536409082 l 2.8380214807540027 6.628602086362859 a28.21059855660785,28.21059855660785 0 0,0 -0.44804951253754505,0.18728473257858522 l -2.7235005087189967 -6.676471861961417" fill="#ff6008" stroke="none" /><path d="M 107.93186726928326 119.44442032107085 l 1.2317894149652762 3.0196459822751267 a24.261221706828717,24.261221706828717 0 0,0 -0.3880396686094927,0.15440899236579225 l -1.1796286703139172 -3.0404018190469877" fill="#ff2904" stroke="none" /><path d="M 107.59598834532513 119.57807347666477 l 1.1845817068687245 3.05316788834491 a24.27491495686049,24.27491495686049 0 0,0 -0.390860554067921,0.14779001694034916 l -1.1318509320405288 -3.0731061553918897" fill="#ff2904" stroke="none" /><path d="M 107.2578585660854 119.70592522655815 l 2.473963964053219 6.71709822462507 a28.15820551917135,28.15820551917135 0 0,0 -0.45627078790199305,0.16360247120458393 l -2.357973615521491 -6.758688236869613" fill="#ff5f08" stroke="none" /><path d="M 106.57524785965236 119.94407469862006 l 1.685268400941572 5.111764543790098 a26.382403397587527,26.382403397587527 0 0,0 -0.4325189692852209,0.13847891546625518 l -1.5970280865654105 -5.140016305916061" fill="#ff4706" stroke="none" /><path d="M 105.88484417918355 120.15858648285463 l 1.5254820646493865 5.225552485664062 a26.44366552150266,26.44366552150266 0 0,0 -0.43804414457131624,0.1237956507605489 l -1.4353067519734644 -5.2510369297631305" fill="#ff4806" stroke="none" /><path d="M 104.83641907484287 120.43548508189849 l 0.9241686670812879 3.904921123881572 a25.012791635376963,25.012791635376963 0 0,0 -0.41983357423357814,0.09555275463479586 l -0.8568149434548475 -3.920250612094052" fill="#ff3404" stroke="none" /><path d="M 104.13013068566511 120.58985236759428 l 0.7735734466490725 3.856479195023462 a24.933299843516807,24.933299843516807 0 0,0 -0.42152994857346293,0.08078721789383736 l -0.7070758835039052 -3.869223611265767" fill="#ff3304" stroke="none" /><path d="M 103.41894727170886 120.7198165907248 l 0.2819348629232143 1.7086074121816934 a22.73171203030231,22.73171203030231 0 0,0 -0.38661677600013367,0.06038158923563914 l -0.2524822233145635 -1.7132073087644384" fill="#ff1302" stroke="none" /><path d="M 103.06178313531738 120.77559828337769 l 0.7309514607431147 4.959839819443296 a26.013412118756825,26.013412118756825 0 0,0 -0.4435551964476588,0.06147270854349073 l -0.6454676731086255 -4.97168709347939" fill="#ff4206" stroke="none" /><path d="M 102.70371172650421 120.8252237178851 l 0.46765551245568027 3.6020965453975817 a24.632327243062687,24.632327243062687 0 0,0 -0.42094603590283786,0.050970702695782064 l -0.4055820535014621 -3.609612776818715" fill="#ff2e04" stroke="none" /><path d="M 101.62511606390274 120.93702456842531 l 0.18451172994839618 2.377138906506709 a23.38428898401944,23.38428898401944 0 0,0 -0.4015831152544973,0.027695522825817127 l -0.14356585391496854 -2.379962773848811" fill="#ff1d02" stroke="none" /><path d="M 101.26447882468166 120.96189622390904 l 0.9584252980219639 15.888294246891267 a36.917175412983504,36.917175412983504 0 0,0 -0.6346448002171226,0.03280388699999816 l -0.6847924293913618 -15.902437940653465" fill="#ffd213" stroke="none" /><line stroke="#e1ed5e" stroke-width="0.3" x1="102.19456741930631" x2="102.32365962044197" y1="184.97166512339345" y2="189.96999836594603" /><path d="M 102.22038585953345 185.97133177190398 a86.0,86.0 0 0,1 -42.740103519485714,-10.115201625700543" fill="none" id="id19" stroke="none" /><text fill="#e1ed5e" style="font-size:6.75px; font-family:Arial;" text-anchor="middle"><textPath startOffset="22.20632615414155" xlink:href="#id19">July</textPath></text><path d="M 100.18074693466247 120.99922214144158 l 0.029430034936567942 3.4191885047316597 a24.419315159186922,24.419315159186922 0 0,0 -0.4203539391980444,0.0 l 0.029430034936565586 -3.4191885047316597" fill="#ff2b04" stroke="none" /><path d="M 99.81925306533755 120.99922214144158 l -0.04013173366098719 4.662514424612946 a25.662687134664992,25.662687134664992 0 0,0 -0.44169188553051214,-0.007604126370155714 l 0.12038330908416729 -4.661132820963632" fill="#ff3d05" stroke="none" /><path d="M 99.09653310690486 120.98055641714683 l -0.10425603907490506 2.421062383532162 a23.4233060860399,23.4233060860399 0 0,0 -0.40267109401254025,-0.020813496087314143 l 0.14591520150093423 -2.418909080682646" fill="#ff1d03" stroke="none" /><path d="M 98.73552117531835 120.96189622390904 l -1.0219565854840962 16.94148408981969 a37.97227970628071,37.97227970628071 0 0,0 -0.6521056247715874,-0.0449730218469462 l 1.3134249710346138 -16.921382723456457" fill="#ffdf14" stroke="none" /><path d="M 98.37488393609728 120.93702456842531 l -0.303978874237106 3.916282227190846 a24.92806181710438,24.92806181710438 0 0,0 -0.42752300529144055,-0.03688848381953424 l 0.3713461972700883 -3.9104694910926483" fill="#ff3304" stroke="none" /><path d="M 98.01472825383883 120.90594882070398 l -0.3305608255915018 3.4809782163617915 a24.496638357365693,24.496638357365693 0 0,0 -0.41943774504999076,-0.04347643725189787 l 0.3904311672470859 -3.4747724106541327" fill="#ff2d04" stroke="none" /><path d="M 97.65516085044442 120.86867818915974 l -0.2235801378116483 1.9898260170057234 a23.00234753626256,23.00234753626256 0 0,0 -0.39309103505743187,-0.04759785001257476 l 0.25779859592046955 -1.9856826382678001" fill="#ff1702" stroke="none" /><path d="M 97.2962882734958 120.8252237178851 l -0.11891261797073877 0.9159193444494594 a21.923606223587402,21.923606223587402 0 0,0 -0.37381983651167144,-0.05180802308640743 l 0.13466104566924122 -0.9137367558704471" fill="#ff0801" stroke="none" /><path d="M 96.58105272829116 120.7198165907248 l -0.5581181117472779 3.3823583671664283 a24.428096257487688,24.428096257487688 0 0,0 -0.41429007652780986,-0.07202964020425365 l 0.6162571597471377 -3.3722501484411684" fill="#ff2c04" stroke="none" /><path d="M 96.22490169976321 120.6578951692458 l -1.0525330785158387 5.759616377878136 a26.854998437377425,26.854998437377425 0 0,0 -0.4540187693283576,-0.08701377771555574 l 1.1515194624158913 -5.740645401814112" fill="#ff4d07" stroke="none" /><path d="M 95.86986931433489 120.58985236759428 l -0.4893448282967652 2.4395203295736967 a23.48811531070892,23.48811531070892 0 0,0 -0.395728369136189,-0.08292872734735358 l 0.5312646588623409 -2.4307356214998017" fill="#ff1e03" stroke="none" /><path d="M 95.51606077576429 120.51570834832081 l -0.0805770639218482 0.3686703722587611 a21.37737316625812,21.37737316625812 0 0,0 -0.3588139666674138,-0.08166489061552074 l 0.08691117998212462 -0.3672287480655536" fill="#ff0000" stroke="none" /><path d="M 95.16358092515715 120.4354850818985 l -0.3913222266563886 1.6534670385882089 a22.6991428229472,22.6991428229472 0 0,0 -0.37945045367334956,-0.0932596895292382 l 0.41972596507294874 -1.6464860907449406" fill="#ff1302" stroke="none" /><path d="M 94.81253420990036 120.34920634021253 l -1.1036692601323403 4.329434528251859 a25.467895384874232,25.467895384874232 0 0,0 -0.42387013516622424,-0.1119479551931086 l 1.178029838110054 -4.309795223755169" fill="#ff3a05" stroke="none" /><path d="M 94.11515582081647 120.15858648285463 l -0.9187903408726419 3.14732454796489 a24.278692956149335,24.278692956149335 0 0,0 -0.4001649152383149,-0.12056640635845017 l 0.9728302305512027 -3.1310427725007144" fill="#ff2904" stroke="none" /><path d="M 93.76903079525671 120.05430185196036 l -1.0121011335385883 3.2574357166206385 a24.411046196172943,24.411046196172943 0 0,0 -0.40020010234958747,-0.12813143486964484 l 1.0680225809791162 -3.239531435091287" fill="#ff2b04" stroke="none" /><path d="M 93.42475214034765 119.94407469862007 l -0.7585575537600903 2.300860566523745 a23.422678044840143,23.422678044840143 0 0,0 -0.3818234109721669,-0.12953523176069742 l 0.798050697669483 -2.287462347864924" fill="#ff1d03" stroke="none" /><path d="M 93.08242187328487 119.8279376855182 l -0.5540562872066668 1.5880982239401265 a22.68197334648175,22.68197334648175 0 0,0 -0.36753485029169713,-0.13178492105097028 l 0.5813106981280906 -1.5783257618491984" fill="#ff1302" stroke="none" /><path d="M 91.40352486487194 119.15986991738527 l -1.1287794467726546 2.5158296889856615 a23.75745209630885,23.75745209630885 0 0,0 -0.3716706358409461,-0.1706157596210583 l 1.1719180783810204 -2.4960268590305286" fill="#ff2203" stroke="none" /><path d="M 90.7491055286396 118.85261126421891 l -3.52324823503767 7.180108860623811 a28.997952323945462,28.997952323945462 0 0,0 -0.44621785612783765,-0.2237428963932383 l 3.6463199988482677 -7.1183981233212705" fill="#ff6b09" stroke="none" /><path d="M 90.42595943632237 118.69057910512821 l -1.2045358112665363 2.351512061777707 a23.642066520227978,23.642066520227978 0 0,0 -0.36060804711917993,-0.18865308686391716 l 1.244834760912212 -2.330429555969073" fill="#ff2003" stroke="none" /><path d="M 90.10565033884886 118.52300852407294 l -3.446628289061071 6.452361940295688 a28.315204793546958,28.315204793546958 0 0,0 -0.4279333370828345,-0.23334337556476145 l 3.557184438012546 -6.3920779129711605" fill="#ff6109" stroke="none" /><line stroke="#e1ed5e" stroke-width="0.3" x1="58.666819895761336" x2="56.23545636021788" y1="174.27360380694188" y2="178.64263932499728" /><path d="M 58.180547188652646 175.14741091055294 a86.0,86.0 0 0,1 -31.652253787137756,-30.449443065178592" fill="none" id="id20" stroke="none" /><text fill="#e1ed5e" style="font-size:6.75px; font-family:Arial;" text-anchor="middle"><textPath startOffset="22.20632615414155" xlink:href="#id20">August</textPath></text><path d="M 89.7882731507175 118.34994917583269 l -0.9786616941805549 1.7586048484844963 a23.012577880423397,23.012577880423397 0 0,0 -0.3444777253825165,-0.19560344278857278 l 1.0087881864842787 -1.7414982399012904" fill="#ff1702" stroke="none" /><path d="M 89.4739219176387 118.17145234162733 l -0.9314971626744154 1.6080686619894526 a22.858378805772126,22.858378805772126 0 0,0 -0.33877437621715084,-0.20015387285027028 l 0.9590394099199483 -1.591796216845433" fill="#ff1502" stroke="none" /><path d="M 88.8546689885994 117.79835938074946 l -0.7002672162007669 1.1182806112935686 a22.319441434729367,22.319441434729367 0 0,0 -0.3238638082528553,-0.2067052055127139 l 0.7194128265005457 -1.1060609769570506" fill="#ff0e01" stroke="none" /><path d="M 88.54995079064634 117.60387380957326 l -2.3299832660460056 3.582231887735838 a25.273313388644212,25.273313388644212 0 0,0 -0.3626423224129797,-0.24033955701388218 l 2.3913002871989475 -3.5415943096306375" fill="#ff3705" stroke="none" /><path d="M 87.95078237400918 117.19931262002967 l -1.3893004280828227 1.9831173381908782 a23.421344679409437,23.421344679409437 0 0,0 -0.32820293734200334,-0.2341640814650655 l 1.4232306932737129 -1.9589089948815934" fill="#ff1d03" stroke="none" /><path d="M 87.36589467227662 116.77436683061367 l -1.9922685301073337 2.6451452067425434 a24.3114841175535,24.3114841175535 0 0,0 -0.3321079219529988,-0.25464619274526606 l 2.0375051805538194 -2.610459672169911" fill="#ff2a04" stroke="none" /><path d="M 87.07902340077011 116.55440617244103 l -2.0402852455938665 2.614021502462327 a24.31600245758706,24.31600245758706 0 0,0 -0.3277363001279202,-0.26037353807996316 l 2.0849790384391444 -2.5785140503772332" fill="#ff2a04" stroke="none" /><path d="M 86.79598089348748 116.32954008644616 l -0.6315495037204437 0.7810434727780423 a22.004432019610448,22.004432019610448 0 0,0 -0.2924806800514761,-0.24069168769904117 l 0.6449003123166086 -0.7700566662218203" fill="#ff0901" stroke="none" /><path d="M 86.51685102203217 116.09983520530335 l -1.6434448025051822 1.9623895376800642 a23.55966472735737,23.55966472735737 0 0,0 -0.3086703393698,-0.26305555967094957 l 1.6769806184520386 -1.9338095877861632" fill="#ff1f03" stroke="none" /><path d="M 85.97065885151581 115.62618273729859 l -1.8007743546947572 2.0057413129583446 a23.69551228730907,23.69551228730907 0 0,0 -0.30115918595697494,-0.27510177595631524 l 1.8350330901185867 -1.9744467704154534" fill="#ff2103" stroke="none" /><path d="M 85.70375840098266 115.38237550388516 l -1.9134440220181679 2.058814846439842 a23.810691480279928,23.810691480279928 0 0,0 -0.29781978144025767,-0.28160719232525216 l 1.9485996378492425 -2.025573017368659" fill="#ff2303" stroke="none" /><path d="M 85.44109423537348 115.13401014063109 l -2.194734932947896 2.2814311232052145 a24.16572099146959,24.16572099146959 0 0,0 -0.297295960429497,-0.2909666697854754 l 2.233680845753187 -2.2433143504971693" fill="#ff2803" stroke="none" /><path d="M 84.43433777217949 114.09645910891817 l -1.2677997914330257 1.148135405783695 a22.71041843452756,22.71041843452756 0 0,0 -0.259916575786759,-0.29201902825312803 l 1.287375216868123 -1.126142207789703" fill="#ff1302" stroke="none" /><path d="M 82.44556493220864 111.52570212397912 l -52.6633052033741 34.57710637193735 a84.0,84.0 0 0,0 -0.7831805464918173,-1.2155136003142069 l 53.25069061324296 -33.6654711717017" fill="#4dd2ff" stroke="none" /><line stroke="#e1ed5e" stroke-width="0.3" x1="26.63291911575756" x2="22.317208475507996" y1="142.92168965132927" y2="145.44649492493687" /><path d="M 25.769776987707644 143.4266507060508 a86.0,86.0 0 0,1 -11.730757126820373,-40.83630448921669" fill="none" id="id21" stroke="none" /><text fill="#e1ed5e" style="font-size:6.75px; font-family:Arial;" text-anchor="middle"><textPath startOffset="21.46611528233685" xlink:href="#id21">September</textPath></text><path d="M 80.45479744820244 107.68017299344265 l -1.9077903325191687 0.7496550496283879 a23.04979185438106,23.04979185438106 0 0,0 -0.14192714004525755,-0.37052697711619476 l 1.9204117521579354 -0.7167045056790353" fill="#ff1802" stroke="none" /><path d="M 80.0844068197444 106.66101706037122 l -2.4885505444881226 0.8323265836171665 a23.624052467895403,23.624052467895403 0 0,0 -0.12566617728869597,-0.386760725021168 l 2.502508972793068 -0.7893669586181951" fill="#ff2003" stroke="none" /><path d="M 79.86692584326677 105.97154293290107 l -10.535672446848187 3.1249187209841023 a31.989336236553733,31.989336236553733 0 0,0 -0.15203672845401084,-0.5292597970933589 l 10.587901812188301 -2.9431014483861477" fill="#ff920d" stroke="none" /><path d="M 79.76711848015287 105.62410040840567 l -7.342350163527627 2.0409408572301664 a28.62073129736022,28.62073129736022 0 0,0 -0.1278555171195491,-0.4757979426216702 l 7.37639375698895 -1.9142519814329575" fill="#ff6509" stroke="none" /><path d="M 79.18660465613746 102.79330883721812 l -0.5819766776269417 0.07810549743627236 a21.58719444993244,21.58719444993244 0 0,0 -0.04625672237341792,-0.36871158971124557 l 0.5832349092472077 -0.0680761534376182" fill="#ff0300" stroke="none" /><path d="M 79.1416061653843 102.43462659150553 l -4.943217604897108 0.5769806210345976 a25.976776760757325,25.976776760757325 0 0,0 -0.04801708039397905,-0.4445785292092428 l 4.952416986792139 -0.49180576994057273" fill="#ff4106" stroke="none" /><path d="M 79.10278846688536 102.07522291339032 l -1.3278927897364725 0.13186800255240524 a22.33442438194574,22.33442438194574 0 0,0 -0.03469855297048152,-0.38289564064548354 l 1.3299659389840295 -0.10899097335835557" fill="#ff0e01" stroke="none" /><path d="M 79.07016306316243 101.71520430193888 l -1.648460217971479 0.1350916429006352 a22.653986348860283,22.653986348860283 0 0,0 -0.028504584728955125,-0.38892241162856184 l 1.6505413613647693 -0.10669609477531268" fill="#ff1202" stroke="none" /><path d="M 79.04373962182676 101.35467743843564 l -3.6223394650288165 0.23415921825157823 a24.629899962725894,24.629899962725894 0 0,0 -0.02370762645341614,-0.42331559620840603 l 3.6258334423697645 -0.17177190570773462" fill="#ff2e04" stroke="none" /><path d="M 79.0235259727143 100.99374915477108 l -5.3539400171828815 0.2536400235735423 a26.3599446796726,26.3599446796726 0 0,0 -0.01757061922265484,-0.4534196088452422 l 5.357512769256737 -0.16144316771430334" fill="#ff4706" stroke="none" /><line stroke="#e1ed5e" stroke-width="0.3" x1="15.007084014347285" x2="10.007500721073583" y1="101.09737516637583" y2="101.16192664675087" /><path d="M 14.007167355692545 101.11028546245083 a86.0,86.0 0 0,1 10.666146001902534,-42.60595125391555" fill="none" id="id22" stroke="none" /><text fill="#e1ed5e" style="font-size:6.75px; font-family:Arial;" text-anchor="middle"><textPath startOffset="22.20632615414155" xlink:href="#id22">October</textPath></text><path d="M 79.00175016825051 100.2711162175752 l -7.396429477059449 0.09549805338300574 a28.397045956820456,28.397045956820456 0 0,0 -0.002103683874530147,-0.4888220457335827 l 7.396977458223482 0.03183347055425235" fill="#ff6209" stroke="none" /><path d="M 79.00019446554 99.90962569577889 l -1.5277562397258733 -0.006574818369538355 a22.5277703872827,22.5277703872827 0 0,0 0.005006521145294607,-0.38776058008293784 l 1.5274167114628632 0.032871656512948204" fill="#ff1101" stroke="none" /><path d="M 79.00486145842228 99.54816195383935 l -2.701450419565178 -0.05813812930831313 a23.702075944796583,23.702075944796583 0 0,0 0.012289306901069068,-0.40782226699309215 l 2.700049418208464 0.10463054372639971" fill="#ff2103" stroke="none" /><path d="M 79.26566170972629 96.67025291283419 l -3.278405332368331 -0.5264822273649807 a24.320410375094063,24.320410375094063 0 0,0 0.0699363956960088,-0.41276856627022424 l 3.268857075152099 0.5828365819510329" fill="#ff2a04" stroke="none" /><path d="M 79.3925641242962 95.95851677861259 l -7.646740515483598 -1.4996612716901063 a28.792408128489264,28.792408128489264 0 0,0 0.09956785479017732,-0.48552822076079893 l 7.619793364778427 1.6310651486143077" fill="#ff6809" stroke="none" /><path d="M 79.62865764111835 94.90015583598534 l -3.203089927168115 -0.8018744756287727 a24.30193697035403,24.30193697035403 0 0,0 0.10508119140784457,-0.40492069581014717 l 3.188812403889963 0.8568915969877837" fill="#ff2a04" stroke="none" /><path d="M 80.02781315780177 93.51064311812611 l -7.872686454902538 -2.557990891463847 a29.2778324106023,29.2778324106023 0 0,0 0.15986073793791297,-0.47796325897557407 l 7.827488423192853 2.693127253361743" fill="#ff6e0a" stroke="none" /><path d="M 80.14247586403 93.16781622104843 l -6.658059465101605 -2.2907732890206103 a28.041121934927656,28.041121934927656 0 0,0 0.16096527904247623,-0.4550705196706746 l 6.617641105249319 2.405041435117896" fill="#ff5e08" stroke="none" /><path d="M 80.38941819471856 92.48833698450439 l -3.0772996887689725 -1.1787329151803472 a24.295327701432313,24.295327701432313 0 0,0 0.1529523347555895,-0.38924700864430606 l 3.056553804131692 1.2315289287204167" fill="#ff2a04" stroke="none" /><path d="M 80.95270993114464 91.15688171328213 l -28.784542769901684 -13.363849430714692 a52.735506519970855,52.735506519970855 0 0,0 0.38934324664411285,-0.820056172339745 l 28.55024132941582 13.85734801869497" fill="#77ff27" stroke="none" /><line stroke="#e1ed5e" stroke-width="0.3" x1="26.266209847984243" x2="21.928928074336255" y1="57.711370442889674" y2="55.22380399835377" /><path d="M 25.398753493254645 57.213857153982495 a86.0,86.0 0 0,1 29.58750427330803,-30.492523968695096" fill="none" id="id23" stroke="none" /><text fill="#e1ed5e" style="font-size:6.75px; font-family:Arial;" text-anchor="middle"><textPath startOffset="21.46611528233685" xlink:href="#id23">November</textPath></text><path d="M 82.15384107792192 88.93136811851018 l -10.236924477747435 -6.349195316344557 a33.04603270492805,33.04603270492805 0 0,0 0.30398007486407064,-0.4808234774620825 l 10.126116806637402 6.524466441520855" fill="#ffa00e" stroke="none" /><path d="M 82.54541684631803 88.32363383020206 l -1.369807146165379 -0.9163421251488867 a22.64804566320479,22.64804566320479 0 0,0 0.21955180940217536,-0.32216518902735347 l 1.353830871094463 0.9397853374466558" fill="#ff1202" stroke="none" /><path d="M 83.6137871275137 86.86637796730984 l -0.5441292689930873 -0.43612201376185794 a21.697337129559763,21.697337129559763 0 0,0 0.23608925009672774,-0.28941750511142966 l 0.536541526819967 0.44542368848136976" fill="#ff0500" stroke="none" /><path d="M 86.10567301691215 84.25364557470407 l -1.8572339666519915 -2.1047917128477747 a23.80703868184223,23.80703868184223 0 0,0 0.30961189999367883,-0.2684923887081916 l 1.820728268011539 2.1364490949756467" fill="#ff2303" stroke="none" /><path d="M 86.65592168130627 83.78471172551755 l -1.0516236934022496 -1.2778987755868254 a22.654973617062005,22.654973617062005 0 0,0 0.30324933758890643,-0.24520654141905213 l 1.0294709572488425 1.295811414270012" fill="#ff1202" stroke="none" /><path d="M 87.51073957382395 83.11751280151077 l -4.294828206599231 -5.805578532549046 a28.221515867308934,28.221515867308934 0 0,0 0.3930244997614554,-0.28554901362473106 l 4.194258390483994 5.8786467809904455" fill="#ff6008" stroke="none" /><path d="M 88.09926311788651 82.69761687909137 l -1.8499005517749265 -2.6895551426312774 a24.264328248922208,24.264328248922208 0 0,0 0.3461656588931374,-0.23373259813485453 l 1.8033301984752497 2.7209996530647973" fill="#ff2904" stroke="none" /><line stroke="#e1ed5e" stroke-width="0.3" x1="56.762969772571076" x2="54.21961505331055" y1="26.818313649435495" y2="22.513508569990535" /><path d="M 56.25429882871897 25.957352633546506 a86.0,86.0 0 0,1 42.265352541879196,-11.944610805530505" fill="none" id="id24" stroke="none" /><text fill="#e1ed5e" style="font-size:6.75px; font-family:Arial;" text-anchor="middle"><textPath startOffset="22.20632615414155" xlink:href="#id24">December</textPath></text><path d="M 89.3179101791058 81.91981866633112 l -21.76101680695872 -36.832037220399855 a63.78014514091391,63.78014514091391 0 0,0 0.9500303716149526,-0.5503189114568087 l 21.123789702878447 37.20116028924671" fill="#34ff5d" stroke="none" /><path d="M 90.91171255644093 81.06846463323043 l -0.6996495576115014 -1.4574187300440145 a22.616656691492995,22.616656691492995 0 0,0 0.3524125170006199,-0.1654624020677388 l 0.6744588293112731 1.4692461147517608" fill="#ff1202" stroke="none" /><path d="M 91.56875222667455 80.76684994638697 l -1.6180261568311072 -3.6910005139997506 a25.030073626937362,25.030073626937362 0 0,0 0.39609047666360636,-0.16958527098889833 l 1.5542519223771925 3.718305312951435" fill="#ff3404" stroke="none" /><path d="M 91.90106846888425 80.62456947434976 l -1.303987339567318 -3.119586331486538 a24.381153924527762,24.381153924527762 0 0,0 0.38860788078990494,-0.15852291193699167 l 1.2500955891890326 3.141570129607107" fill="#ff2b04" stroke="none" /><path d="M 93.25333710446033 80.11325718540243 l -0.9455593610581895 -2.787169912065879 a23.94319530850572,23.94319530850572 0 0,0 0.39143382094357,-0.12904957649064505 l 0.8974427178722102 2.803033212815758" fill="#ff2503" stroke="none" /><path d="M 94.28887869178378 79.79150937346287 l -6.177522033056626 -21.858824101784403 a43.71497236585708,43.71497236585708 0 0,0 0.7258811017381431,-0.19841072542251043 l 5.80034304209476 21.96192136803321" fill="#dbff1b" stroke="none" /><path d="M 94.98787191387505 79.60689891045804 l -0.9953514589957047 -4.049837229641872 a25.17036042968929,25.17036042968929 0 0,0 0.4216350757038203,-0.09978739993615698 l 0.9254926963293504 4.0663705417189" fill="#ff3605" stroke="none" /><path d="M 95.33964822691252 79.52364482259891 l -0.602130299490554 -2.645601550218434 a23.71325790519124,23.71325790519124 0 0,0 0.39878616967820585,-0.08715921078343866 l 0.5565014056588271 2.6555742590977407" fill="#ff2103" stroke="none" /><path d="M 98.19473922651362 79.07773832637324 l -0.33674528844446117 -3.902745323928732 a24.917246284411682,24.917246284411682 0 0,0 0.42763904833223315,-0.03319302056152055 l 0.26951605074989377 3.907963606678715" fill="#ff3204" stroke="none" /><path d="M 99.27714615592234 79.0124445844662 l -0.27880105769770586 -8.094793568962997 a29.099593382009868,29.099593382009868 0 0,0 0.5007532369008446,-0.012932978743195897 l 0.13942118560198227 8.098393339848553" fill="#ff6c09" stroke="none" /><path d="M 99.63851952072746 79.00311137660856 l -0.12063407186832056 -7.007128507472173 a28.00816684301428,28.00816684301428 0 0,0 0.48211455114085455,-0.004149712150665178 l 1.7165058184376098e-15 7.00816684301428" fill="#ff5d08" stroke="none" /></svg>