<?xml version="1.0" encoding="utf-8" ?>
<svg baseProfile="full" height="200mm" version="1.1" viewBox="0,0,200,200" width="200mm" xmlns="http://www.w3.org/2000/svg" xmlns:ev="http://www.w3.org/2001/xml-events" xmlns:xlink="http://www.w3.org/1999/xlink"><defs /><rect fill="#1a1a1a" height="200" width="200" x="0" y="0" /><text alignment-baseline="middle" fill="#e1ed5e" style="dominant-baseline: central; font-size:9.0px; font-family:Arial;" text-anchor="middle" x="100.0" y="100.0">2024</text><line stroke="#e1ed5e" stroke-width="0.3" x1="100.0" x2="100.0" y1="15.0" y2="10.0" /><path d="M 100.0 14.0 a86.0,86.0 0 0,1 42.35913384403234,11.155469271406648" fill="none" id="id85" stroke="none" /><text fill="#e1ed5e" style="font-size:6.75px; font-family:Arial;" text-anchor="middle"><textPath startOffset="22.145653131862478" xlink:href="#id85">January</textPath></text><path d="M 100.36049292484886 79.00309439819443 l 0.045409626368100225 -2.6448830824183935 a23.645272869446536,23.645272869446536 0 0,0 0.40578292987204045,0.010451528862357755 l -0.09080587031088201 2.6437138362059907" fill="#ff2103" stroke="none" /><path d="M 102.15924093988457 79.11130261209362 l 1.184434353805639 -11.458327940840672 a32.51938209880743,32.51938209880743 0 0,0 0.5547870051489732,0.06216504110189762 l -1.3809572605554088 11.436307139231802" fill="#ff9a0e" stroke="none" /><path d="M 102.87502721639298 79.19773525538626 l 0.7165453629644776 -5.184565299737662 a26.23384701767541,26.23384701767541 0 0,0 0.445569267358743,0.06548333828132664 l -0.8054397359309026 5.171500888157453" fill="#ff4606" stroke="none" /><path d="M 103.23170211078529 79.25015418208739 l 0.20570582787867556 -1.3207789783852895 a22.33670191043768,22.33670191043768 0 0,0 0.37836511319714955,0.06225983539177935 l -0.22834844412889566 1.3170531444978417" fill="#ff0f01" stroke="none" /><path d="M 103.58742460773223 79.30868818359171 l 0.6228536363050691 -3.59245425729485 a24.64604912789369,24.64604912789369 0 0,0 0.4162427419456303,0.07585329335776356 l -0.6844311118017531 3.5812327900057204" fill="#ff3004" stroke="none" /><path d="M 103.94208987418118 79.37332000966035 l 0.12571821923757046 -0.6578108465138333 a21.66971649258437,21.66971649258437 0 0,0 0.3647771875083981,0.07296565368263964 l -0.1369918922769255 0.6555557961683344" fill="#ff0500" stroke="none" /><path d="M 104.64783097203109 79.52079915486377 l 0.08208708274399398 -0.3616908326532678 a21.370888861492002,21.370888861492002 0 0,0 0.35706465464266574,0.08426628625902004 l -0.0882838911265447 0.36022840274802026" fill="#ff0100" stroke="none" /><path d="M 107.40779381753099 80.34994680014964 l 0.81476445593213 -2.1612595192005037 a23.30973674430338,23.30973674430338 0 0,0 0.37320857368612625,0.14436509373509418 l -0.8517452921117821 2.1469545373273715" fill="#ff1d02" stroke="none" /><path d="M 107.74402155503746 80.48000691201159 l 0.6280138178431467 -1.5830050699542668 a22.70302859838079,22.70302859838079 0 0,0 0.36102738656643474,0.14682669513832616 l -0.6550956656000211 1.571991118236647" fill="#ff1402" stroke="none" /><path d="M 110.34350942703115 81.72400993836675 l 0.8718225026580358 -1.540426825778008 a22.77002522064445,22.77002522064445 0 0,0 0.3385225419473292,0.19544608072004693 l -0.8981375124657625 1.5252338477817893" fill="#ff1502" stroke="none" /><line stroke="#e1ed5e" stroke-width="0.3" x1="143.13028292997686" x2="145.6673583964461" y1="26.7553504044142" y2="22.446841604673864" /><path d="M 143.63769802327073 25.89364864446614 a86.0,86.0 0 0,1 29.32050498858742,28.57503671076993" fill="none" id="id86" stroke="none" /><text fill="#e1ed5e" style="font-size:6.75px; font-family:Arial;" text-anchor="middle"><textPath startOffset="20.669276256404974" xlink:href="#id86">February</textPath></text><path d="M 112.45986205192187 83.09580414077388 l 0.8708946038049673 -1.181535790212985 a22.467816144648516,22.467816144648516 0 0,0 0.30850131576246803,0.231505138696777 l -0.8910489084782016 1.1664116242521931" fill="#ff1101" stroke="none" /><path d="M 113.03279911837588 83.53348406188908 l 1.8453864028606242 -2.331585435996839 a23.97350662034162,23.97350662034162 0 0,0 0.3205020721687617,0.2581737821878705 l -1.8851392453846454 2.2995633600155605" fill="#ff2603" stroke="none" /><path d="M 113.31354834802062 83.75963576809568 l 2.26872842958484 -2.7674797940108884 a24.57855740452281,24.57855740452281 0 0,0 0.3239988342308176,0.27029135093320145 l -2.31590159797755 2.728126259165817" fill="#ff2f04" stroke="none" /><path d="M 113.59037401385872 83.9905735841838 l 2.469396192477074 -2.908942505529588 a24.81573899210848,24.81573899210848 0 0,0 0.32239251532838614,0.2784749762244952 l -2.5189681875683205 2.866123396840373" fill="#ff3204" stroke="none" /><path d="M 114.13192950727249 84.46653392183569 l 2.230854386849341 -2.452099759315626 a24.315042160359457,24.315042160359457 0 0,0 0.30633506023223267,0.28353915843405486 l -2.2726192183955387 2.413442854749196" fill="#ff2b04" stroke="none" /><path d="M 114.91283532996326 85.21462403516908 l 2.8815735498575688 -2.856944864089879 a25.057782655550724,25.057782655550724 0 0,0 0.3002318500014678,0.3080643270838911 l -2.9301922010098482 2.807057844938246" fill="#ff3505" stroke="none" /><path d="M 115.16444852881244 85.47280134310134 l 3.7366531008173056 -3.5796291440701933 a26.174584157681107,26.174584157681107 0 0,0 0.3080426561404855,0.3271306259326161 l -3.797551590694051 3.5149570581930827" fill="#ff4506" stroke="none" /><path d="M 116.35404254752997 86.82634096563983 l 3.210746847619011 -2.5863503835978454 a25.122875650105414,25.122875650105414 0 0,0 0.26765860198792096,0.3381778998950649 l -3.254671880248491 2.530852539788102" fill="#ff3605" stroke="none" /><path d="M 116.7966241395341 87.39550010848427 l 6.979587587439254 -5.237612645128987 a29.726237970119264,29.726237970119264 0 0,0 0.3027801079609098,0.41077936705241025 l -7.06846971498399 5.117026968807703" fill="#ff750a" stroke="none" /><path d="M 117.01052211995028 87.68569379921539 l 0.5046668729104214 -0.36533989718767934 a21.623026398389577,21.623026398389577 0 0,0 0.21508208279579366,0.3025398849194491 l -0.5108640542361758 0.35662278555872623" fill="#ff0500" stroke="none" /><path d="M 117.42321728460499 88.27688183743584 l 2.7331945635259167 -1.839015280938036 a24.294287438219566,24.294287438219566 0 0,0 0.2298419613242605,0.3480100239443375 l -2.7643609637709017 1.7918253786546399" fill="#ff2b04" stroke="none" /><path d="M 117.81537515405839 88.88188828441811 l 2.277743454459672 -1.4214803767603592 a23.684906275058527,23.684906275058527 0 0,0 0.21229800570653717,0.3467728375071012 l -2.3018094246216116 1.3821704231287033" fill="#ff2203" stroke="none" /><line stroke="#e1ed5e" stroke-width="0.3" x1="172.87174338648825" x2="177.1583165268699" y1="56.24261187166439" y2="53.66864786411523" /><path d="M 173.72905801456457 55.72781907015455 a86.0,86.0 0 0,1 12.242430191666344,42.057860355516425" fill="none" id="id87" stroke="none" /><text fill="#e1ed5e" style="font-size:6.75px; font-family:Arial;" text-anchor="middle"><textPath startOffset="22.145653131862474" xlink:href="#id87">March</textPath></text><path d="M 118.18653347947321 89.5 l 1.145745355543137 -0.6614963894455937 a22.322992778891187,22.322992778891187 0 0,0 0.18875327192380148,0.3335089455001612 l -1.1569319924883144 0.6417306738463145" fill="#ff0f01" stroke="none" /><path d="M 118.36410011445183 89.81374322990088 l 2.904833170666088 -1.6112619930349998 a24.32177978794518,24.32177978794518 0 0,0 0.19938607124411242,0.3668479137679392 l -2.9320645915255414 1.5611592457924575" fill="#ff2b04" stroke="none" /><path d="M 119.0197475246899 91.09779779509293 l 2.3083483200885326 -1.0804235691409747 a23.548683396503158,23.548683396503158 0 0,0 0.16822230198501842,0.36759608912913655 l -2.3265550869286025 1.040638497797154" fill="#ff2003" stroke="none" /><path d="M 119.31412917781788 91.75594674310238 l 16.813060838866686 -7.176495905715826 a39.2806211124291,39.2806211124291 0 0,0 0.259390807564214,0.6224435102462378 l -16.933777490967383 6.88681988602831" fill="#ffef16" stroke="none" /><path d="M 119.94978838288452 93.4421083053983 l 2.5519732125047305 -0.8388842835791015 a23.68631608687022,23.68631608687022 0 0,0 0.12365980935113058,0.3873625915240516 l -2.5659977376331184 0.7949526583636628" fill="#ff2203" stroke="none" /><path d="M 120.05942366710727 93.78553927170692 l 1.584281862760548 -0.49081457085014163 a22.658568046126188,22.658568046126188 0 0,0 0.11191571719963941,0.37253102394324694 l -1.5924738999638148 0.46354594331617116" fill="#ff1302" stroke="none" /><path d="M 120.51834098615036 95.52812308129327 l 1.8142217116411365 -0.3954011780572698 a22.85680976693876,22.85680976693876 0 0,0 0.08026254645076358,0.3840853401357989 l -1.8207419689162667 0.3641993866360665" fill="#ff1602" stroke="none" /><path d="M 120.592083275326 95.88100663000786 l 2.3678100377755764 -0.4736283219427698 a23.41471492361668,23.41471492361668 0 0,0 0.07545526543035494,0.39481383309184936 l -2.375591595488088 0.43291192381760596" fill="#ff1e03" stroke="none" /><path d="M 120.7213421655516 96.59031103205396 l 2.749858633786841 -0.45248819174569016 a23.786838364434026,23.786838364434026 0 0,0 0.06284087139081276,0.40348347332847556 l -2.7572209973159185 0.4052165364857733" fill="#ff2303" stroke="none" /><path d="M 120.77682067341334 96.94652285012252 l 3.9519917138266942 -0.5808066876236112 a24.994443004292734,24.994443004292734 0 0,0 0.058743467519526374,0.42503846794569106 l -3.961379697901433 0.5128799114778345" fill="#ff3405" stroke="none" /><path d="M 120.82617615685814 97.30363454192243 l 4.065842275756603 -0.5264046835948545 a25.09977746984397,25.09977746984397 0 0,0 0.05165523893301688,0.42777947925106746 l -4.074279600949284 0.456531527420374" fill="#ff3605" stroke="none" /><path d="M 120.86939407059847 97.66154086499901 l 1.6128606068680498 -0.18072439510485813 a22.622954295158305,22.622954295158305 0 0,0 0.039932323367530234,0.3863090048973191 l -1.6157253227172461 0.15301086792460764" fill="#ff1302" stroke="none" /><path d="M 120.9064616781168 98.02013634271609 l 1.7037918617587227 -0.16135086073427088 a22.711414855742156,22.711414855742156 0 0,0 0.03342512174284294,0.3884505809762999 l -1.7063106061993063 0.13207923238230898" fill="#ff1402" stroke="none" /><path d="M 120.93736805541906 98.37931529534042 l 1.63554763683257 -0.12660173101702726 a22.640440206360815,22.640440206360815 0 0,0 0.026668324199263824,0.38775158096467954 l -1.6374799221968999 0.09850672589801354" fill="#ff1302" stroke="none" /><path d="M 120.96210409425399 98.7389718711861 l 3.9466705401785975 -0.23742189924963844 a24.953805446776173,24.953805446776173 0 0,0 0.02205252219533739,0.42781303921089503 l -3.950164651830508 0.16963706666201273" fill="#ff3404" stroke="none" /><path d="M 120.99303781780057 99.45929381324524 l 13.722777930358514 -0.35345008144152157 a34.72732898585904,34.72732898585904 0 0,0 0.010233926229743645,0.5960748968147488 l -13.726823288186925 0.11782826865770633" fill="#ffb710" stroke="none" /><line stroke="#e1ed5e" stroke-width="0.3" x1="184.99686870605535" x2="189.99668451229388" y1="99.2704041080226" y2="99.22748670261217" /><path d="M 185.99683186730306 99.26182062694052 a86.0,86.0 0 0,1 -10.086455211305974,41.156179273409016" fill="none" id="id88" stroke="none" /><text fill="#e1ed5e" style="font-size:6.75px; font-family:Arial;" text-anchor="middle"><textPath startOffset="21.40746469413373" xlink:href="#id88">April</textPath></text><path d="M 120.99303781780057 100.54070618675476 l 2.0312517432681108 0.0523178395606071 a23.03192539254423,23.03192539254423 0 0,0 -0.013572727895144285,0.39515516352192726 l -2.0300543283761208 -0.08717926764664503" fill="#ff1902" stroke="none" /><path d="M 120.98066250479742 100.90099992219065 l 1.1158483078018993 0.0479193275367822 a22.116876764901097,22.116876764901097 0 0,0 -0.019545432330543972,0.3791761656083427 l -1.1148612860147826 -0.06706728652185556" fill="#ff0c01" stroke="none" /><path d="M 120.96210409425399 101.26102812881392 l 0.8493040187244127 0.05109202075853435 a21.850839415404945,21.850839415404945 0 0,0 -0.025738248207398163,0.3742284801665643 l -0.8483018093519485 -0.06566392507944209" fill="#ff0801" stroke="none" /><path d="M 120.86939407059847 102.33845913500097 l 1.9289474984361508 0.21614259059922736 a22.941019338181366,22.941019338181366 0 0,0 -0.04721252356537668,0.39098742280749865 l -1.9249528886111105 -0.24922369033013458" fill="#ff1702" stroke="none" /><path d="M 120.82617615685814 102.69636545807757 l 2.6026538609341503 0.33696564924349387 a23.62437668192002,23.62437668192002 0 0,0 -0.055523453915141976,0.4017400535523295 l -2.596485890463798 -0.3815940109959084" fill="#ff2103" stroke="none" /><path d="M 120.7213421655516 103.40968896794604 l 2.5175365280835993 0.4142596776611505 a23.55139202216577,23.55139202216577 0 0,0 -0.06906746552366741,0.39836278717579826 l -2.5100542450676975 -0.45741549775753676" fill="#ff2003" stroke="none" /><path d="M 120.592083275326 104.11899336999214 l 1.674185702393195 0.334884028783825 a22.70735030934846,22.70735030934846 0 0,0 -0.07973771394878242,0.38157382662229755 l -1.668190277620048 -0.3635743066915316" fill="#ff1402" stroke="none" /><path d="M 120.35273937422433 105.17358676015961 l 2.614550928029758 0.6646086217832922 a23.69769923738914,23.69769923738914 0 0,0 -0.10360467003419259,0.39340380741255276 l -2.602756777190835 -0.7093929335686481" fill="#ff2203" stroke="none" /><path d="M 120.16314734710363 105.8691983318838 l 1.934402333116615 0.5630763268885716 a23.014687900462334,23.014687900462334 0 0,0 -0.11367467252399482,0.37838601414881934 l -1.9244513405889905 -0.5961999446281143" fill="#ff1902" stroke="none" /><path d="M 118.70294669586154 109.54985784667822 l 7.580468218052702 3.8706410851122173 a29.511484054773632,29.511484054773632 0 0,0 -0.2342536316431053,0.44921222617475953 l -7.512906517434647 -4.00019955439148" fill="#ff720a" stroke="none" /><line stroke="#e1ed5e" stroke-width="0.3" x1="174.33088141563837" x2="178.70328620479359" y1="141.23008692659167" y2="143.65538615756765" /><path d="M 175.20536237346943 141.71514677278685 a86.0,86.0 0 0,1 -30.301960400862466,31.631185727798858" fill="none" id="id89" stroke="none" /><text fill="#e1ed5e" style="font-size:6.75px; font-family:Arial;" text-anchor="middle"><textPath startOffset="22.145653131862474" xlink:href="#id89">May</textPath></text><path d="M 117.423217284605 111.72311816256416 l 3.39133571897944 2.2818420222337124 a25.08753727484624,25.08753727484624 0 0,0 -0.24348083688770825,0.35524581753213325 l -3.3516651452764115 -2.3397225748358896" fill="#ff3605" stroke="none" /><path d="M 117.21940702142032 112.02048342749411 l 2.7823378651190107 1.9422879171012095 a24.393211804263384,24.393211804263384 0 0,0 -0.24263684020339799,0.34129910199005387 l -2.748585926385652 -1.9897642458007674" fill="#ff2c04" stroke="none" /><path d="M 116.1254893667686 113.45245675266167 l 1.1120158926333343 0.9276832078504614 a22.44816279457692,22.44816279457692 0 0,0 -0.24939421044057716,0.29378575280617747 l -1.0959271186856427 -0.9466357431061956" fill="#ff1001" stroke="none" /><path d="M 114.91283532996324 114.78537596483092 l 1.0586682484093455 1.0496198562127999 a22.490798545326058,22.490798545326058 0 0,0 -0.27418219763489066,0.27183877412970897 l -1.04049413064449 -1.0676386405711706" fill="#ff1101" stroke="none" /><path d="M 113.86319453409587 115.77377054828091 l 1.1161349716985889 1.2699567117221988 a22.69072390552002,22.69072390552002 0 0,0 -0.2947854809743515,0.25462867747423285 l -1.094170010961382 -1.2889295216611492" fill="#ff1402" stroke="none" /><path d="M 112.7482090630111 116.68781488649013 l 0.3953821040500653 0.5175678661375841 a21.651309069690626,21.651309069690626 0 0,0 -0.29729001221021467,0.2230919675003388 l -0.38643910292908423 -0.5242788609019378" fill="#ff0500" stroke="none" /><path d="M 112.45986205192187 116.90419585922612 l 5.705680610568919 7.740851555926249 a30.616422101837458,30.616422101837458 0 0,0 -0.4257417451496521,0.3082041912211768 l -5.571957855045299 -7.837656518520503" fill="#ff810b" stroke="none" /><path d="M 111.8722381534696 117.32195027204791 l 0.1733694462081389 0.25295120322634607 a21.30666150083141,21.30666150083141 0 0,0 -0.30347150205520707,0.2041891700855671 l -0.16900165605592848 -0.25589004736903437" fill="#ff0000" stroke="none" /><path d="M 110.96478420261333 117.91015095944535 l 0.8377326149056241 1.3683732683981706 a22.604444245133905,22.604444245133905 0 0,0 -0.332680632018793,0.19976516083634147 l -0.8141192263293945 -1.3825524297704355" fill="#ff1302" stroke="none" /><line stroke="#e1ed5e" stroke-width="0.3" x1="143.1302829299769" x2="145.66735839644613" y1="173.24464959558577" y2="177.55315839532614" /><path d="M 143.63769802327073 174.10635135553383 a86.0,86.0 0 0,1 -40.68552437913181,11.842963189579606" fill="none" id="id90" stroke="none" /><text fill="#e1ed5e" style="font-size:6.75px; font-family:Arial;" text-anchor="middle"><textPath startOffset="21.407464694133747" xlink:href="#id90">June</textPath></text><path d="M 109.71004243097381 118.62028667847754 l 3.3252148985005805 6.376538013893714 a28.191473504355127,28.191473504355127 0 0,0 -0.4310245105729158,0.22008418626975926 l -3.2152631662140823 -6.432680151836309" fill="#ff6108" stroke="none" /><path d="M 109.06512990194946 118.94263497670748 l 1.3582824919307264 2.8382880022892167 a24.1465552770966,24.1465552770966 0 0,0 -0.3754344199570276,0.1757222653350629 l -1.3093593581021925 -2.861186499194813" fill="#ff2903" stroke="none" /><path d="M 108.4095320186766 119.2426549942271 l 0.6850102540354456 1.567437516931685 a22.7105845251313,22.7105845251313 0 0,0 -0.35857301194812996,0.1530534967313775 l -0.6580021669168845 -1.5789656633224665" fill="#ff1402" stroke="none" /><path d="M 108.07796709384702 119.3841803445677 l 1.2840481416054512 3.0812480985402764 a24.338093688726918,24.338093688726918 0 0,0 -0.3870284671656877,0.15740110826172565 l -1.2309652132493227 -3.1028364633812933" fill="#ff2b04" stroke="none" /><path d="M 107.74402155503746 119.51999308798841 l 3.2459299689272605 8.181863920089256 a29.80221327678661,29.80221327678661 0 0,0 -0.4771586067971077,0.18457519964346852 l -3.1049990996366232 -8.236379007870765" fill="#ff760a" stroke="none" /><path d="M 104.9986988182912 120.39639698878246 l 0.8751866744003602 3.5710602897384125 a24.676740854070975,24.676740854070975 0 0,0 -0.41229880553271514,0.09730139547427716 l -0.8137557151277659 -3.585557828858915" fill="#ff3004" stroke="none" /><path d="M 103.94208987418118 120.62667999033965 l 0.8719970600397282 4.562657089012331 a25.64523611721002,25.64523611721002 0 0,0 -0.43311783336458776,0.07892849715317284 l -0.7935444931240834 -4.576953760096867" fill="#ff3e05" stroke="none" /><path d="M 103.2317021107853 120.74984581791261 l 0.17568443671123715 1.1280201111974266 a22.14161919770491,22.14161919770491 0 0,0 -0.3760647470960115,0.05526856732231198 l -0.15629458400754015 -1.130869751818621" fill="#ff0c01" stroke="none" /><path d="M 102.51750503828377 120.84855314841334 l 0.24782898874617407 2.052379544437578 a23.06728832098688,23.06728832098688 0 0,0 -0.3935324406110846,0.04409613080059292 l -0.2125606465342902 -2.0563314357451414" fill="#ff1902" stroke="none" /><path d="M 101.08105385017728 120.97215588758144 l 0.14529241438995746 2.818634023984631 a23.82237624119164,23.82237624119164 0 0,0 -0.40858124968343185,0.01754623687832109 l -0.0968854041056961 -2.8207128292887833" fill="#ff2403" stroke="none" /><path d="M 100.72087961077811 120.9876233191556 l 0.0914330057464217 2.661972200146956 a23.66354200058776,23.66354200058776 0 0,0 -0.4060964513780754,0.010459604064215942 l -0.04572324029760247 -2.6631495215612166" fill="#ff2203" stroke="none" /><line stroke="#e1ed5e" stroke-width="0.3" x1="101.45913802915013" x2="101.54496967792366" y1="184.9874750549273" y2="189.98673829345242" /><path d="M 101.47630435890484 185.9873277026323 a86.0,86.0 0 0,1 -42.54439059252881,-10.42667462771756" fill="none" id="id91" stroke="none" /><text fill="#e1ed5e" style="font-size:6.75px; font-family:Arial;" text-anchor="middle"><textPath startOffset="22.145653131862474" xlink:href="#id91">July</textPath></text><path d="M 100.0 121.0 l 2.667662148039613e-16 2.178311452654711 a23.17831145265471,23.17831145265471 0 0,0 -0.3978865375535783,-0.00341537738614975 l 0.03739361270472586 -2.1779904734629962" fill="#ff1b02" stroke="none" /><path d="M 97.12497278360702 120.80226474461374 l -0.5554443221209311 4.018918420587496 a25.05712011977879,25.05712011977879 0 0,0 -0.42558312726179304,-0.06254606394760873 l 0.6243525549904091 -4.008791283341004" fill="#ff3505" stroke="none" /><path d="M 96.76829788921471 120.74984581791261 l -0.35465853215592336 2.2771621913055533 a23.304615004711742,23.304615004711742 0 0,0 -0.3947607542791954,-0.06495773189255556 l 0.39369678948818226 -2.2707384609173293" fill="#ff1d02" stroke="none" /><path d="M 95.70440661134978 120.55596938700252 l -0.8328494751018045 3.9854862332659864 a25.07157693820589,25.07157693820589 0 0,0 -0.42053103201243014,-0.09165278113496905 l 0.9011429237333711 -3.9706019939972985" fill="#ff3605" stroke="none" /><path d="M 94.30408787586889 120.21278271476187 l -0.4993807796885524 1.7721262146952192 a22.841144340874,22.841144340874 0 0,0 -0.37648730568285993,-0.10958996769949804 l 0.5297280977530191 -1.7632925526932053" fill="#ff1602" stroke="none" /><path d="M 93.61358852112213 120.00534299687104 l -0.22837633917352337 0.7153856297306486 a21.750954293895052,21.750954293895052 0 0,0 -0.3547241561962969,-0.11660487585873561 l 0.24062323301756383 -0.7113598324698914" fill="#ff0601" stroke="none" /><path d="M 92.93061703081489 119.77432235084164 l -0.7562944854455519 2.1154902786498995 a23.24661533596154,23.24661533596154 0 0,0 -0.3746146103339579,-0.1375636738676581 l 0.7924982474336286 -2.102195755773522" fill="#ff1c02" stroke="none" /><path d="M 92.59220618246901 119.65005319985036 l -0.44849571086975665 1.1896881575779032 a22.271419016276568,22.271419016276568 0 0,0 -0.356584229852442,-0.1379344404086429 l 0.46885220321572685 -1.18181382903122" fill="#ff0e01" stroke="none" /><path d="M 92.25597844496254 119.51999308798841 l -0.4940320427335717 1.2452834733047773 a22.33970093234778,22.33970093234778 0 0,0 -0.35524968879510904,-0.1444769557533484 l 0.5153361927191217 -1.2366192609721376" fill="#ff0f01" stroke="none" /><path d="M 91.26138138417905 119.09545874513695 l -1.852457897900283 4.047954822334903 a25.451689399223348,25.451689399223348 0 0,0 -0.3957268495182753,-0.18522014699456155 l 1.9216734612900483 -4.015558443769815" fill="#ff3b05" stroke="none" /><path d="M 90.6110303473126 118.78422872680471 l -1.3661475335852677 2.73321021312286 a24.055617311222107,24.055617311222107 0 0,0 -0.3677906611194727,-0.1877965321798158 l 1.4128654164183228 -2.709355729270208" fill="#ff2703" stroke="none" /><path d="M 90.28995756902619 118.62028667847754 l -1.265286628208961 2.426353943886141 a23.736447279327017,23.736447279327017 0 0,0 -0.35967633322735676,-0.19150738859353228 l 1.3067517772228796 -2.4042760875700355" fill="#ff2303" stroke="none" /><line stroke="#e1ed5e" stroke-width="0.3" x1="58.13341422392154" x2="55.67067388415222" y1="173.97424548756322" y2="178.32567169271397" /><path d="M 57.64086615596768 174.84453072859336 a86.0,86.0 0 0,1 -31.369924170532247,-30.572349798747897" fill="none" id="id92" stroke="none" /><text fill="#e1ed5e" style="font-size:6.75px; font-family:Arial;" text-anchor="middle"><textPath startOffset="22.145653131862474" xlink:href="#id92">August</textPath></text><path d="M 89.65649057296885 118.27599006163327 l -0.3522395501286105 0.622373534135444 a21.71513741103864,21.71513741103864 0 0,0 -0.32283949815108015,-0.1863914711625712 l 0.3628715161400904 -0.6162351656967011" fill="#ff0601" stroke="none" /><path d="M 88.1277618465304 117.32195027204791 l -1.4352397821142804 2.0940577347652787 a23.53869868804743,23.53869868804743 0 0,0 -0.33134070855087944,-0.23130154778474263 l 1.4709755818389252 -2.0691113711754068" fill="#ff2003" stroke="none" /><path d="M 84.1078160697243 113.72728997021213 l -1.486929507770283 1.2843742941800538 a22.964835028349324,22.964835028349324 0 0,0 -0.255134326679819,-0.3005475953026869 l 1.5087583979572143 -1.2586599164278125" fill="#ff1802" stroke="none" /><path d="M 83.8745106332314 113.45245675266167 l -2.4700753097916346 2.060624674700838 a24.216744641097296,24.216744641097296 0 0,0 -0.2635625721623167,-0.3215034833632438 l 2.5050847011925814 -2.017918909639099" fill="#ff2a04" stroke="none" /><path d="M 83.64595745247003 113.17365903436017 l -0.5011987930206812 0.4037302696564488 a21.643582442863583,21.643582442863583 0 0,0 -0.23059028350692848,-0.29134329042075774 l 0.5080555071691714 -0.3950670353210105" fill="#ff0500" stroke="none" /><path d="M 82.78059297857968 112.02048342749411 l -0.7963131452715849 0.5558884201950443 a21.971147033687107,21.971147033687107 0 0,0 -0.21323548854309335,-0.31111695040415377 l 0.8057383706300032 -0.5421367347208395" fill="#ff0a01" stroke="none" /><path d="M 82.576782715395 111.72311816256416 l -52.26965185381499 35.16935448769248 a84.0,84.0 0 0,0 -0.7947022443170932,-1.2032804866437559 l 52.86567853705281 -34.266894122709665" fill="#4dd2ff" stroke="none" /><path d="M 82.37810715431573 111.42229804090323 l -1.09186019622467 0.7077305877121837 a22.301169194564338,22.301169194564338 0 0,0 -0.20547055691456673,-0.32303384322208223 l 1.1038484447651267 -0.6888830698114295" fill="#ff0e01" stroke="none" /><path d="M 82.18462484594161 111.11811171558189 l -1.6236420576026138 1.0132727279914095 a22.91387960763137,22.91387960763137 0 0,0 -0.20538696194134504,-0.335484166901764 l 1.6407969839993637 -0.9852514449650884" fill="#ff1702" stroke="none" /><line stroke="#e1ed5e" stroke-width="0.3" x1="26.387840678322732" x2="22.057713659400548" y1="142.50000000000003" y2="145.00000000000006" /><path d="M 25.521815274538298 143.00000000000003 a86.0,86.0 0 0,1 -11.493303480769221,-40.785679425670985" fill="none" id="id93" stroke="none" /><text fill="#e1ed5e" style="font-size:6.75px; font-family:Arial;" text-anchor="middle"><textPath startOffset="21.40746469413373" xlink:href="#id93">September</textPath></text><path d="M 81.81346652052679 110.50000000000001 l -3.432622856597417 1.9818257302829831 a24.963651460565963,24.963651460565963 0 0,0 -0.2110815041253263,-0.3729607923503689 l 3.4661377257441215 -1.9226081678334928" fill="#ff3404" stroke="none" /><path d="M 81.4637452351635 109.86951160357371 l -2.3537166933097633 1.2532215655674699 a23.66656081212644,23.66656081212644 0 0,0 -0.18785832011881667,-0.36024309887580785 l 2.374883082403529 -1.2126322235871592" fill="#ff2203" stroke="none" /><path d="M 81.1358732173502 109.22738970284198 l -2.9129265455586677 1.4248583420434098 a24.242739945587843,24.242739945587843 0 0,0 -0.17965110378177443,-0.3754017117139072 l 2.9369569073003543 -1.3746441282643977" fill="#ff2a04" stroke="none" /><path d="M 80.9802524753101 108.90220220490708 l -1.2401253823170317 0.5804412965257755 a22.369241783827636,22.369241783827636 0 0,0 -0.15979684652321632,-0.3491849483924879 l 1.2499066936953043 -0.5590673659185986" fill="#ff0f01" stroke="none" /><path d="M 80.83023694016515 108.57439118712176 l -1.3121943846992725 0.5869278578372291 a22.437476404516506,22.437476404516506 0 0,0 -0.15424816027885366,-0.35294997690100954 l 1.3220764269950942 -0.5643158111603702" fill="#ff1001" stroke="none" /><path d="M 80.68587082218212 108.24405325689762 l -3.1984254317910197 1.3652176266991292 a24.477606132237746,24.477606132237746 0 0,0 -0.16163863610269583,-0.3878738841671171 l 3.221389912430201 -1.3101112330907307" fill="#ff2d04" stroke="none" /><path d="M 80.41425534168474 107.57618678355246 l -2.481209722285097 0.9597852230355388 a23.660373913629336,23.660373913629336 0 0,0 -0.143279693871,-0.3800664106444845 l 2.497320099970533 -0.9170505321969094" fill="#ff2203" stroke="none" /><path d="M 80.16572619554312 106.89939002012753 l -2.492004582998756 0.8668485531439138 a23.638467975127707,23.638467975127707 0 0,0 -0.13002798394390347,-0.3844046300715365 l 2.506517988515027 -0.8239422485982157" fill="#ff2103" stroke="none" /><path d="M 79.83685265289637 105.86919833188381 l -1.1747190205692215 0.34194358634925354 a22.223474639513423,22.223474639513423 0 0,0 -0.10347832674257439,-0.36720807634542324 l 1.1804158393863708 -0.32172758610083463" fill="#ff0d01" stroke="none" /><path d="M 79.73907114497094 105.5222062557868 l -2.5430727561616826 0.6931257882340994 a23.635838083313715,23.635838083313715 0 0,0 -0.10333421743068123,-0.3923768548252824 l 2.5545964543970965 -0.6493684290360144" fill="#ff2103" stroke="none" /><line stroke="#e1ed5e" stroke-width="0.3" x1="15.003131293944662" x2="10.003315487706104" y1="100.72959589197737" y2="100.7725132973878" /><path d="M 14.003168132696942 100.73817937305945 a86.0,86.0 0 0,1 10.791469493833604,-42.45332614584628" fill="none" id="id94" stroke="none" /><text fill="#e1ed5e" style="font-size:6.75px; font-family:Arial;" text-anchor="middle"><textPath startOffset="22.145653131862435" xlink:href="#id94">October</textPath></text><path d="M 79.00696218219943 99.45929381324524 l -0.8188152206047246 -0.021089775545230005 a21.81908677447906,21.81908677447906 0 0,0 0.012858001346526609,-0.37434667989410775 l 0.8183325322613474 0.035142720003476284" fill="#ff0701" stroke="none" /><path d="M 79.01933749520258 99.09900007780938 l -1.3271384186908215 -0.05699303402374432 a22.328361618043974,22.328361618043974 0 0,0 0.019732328650943688,-0.3828019042943157 l 1.3259645005833074 0.079766731694772" fill="#ff0f01" stroke="none" /><path d="M 79.0935383218832 98.0201363427161 l -9.575787398818745 -0.9068370225767524 a30.6186307597751,30.6186307597751 0 0,0 0.05404568513105722,-0.5228429773497455 l 9.558809321206024 1.0710845222094105" fill="#ff810b" stroke="none" /><path d="M 79.56144815229197 95.17655741523228 l -1.3968090335826049 -0.32964312861168316 a22.43517945516889,22.43517945516889 0 0,0 0.09167705914756055,-0.374073686195191 l 1.390944447918746 0.3535726394149918" fill="#ff1001" stroke="none" /><path d="M 80.05021161711548 93.44210830539832 l -2.906952474632583 -0.9555730178245858 a24.059982431676183,24.059982431676183 0 0,0 0.13234660607482757,-0.3912592244094526 l 2.8901204469853905 1.0053339167082" fill="#ff2703" stroke="none" /><path d="M 80.16572619554312 93.10060997987247 l -2.2661920951404695 -0.7882992480113223 a23.39938373681501,23.39938373681501 0 0,0 0.13522596339887571,-0.3782510867084507 l 2.2523259616976503 0.8270852911006945" fill="#ff1e03" stroke="none" /><path d="M 80.41425534168474 92.42381321644754 l -2.52130119143618 -0.9752934645660267 a23.703360323738348,23.703360323738348 0 0,0 0.15005505377109543,-0.37823675871926865 l 2.5041874626989533 1.0184312404988782" fill="#ff2203" stroke="none" /><path d="M 80.68587082218212 91.75594674310238 l -2.526726379695571 -1.0785092430541472 a23.747276539630242,23.747276539630242 0 0,0 0.163252482223606,-0.37355362764578903 l 2.507840015454988 1.1217249404758032" fill="#ff2303" stroke="none" /><path d="M 81.46374523516351 90.13048839642627 l -2.67540765145106 -1.424503881462437 a24.03100930545329,24.03100930545329 0 0,0 0.19700238120812225,-0.36246219258232226 l 2.6505599206275874 1.4702209075193788" fill="#ff2703" stroke="none" /><line stroke="#e1ed5e" stroke-width="0.3" x1="26.387840678322718" x2="22.05771365940052" y1="57.49999999999999" y2="54.99999999999999" /><path d="M 25.521815274538284 56.99999999999999 a86.0,86.0 0 0,1 29.574782752854787,-30.34633250058573" fill="none" id="id95" stroke="none" /><text fill="#e1ed5e" style="font-size:6.75px; font-family:Arial;" text-anchor="middle"><textPath startOffset="21.40746469413373" xlink:href="#id95">November</textPath></text><path d="M 82.78059297857968 87.97951657250589 l -1.1384805110016272 -0.7947478155314144 a22.388438678596387,22.388438678596387 0 0,0 0.22269556225935064,-0.31324919724709677 l 1.1246698502123043 0.8141742394880315" fill="#ff1001" stroke="none" /><path d="M 83.8745106332314 86.54754324733833 l -1.704421114780403 -1.4218887137873852 a23.219643856771896,23.219643856771896 0 0,0 0.2579651973911197,-0.3038823538824764 l 1.6797613538821685 1.4509378501194186" fill="#ff1b02" stroke="none" /><path d="M 84.34580500576568 86.00192230759919 l -2.475603999807267 -2.213700361959453 a24.3210065426616,24.3210065426616 0 0,0 0.2809681954804632,-0.30883326521639093 l 2.437238103484938 2.2558712027335015" fill="#ff2b04" stroke="none" /><path d="M 84.58840730492382 85.73525988315684 l -1.9463089427310536 -1.8014745006865123 a23.652061250646106,23.652061250646106 0 0,0 0.27835566467664613,-0.2956040697689322 l 1.9150974443181357 1.8346200303999556" fill="#ff2203" stroke="none" /><path d="M 85.86807049272753 84.46653392183569 l -4.688957937714819 -5.153986158079133 a27.967775818676294,27.967775818676294 0 0,0 0.35790092783054106,-0.3200372165927066 l 4.599791983060886 5.23371890455524" fill="#ff5d08" stroke="none" /><line stroke="#e1ed5e" stroke-width="0.3" x1="56.869717070023135" x2="54.33264160355391" y1="26.7553504044142" y2="22.446841604673864" /><path d="M 56.362301976729285 25.89364864446614 a86.0,86.0 0 0,1 42.16139366436587,-11.88097634709845" fill="none" id="id96" stroke="none" /><text fill="#e1ed5e" style="font-size:6.75px; font-family:Arial;" text-anchor="middle"><textPath startOffset="22.145653131862474" xlink:href="#id96">December</textPath></text></svg>